<svg width="19" height="20" viewBox="0 0 19 20" fill="none" xmlns="http://www.w3.org/2000/svg">
<path d="M12.6188 18.9991H5.74576C4.90671 19.0003 4.09928 18.6792 3.49021 18.1021C2.88114 17.525 2.51697 16.736 2.47292 15.8981L1.81836 3.45312H16.5462L15.8916 15.8981C15.8475 16.736 15.4834 17.525 14.8743 18.1021C14.2652 18.6792 13.4578 19.0003 12.6188 18.9991V18.9991Z" stroke="white" stroke-width="2" stroke-linecap="round" stroke-linejoin="round"/>
<path d="M1 3.45312H17.3642" stroke="white" stroke-width="2" stroke-linecap="round" stroke-linejoin="round"/>
<path d="M6.72729 2.63642C6.72729 2.20242 6.8997 1.78618 7.20659 1.4793C7.51348 1.17241 7.92971 1 8.36372 1H10.0001C10.4341 1 10.8504 1.17241 11.1573 1.4793C11.4642 1.78618 11.6366 2.20242 11.6366 2.63642" stroke="white" stroke-width="2" stroke-linecap="round" stroke-linejoin="round"/>
<path d="M6.72729 9.18359V13.2746" stroke="white" stroke-width="2" stroke-linecap="round" stroke-linejoin="round"/>
<path d="M11.6367 9.18359V13.2746" stroke="white" stroke-width="2" stroke-linecap="round" stroke-linejoin="round"/>
</svg>
