<svg width="24" height="25" viewBox="0 0 24 25" fill="none" xmlns="http://www.w3.org/2000/svg">
<path d="M9.1213 21.4321C9.12934 21.4294 9.13478 21.4219 9.13478 21.4134V18.3699C9.13478 17.5894 9.77217 16.9566 10.5584 16.9566H13.4326C13.8102 16.9566 14.1723 17.1055 14.4393 17.3706C14.7063 17.6356 14.8563 17.9951 14.8563 18.3699V21.4276C14.8539 21.7521 14.9821 22.0642 15.2124 22.2945C15.4427 22.5248 15.7561 22.6543 16.0829 22.6543H18.0438C18.9596 22.6566 19.8388 22.2971 20.4872 21.6551C21.1356 21.0131 21.5 20.1413 21.5 19.2321V10.5212C21.5 9.78676 21.1721 9.09014 20.6046 8.61897L13.934 3.33017C12.7737 2.40286 11.1111 2.4328 9.98539 3.40128L3.46701 8.61897C2.87274 9.07625 2.51755 9.77493 2.5 10.5212V19.2232C2.5 21.1182 4.04738 22.6543 5.95617 22.6543H7.87229C8.54647 22.6543 9.09526 22.1181 9.10773 21.4507C9.10789 21.4423 9.1133 21.4347 9.1213 21.4321Z" fill="#F3F5F7"/>
<path d="M9.1213 21.4321C9.12934 21.4294 9.13478 21.4219 9.13478 21.4134V18.3699C9.13478 17.5894 9.77217 16.9566 10.5584 16.9566H13.4326C13.8102 16.9566 14.1723 17.1055 14.4393 17.3706C14.7063 17.6356 14.8563 17.9951 14.8563 18.3699V21.4276C14.8539 21.7521 14.9821 22.0642 15.2124 22.2945C15.4427 22.5248 15.7561 22.6543 16.0829 22.6543H18.0438C18.9596 22.6566 19.8388 22.2971 20.4872 21.6551C21.1356 21.0131 21.5 20.1413 21.5 19.2321V10.5212C21.5 9.78676 21.1721 9.09014 20.6046 8.61897L13.934 3.33017C12.7737 2.40286 11.1111 2.4328 9.98539 3.40128L3.46701 8.61897C2.87274 9.07625 2.51755 9.77493 2.5 10.5212V19.2232C2.5 21.1182 4.04738 22.6543 5.95617 22.6543H7.87229C8.54647 22.6543 9.09526 22.1181 9.10773 21.4507C9.10789 21.4423 9.1133 21.4347 9.1213 21.4321Z" fill="#AFBCCB"/>
</svg>
