<?xml version="1.0" encoding="UTF-8" standalone="no"?>
<!DOCTYPE svg PUBLIC "-//W3C//DTD SVG 1.1//EN" "http://www.w3.org/Graphics/SVG/1.1/DTD/svg11.dtd">
<!-- Created with Vectornator (http://vectornator.io/) -->
<svg height="100%" stroke-miterlimit="10" style="fill-rule:nonzero;clip-rule:evenodd;stroke-linecap:round;stroke-linejoin:round;" version="1.1" viewBox="0 0 308.58 308.58" width="100%" xml:space="preserve" xmlns="http://www.w3.org/2000/svg" xmlns:xlink="http://www.w3.org/1999/xlink">
<defs/>
<clipPath id="ArtboardFrame">
<rect height="308.58" width="308.58" x="0" y="0"/>
</clipPath>
<g clip-path="url(#ArtboardFrame)" id="Adsız">
<path d="M-76.5519 192.754C-76.5519 277.414-145.182 346.044-229.842 346.044C-314.502 346.044-383.132 277.414-383.132 192.754C-383.132 108.094-314.502 39.4645-229.842 39.4645C-145.182 39.4645-76.5519 108.094-76.5519 192.754ZM-79.5219 192.774C-79.5219 109.764-146.822 42.4645-229.832 42.4645C-312.842 42.4645-380.142 109.764-380.142 192.774C-380.142 275.784-312.842 343.084-229.832 343.084C-146.822 343.084-79.5219 275.784-79.5219 192.774Z" fill="#2d280f" fill-rule="nonzero" opacity="1" stroke="none"/>
<path d="M-200.809-141.722C-200.809-58.7116-268.109 8.58838-351.119 8.58838C-434.129 8.58838-501.429-58.7116-501.429-141.722C-501.429-224.732-434.129-292.032-351.119-292.032C-268.109-292.032-200.809-224.732-200.809-141.722ZM-441.949-225.852C-444.569-226.898-447.403-226.802-450.449-225.562C-452.829-224.595-454.989-223.268-456.929-221.582C-457.183-221.355-457.143-221.212-456.809-221.152L-451.859-220.192C-449.499-219.738-448.583-218.572-449.109-216.692C-449.643-214.785-450.553-213.148-451.839-211.782C-452.446-211.128-453.953-210.115-456.359-208.742C-458.779-207.368-460.973-205.712-462.939-203.772C-465.099-201.645-466.496-199.495-467.129-197.322C-467.876-194.748-467.836-192.062-467.009-189.262C-466.009-185.895-464.239-183.025-461.699-180.652C-460.706-179.725-460.309-179.935-460.509-181.282C-461.669-189.035-459.186-194.795-453.059-198.562C-449.473-200.768-445.896-202.985-442.329-205.212C-439.149-207.198-437.026-209.078-435.959-210.852C-433.999-214.105-434.023-217.365-436.029-220.632C-437.576-223.152-439.549-224.892-441.949-225.852ZM-443.829-188.312C-437.243-190.872-430.836-190.498-424.609-187.192C-423.809-186.765-423.496-186.995-423.669-187.882C-424.149-190.275-425.543-192.122-427.849-193.422C-428.896-194.015-428.829-194.428-427.649-194.662C-426.123-194.962-425.063-195.588-424.469-196.542C-423.976-197.322-423.876-198.408-424.169-199.802C-424.823-202.888-426.523-205.352-429.269-207.192C-429.879-207.602-430.219-208.302-430.159-209.032C-430.013-210.945-430.266-212.562-430.919-213.882C-431.733-215.515-432.376-215.448-432.849-213.682C-434.036-209.195-436.366-206.022-439.839-204.162C-443.459-202.222-447.069-200.265-450.669-198.292C-454.109-196.405-456.623-193.672-458.209-190.092C-459.063-188.145-459.279-186.428-458.859-184.942C-457.206-179.155-453.296-175.465-447.129-173.872C-444.436-173.178-441.873-172.808-439.439-172.762C-438.869-172.752-438.439-173.282-438.579-173.842C-439.806-178.735-441.629-183.352-444.049-187.692C-444.179-187.922-444.079-188.222-443.829-188.312ZM-242.899-197.202C-244.093-195.622-244.743-193.705-244.849-191.452C-244.949-189.385-244.029-188.172-242.089-187.812C-239.476-187.325-236.986-187.798-234.619-189.232C-234.049-189.582-233.289-189.342-233.029-188.712C-232.063-186.385-230.116-184.345-227.189-182.592C-226.949-182.452-226.639-182.562-226.549-182.832C-225.469-186.258-225.463-189.398-226.529-192.252C-227.303-194.332-228.583-196.442-230.369-198.582C-231.836-200.342-233.729-201.982-236.049-203.502C-239.976-206.082-244.143-206.542-248.549-204.882C-249.049-204.692-249.239-204.082-248.929-203.642C-247.516-201.615-245.676-200.108-243.409-199.122C-242.659-198.792-242.409-197.852-242.899-197.202ZM-257.609-180.982L-257.149-180.442C-257.256-179.488-257.159-178.582-256.859-177.722C-256.746-177.395-256.636-177.402-256.529-177.742C-255.709-180.355-254.279-182.565-252.239-184.372C-251.969-184.612-251.649-184.732-251.359-184.702C-250.793-184.648-250.729-184.332-251.169-183.752C-253.309-180.985-254.733-178.598-255.439-176.592C-256.159-174.545-255.773-173.985-254.279-174.912C-253.986-175.098-253.679-175.208-253.359-175.242C-249.199-175.715-245.693-177.448-242.839-180.442C-242.673-180.615-242.496-180.752-242.309-180.852C-240.983-181.552-240.809-181.302-241.789-180.102C-244.609-176.655-248.213-174.558-252.599-173.812C-252.859-173.765-253.063-173.702-253.209-173.622C-253.756-173.342-253.746-173.075-253.179-172.822C-252.999-172.735-252.776-172.688-252.509-172.682C-248.869-172.615-245.259-172.905-241.679-173.552C-236.533-174.485-232.509-176.965-229.609-180.992C-229.289-181.442-229.339-182.042-229.719-182.432L-234.479-187.192C-234.839-187.552-235.379-187.642-235.839-187.442C-239.206-185.948-242.136-186.038-244.629-187.712C-244.899-187.892-245.109-188.162-245.209-188.472C-246.163-191.358-246.029-194.198-244.809-196.992C-244.689-197.272-244.739-197.592-244.939-197.822C-246.346-199.442-248.006-200.742-249.919-201.722C-250.179-201.862-250.509-201.812-250.739-201.612C-256.479-196.518-259.019-189.962-258.359-181.942C-258.313-181.335-258.063-181.015-257.609-180.982ZM-431.679-174.962C-430.906-174.908-430.019-174.928-429.019-175.022C-428.689-175.052-428.459-175.372-428.529-175.692C-429.436-179.525-431.149-182.922-433.669-185.882C-434.149-186.442-435.463-186.878-437.609-187.192C-440.136-187.558-440.896-187.062-439.889-185.702C-439.309-184.915-438.963-184.412-438.849-184.192C-437.723-182.025-436.893-179.525-436.359-176.692C-436.126-175.458-435.393-174.865-434.159-174.912C-432.819-174.965-431.993-174.982-431.679-174.962ZM-306.299-108.002C-315.473-108.855-319.999-114.085-319.879-123.692C-319.753-134.425-316.956-144.375-311.489-153.542C-309.429-156.995-306.739-159.648-303.419-161.502C-301.646-162.495-299.726-162.748-297.659-162.262C-297.339-162.182-297.059-162.002-296.849-161.742C-295.303-159.782-294.483-157.515-294.389-154.942C-294.256-151.175-294.183-147.408-294.169-143.642C-294.169-143.342-293.969-143.082-293.689-143.022C-287.943-141.842-283.019-143.168-278.919-147.002C-273.219-152.342-272.179-157.495-275.799-162.462C-277.833-165.255-280.769-167.382-284.609-168.842C-287.916-170.108-291.583-170.808-295.609-170.942C-308.996-171.382-320.093-167.592-328.899-159.572C-333.659-155.232-337.439-149.808-340.239-143.302C-343.979-134.608-345.483-125.318-344.749-115.432C-344.056-106.098-340.029-99.2483-332.669-94.8816C-327.389-91.7483-321.203-90.3516-314.109-90.6916C-309.363-90.9183-305.469-91.2283-302.429-91.6216C-300.103-91.9216-297.803-92.5716-295.529-93.5716C-292.836-94.7649-290.716-95.9083-289.169-97.0016C-285.183-99.8349-283.079-103.982-282.859-109.442C-282.759-111.848-283.696-113.965-285.669-115.792C-285.879-115.982-286.199-115.972-286.389-115.762C-292.016-109.875-298.653-107.288-306.299-108.002ZM-259.089-169.012C-259.499-169.012-259.849-168.722-259.929-168.322L-274.409-92.9516C-274.459-92.6816-274.249-92.4416-273.979-92.4416L-250.069-92.4416C-249.679-92.4416-249.349-92.7216-249.269-93.1016L-234.619-168.272C-234.559-168.592-234.799-168.882-235.119-168.882L-259.089-169.012ZM-469.579-98.0316C-469.899-96.4049-470.159-94.7683-470.359-93.1216C-470.399-92.8516-470.189-92.6216-469.919-92.6116L-446.009-92.4516C-445.539-92.4516-445.139-92.7816-445.049-93.2516L-430.359-168.432C-430.309-168.692-430.509-168.942-430.779-168.942L-454.999-168.942C-455.519-168.942-455.959-168.572-456.059-168.062C-460.499-144.728-465.006-121.385-469.579-98.0316ZM-372.041-117.188L-389.289-167.722C-389.539-168.452-390.219-168.942-390.989-168.942L-414.029-168.942C-414.329-168.942-414.579-168.732-414.639-168.432L-428.529-93.2916C-428.599-92.8916-428.289-92.5116-427.869-92.5016L-416.819-92.2816C-416.309-92.2716-415.859-92.6216-415.769-93.1216L-406.859-141.452C-406.699-142.318-406.483-142.335-406.209-141.502L-390.429-93.1116C-390.299-92.7116-389.929-92.4416-389.509-92.4416L-363.919-92.4416C-363.609-92.4416-363.349-92.6616-363.299-92.9516L-349.439-167.722C-349.349-168.212-349.719-168.662-350.229-168.682L-361.089-168.972C-361.619-168.992-362.079-168.632-362.169-168.122C-365.826-149.983-368.367-133.261-371.07-117.141C-371.167-116.147-371.574-116.778-372.041-117.188ZM-294.399-73.2416C-294.399-74.9716-295.809-76.3816-297.539-76.3816C-299.269-76.3816-300.679-74.9716-300.679-73.2416C-300.679-71.5116-299.269-70.1016-297.539-70.1016C-295.809-70.1016-294.399-71.5116-294.399-73.2416ZM-256.142-73.9906C-256.089-75.1316-256.969-76.1016-258.112-76.1558L-259.491-76.2209C-260.629-76.2716-261.599-75.3916-261.656-74.2507L-261.737-72.5326C-261.789-71.3916-260.909-70.4216-259.767-70.3674L-258.388-70.3023C-257.249-70.2516-256.279-71.1316-256.223-72.2725L-256.142-73.9906ZM-426.049-55.0016L-425.539-61.6916C-425.509-62.0416-425.729-62.3616-426.049-62.4316C-427.629-62.7849-428.399-62.2049-428.359-60.6916C-428.346-60.1849-428.586-58.6216-429.079-56.0016C-429.139-55.6716-429.299-55.3716-429.549-55.1616C-431.043-53.8483-431.749-54.0516-431.669-55.7716C-431.609-56.9116-431.539-58.0516-431.459-59.1916C-431.279-61.8383-431.869-62.8549-433.229-62.2416C-433.519-62.1116-433.729-61.8416-433.769-61.5216L-434.569-55.9416C-434.619-55.5816-434.759-55.2816-434.959-55.0916C-436.059-54.0849-436.846-54.1216-437.319-55.2016C-437.433-55.4549-437.516-56.1283-437.569-57.2216C-437.623-58.2683-437.949-59.4149-438.549-60.6616C-438.719-61.0316-438.549-61.4716-438.169-61.6216C-435.696-62.5949-434.493-64.1049-434.559-66.1516C-434.579-66.8716-434.843-67.4283-435.349-67.8216C-435.969-68.3083-436.653-68.4416-437.399-68.2216C-438.093-68.0149-438.656-67.4249-439.089-66.4516C-439.576-65.3583-440.026-64.2516-440.439-63.1316C-440.606-62.6849-440.833-62.3183-441.119-62.0316C-442.586-60.5316-442.979-61.0649-442.299-63.6316C-441.873-65.2249-441.689-66.5983-441.749-67.7516C-441.769-68.0516-441.999-68.3016-442.289-68.3216C-443.023-68.3816-443.673-68.1983-444.239-67.7716C-444.469-67.5916-444.629-67.3016-444.669-66.9516C-444.916-64.9516-445.129-62.9516-445.309-60.9516C-445.396-60.0583-445.676-59.3449-446.149-58.8116C-446.683-58.2116-447.299-57.6916-447.999-57.2516C-448.289-57.0716-448.519-56.8316-448.639-56.5616C-449.619-54.4149-449.233-53.1749-447.479-52.8416C-446.433-52.6416-445.476-52.8849-444.609-53.5716C-443.289-54.6116-442.706-55.9849-442.859-57.6916C-443.106-60.3783-442.633-61.0683-441.439-59.7616C-441.099-59.3883-440.886-58.9116-440.799-58.3316C-440.693-57.5716-440.589-56.8083-440.489-56.0416C-440.323-54.7816-439.896-53.8983-439.209-53.3916C-438.029-52.5183-436.646-52.4583-435.059-53.2116C-434.769-53.3416-434.439-53.3616-434.149-53.2516C-432.609-52.6849-430.943-52.7183-429.149-53.3516C-428.639-53.5316-428.059-53.4016-427.679-53.0116C-426.973-52.2916-426.189-52.2516-425.329-52.8916C-424.416-53.5649-423.439-53.6716-422.399-53.2116C-420.606-52.4116-419.239-52.8016-418.299-54.3816C-417.493-55.7349-417.866-57.2349-419.419-58.8816C-420.479-59.9949-420.313-60.5116-418.919-60.4316C-418.669-60.4116-418.359-60.2716-418.059-60.0416C-417.706-59.7683-417.326-59.6416-416.919-59.6616C-416.619-59.6816-416.379-59.9216-416.339-60.2416C-416.093-62.1283-416.859-62.8283-418.639-62.3416C-418.979-62.2483-419.299-62.2283-419.599-62.2816C-420.626-62.4816-421.193-62.5683-421.299-62.5416C-422.606-62.2349-423.306-61.4116-423.399-60.0716C-423.626-56.9516-424.349-55.1383-425.569-54.6316C-425.809-54.5316-426.069-54.7316-426.049-55.0016ZM-349.149-60.8916L-346.919-60.9816C-346.579-61.0016-346.289-61.1816-346.199-61.4516C-345.966-62.1849-346.583-62.4983-348.049-62.3916C-348.689-62.3416-349.219-62.9116-349.159-63.5916L-348.859-67.1816C-348.829-67.5216-348.949-67.8516-349.179-68.0716C-349.646-68.5249-350.159-68.5816-350.719-68.2416C-350.969-68.0816-351.149-67.7916-351.189-67.4516L-351.619-64.0916C-351.679-63.5916-351.959-63.1616-352.359-62.9216C-354.179-61.8616-354.199-61.1549-352.419-60.8016C-352.229-60.7716-352.099-60.5816-352.119-60.3716L-352.609-54.7916C-352.709-53.6183-352.126-52.9183-350.859-52.6916C-349.213-52.3983-348.139-53.0249-347.639-54.5716C-346.906-56.8783-347.483-58.7549-349.369-60.2016C-349.936-60.6349-349.863-60.8649-349.149-60.8916ZM-316.939-66.7516C-316.939-67.6216-317.639-68.3216-318.509-68.3216C-319.379-68.3216-320.079-67.6216-320.079-66.7516C-320.079-65.8816-319.379-65.1816-318.509-65.1816C-317.639-65.1816-316.939-65.8816-316.939-66.7516ZM-287.359-62.7216C-287.233-62.6016-287.153-62.4249-287.119-62.1916C-286.699-59.2049-285.983-56.2983-284.969-53.4716C-284.849-53.1516-284.639-52.8916-284.369-52.7416C-283.409-52.2216-282.616-52.2883-281.989-52.9416C-281.609-53.3416-281.349-54.0649-281.209-55.1116C-280.909-57.2983-280.553-59.4749-280.139-61.6416C-280.079-61.9416-279.899-62.2216-279.639-62.4316C-278.186-63.5983-277.356-65.1049-277.149-66.9516C-277.109-67.2716-277.239-67.5816-277.479-67.7716C-278.473-68.5783-279.413-68.6883-280.299-68.1016C-280.906-67.7016-281.366-66.9283-281.679-65.7816C-282.306-63.4683-282.783-61.1249-283.109-58.7516C-283.169-58.2983-283.333-58.2183-283.599-58.5116C-283.853-58.7783-283.959-59.2349-283.919-59.8816C-283.846-61.1549-284.223-62.9449-285.049-65.2516C-285.549-66.6516-286.196-67.5716-286.989-68.0116C-288.176-68.6783-289.476-68.4949-290.889-67.4616C-291.756-66.8349-291.889-66.3216-291.289-65.9216C-291.069-65.7716-290.739-65.7316-290.379-65.8116C-288.813-66.1649-288.426-65.7249-289.219-64.4916C-289.486-64.0716-289.653-63.6649-289.719-63.2716C-289.966-61.7516-290.249-60.2416-290.569-58.7416C-290.629-58.4516-290.829-58.2016-291.129-58.0616C-292.723-57.3016-293.463-56.0349-293.349-54.2616C-293.329-53.9416-293.169-53.6316-292.919-53.4316C-291.459-52.2583-290.269-52.3383-289.349-53.6716C-288.929-54.2783-288.643-55.2249-288.489-56.5116C-288.263-58.4716-288.049-60.4349-287.849-62.4016C-287.803-62.8683-287.639-62.9749-287.359-62.7216ZM-364.539-66.7016C-364.539-67.5216-365.209-68.1916-366.029-68.1916C-366.849-68.1916-367.519-67.5216-367.519-66.7016C-367.519-65.8816-366.849-65.2116-366.029-65.2116C-365.209-65.2116-364.539-65.8816-364.539-66.7016ZM-328.279-62.7516C-328.219-63.8849-328.066-65.0049-327.819-66.1116C-327.653-66.8383-327.689-67.3816-327.929-67.7416C-328.309-68.3016-328.943-68.4783-329.829-68.2716C-330.119-68.2016-330.329-67.9516-330.369-67.6416L-331.879-55.5016C-331.989-54.5816-331.459-53.6816-330.569-53.3016C-327.676-52.0549-325.393-52.4683-323.719-54.5416C-322.566-55.9683-322.139-57.5616-322.439-59.3216C-322.859-61.8083-324.646-62.8149-327.799-62.3416C-328.059-62.3016-328.289-62.5016-328.279-62.7516ZM-293.709-66.0016C-292.123-67.7749-292.513-68.3049-294.879-67.5916C-295.133-67.5183-295.449-67.5116-295.829-67.5716L-300.209-68.2716C-301.589-68.4916-302.379-67.8616-302.579-66.3816C-302.839-64.5083-301.439-63.5083-298.379-63.3816C-297.959-63.3616-297.629-63.0116-297.619-62.5916C-297.579-60.0516-298.056-57.6749-299.049-55.4616C-299.399-54.6916-300.409-54.5016-301.009-55.0916C-301.776-55.8383-301.736-56.4949-300.889-57.0616C-300.683-57.1949-300.266-57.3183-299.639-57.4316C-298.846-57.5649-298.546-57.9783-298.739-58.6716C-298.819-58.9516-299.109-59.1416-299.429-59.1316C-301.469-59.0849-302.656-58.2516-302.989-56.6316C-303.283-55.2316-302.916-54.1116-301.889-53.2716C-300.783-52.3649-299.353-52.3716-297.599-53.2916C-296.566-53.8316-295.949-54.6749-295.749-55.8216L-294.129-65.1416C-294.079-65.4516-293.929-65.7516-293.709-66.0016ZM-265.859-64.9816C-266.126-64.9549-266.363-64.8583-266.569-64.6916C-266.923-66.9649-268.039-68.1783-269.919-68.3316C-271.193-68.4316-272.536-68.0249-273.949-67.1116C-277.369-64.9049-278.679-61.5283-277.879-56.9816C-277.473-54.6549-276.106-53.2849-273.779-52.8716C-271.519-52.4716-269.299-53.0683-267.119-54.6616C-266.869-54.8416-266.539-54.8216-266.299-54.6316C-264.219-52.8983-262.423-52.4116-260.909-53.1716C-259.829-53.7116-259.053-55.0083-258.579-57.0616C-258.079-59.2483-257.729-61.4983-257.529-63.8116C-257.459-64.6216-257.139-65.3916-256.609-66.0116C-255.916-66.8249-255.743-67.3816-256.089-67.6816C-256.249-67.8316-256.619-67.8316-257.009-67.6816C-258.016-67.3283-259.023-67.3649-260.029-67.7916C-263.469-69.2449-265.413-68.3083-265.859-64.9816ZM-365.809-55.2516L-365.429-61.7016C-365.409-62.0216-365.569-62.3116-365.819-62.3916C-366.466-62.6049-367.033-62.4949-367.519-62.0616C-367.719-61.8816-367.859-61.5716-367.919-61.2016L-368.829-55.2616C-368.879-54.9216-369.079-54.6416-369.349-54.5116C-370.276-54.0516-370.783-54.3416-370.869-55.3816C-370.896-55.7283-370.826-56.2583-370.659-56.9716C-369.506-61.9316-371.336-63.4816-376.149-61.6216C-376.429-61.5116-376.759-61.5516-377.039-61.7116C-378.326-62.4249-379.689-62.5583-381.129-62.1116C-381.439-62.0116-381.769-62.0316-382.049-62.1616C-383.636-62.8683-384.439-62.4916-384.459-61.0316C-384.473-59.6316-384.486-58.9049-384.499-58.8516C-384.846-57.1916-385.799-55.9716-387.359-55.1916C-390.226-53.7583-391.876-54.2249-392.309-56.5916C-392.489-57.5916-392.396-58.5183-392.029-59.3716C-391.429-60.7849-390.376-61.1183-388.869-60.3716C-388.579-60.2316-388.429-59.9216-388.489-59.6316C-388.669-58.8049-389.173-58.1849-389.999-57.7716C-391.373-57.0916-391.476-56.6649-390.309-56.4916C-390.016-56.4449-389.719-56.4583-389.419-56.5316C-387.219-57.0449-386.203-58.4149-386.369-60.6416C-386.399-60.9616-386.559-61.2516-386.819-61.4516C-388.466-62.6849-390.249-62.7816-392.169-61.7416C-394.349-60.5616-395.203-58.7216-394.729-56.2216C-394.276-53.8616-392.819-52.6816-390.359-52.6816C-388.419-52.6816-386.799-53.3049-385.499-54.5516C-384.939-55.0983-384.726-54.9849-384.859-54.2116C-385.139-52.5583-384.639-52.0016-383.359-52.5416C-383.089-52.6516-382.889-52.9216-382.809-53.2516C-382.369-55.1716-381.993-57.1016-381.679-59.0416C-381.566-59.7216-381.326-60.1983-380.959-60.4716C-380.353-60.9183-379.719-60.9083-379.059-60.4416C-378.809-60.2716-378.669-59.9516-378.699-59.6216L-379.289-53.4316C-379.319-53.1316-379.149-52.8516-378.889-52.7616C-377.389-52.2483-376.639-52.8283-376.639-54.5016C-376.646-56.0416-376.449-57.5483-376.049-59.0216C-375.869-59.6949-375.566-60.1816-375.139-60.4816C-374.379-61.0083-373.709-60.8816-373.129-60.1016C-372.979-59.9016-372.909-59.5816-372.949-59.2016L-373.369-54.8816C-373.549-53.0216-372.689-52.3216-370.789-52.7816C-369.116-53.1816-367.616-53.1916-366.289-52.8116C-366.009-52.7316-365.359-52.3016-364.339-51.5216C-363.666-51.0083-362.866-50.7516-361.939-50.7516C-360.953-50.7586-360.859-51.0483-361.659-51.6216C-362.973-52.5616-363.309-53.7716-362.669-55.2516C-361.623-57.6649-360.603-58.8116-359.609-58.6916C-357.163-58.4049-356.216-57.2516-356.769-55.2316C-356.859-54.9016-357.069-54.6316-357.339-54.5016C-358.226-54.0749-358.899-54.4716-359.359-55.6916C-359.573-56.2583-359.903-56.4783-360.349-56.3516C-360.629-56.2716-360.819-55.9816-360.839-55.6316C-360.939-53.4649-360.059-52.4383-358.199-52.5516C-357.026-52.6249-355.996-53.0316-355.109-53.7716C-353.756-54.8983-353.613-56.2849-354.679-57.9316C-354.973-58.3849-355.479-58.8249-356.199-59.2516C-356.793-59.6116-357.359-60.0049-357.899-60.4316C-358.119-60.6116-358.199-60.9316-358.079-61.2116C-357.646-62.2383-357.849-62.9649-358.689-63.3916C-359.263-63.6849-359.879-63.6949-360.539-63.4216C-361.813-62.8816-362.153-61.8716-361.559-60.3916C-361.439-60.0916-361.489-59.7616-361.679-59.5416L-365.459-55.1216C-365.713-54.8216-365.829-54.8649-365.809-55.2516ZM-318.299-55.0016L-317.759-61.6316C-317.739-61.9516-317.879-62.2416-318.129-62.3516C-319.683-63.0183-320.549-62.3783-320.729-60.4316C-320.876-58.7583-321.046-57.0883-321.239-55.4216C-321.333-54.6283-321.219-54.0116-320.899-53.5716C-320.453-52.9516-319.846-52.6149-319.079-52.5616C-319.066-52.5616-318.413-52.7249-317.119-53.0516C-316.246-53.2716-315.096-53.1883-313.669-52.8016C-312.396-52.4616-311.469-52.8849-310.889-54.0716C-310.096-55.7049-310.316-57.1816-311.549-58.5016C-313.123-60.1949-312.726-60.7583-310.359-60.1916C-308.533-59.7583-308.033-60.2849-308.859-61.7716C-309.009-62.0516-309.299-62.2316-309.609-62.2416L-314.669-62.2916C-314.959-62.2916-315.229-62.0816-315.309-61.7716C-315.603-60.6649-315.869-58.9716-316.109-56.6916C-316.216-55.6783-316.786-54.9949-317.819-54.6416C-318.069-54.5516-318.319-54.7416-318.299-55.0016ZM-412.579-55.2616C-412.666-56.9749-412.563-58.6816-412.269-60.3816C-412.143-61.1016-412.173-61.6316-412.359-61.9716C-412.699-62.5983-413.316-62.7549-414.209-62.4416C-414.489-62.3416-414.699-62.0816-414.749-61.7516C-414.943-60.4716-415.129-59.1916-415.309-57.9116C-415.536-56.2783-415.526-55.0916-415.279-54.3516C-414.719-52.6783-413.309-52.2716-411.049-53.1316C-409.956-53.5449-409.006-53.5149-408.199-53.0416C-407.869-52.8516-407.549-52.7616-407.289-52.7916C-406.776-52.8583-405.986-53.0116-404.919-53.2516C-403.053-53.6783-402.529-53.1916-403.349-51.7916C-403.676-51.2383-403.866-50.7549-403.919-50.3416C-404.273-47.3816-403.203-46.2449-400.709-46.9316C-399.589-47.2383-398.796-47.9016-398.329-48.9216C-397.863-49.9349-397.619-51.0249-397.599-52.1916C-397.599-52.5616-397.449-52.8816-397.209-52.9816C-396.796-53.1683-396.426-52.9183-396.099-52.2316C-395.246-50.4116-394.689-50.2316-394.429-51.6916C-394.369-52.0216-394.439-52.3516-394.619-52.6216C-395.139-53.4016-395.803-54.0316-396.609-54.5116C-396.879-54.6716-397.039-54.9616-396.999-55.2416L-396.249-61.6316C-396.209-61.9516-396.369-62.2416-396.619-62.3416C-397.439-62.6749-398.093-62.5849-398.579-62.0716C-398.899-61.7383-399.099-61.1016-399.179-60.1616C-399.306-58.6216-399.553-57.1049-399.919-55.6116C-400.009-55.2616-400.189-54.9716-400.429-54.8016C-401.103-54.3083-401.703-54.3283-402.229-54.8616C-402.439-55.0716-402.539-55.4016-402.499-55.7516L-401.919-61.4416C-401.889-61.7616-402.029-62.0616-402.279-62.1916C-403.699-62.9849-404.476-62.5683-404.609-60.9416C-404.816-58.4016-404.979-56.6683-405.099-55.7416C-405.149-55.4116-405.299-55.1216-405.539-54.9216C-406.299-54.3016-406.836-54.3216-407.149-54.9816C-407.309-55.3216-407.326-55.7983-407.199-56.4116C-406.839-58.2183-406.663-60.0416-406.669-61.8816C-406.669-62.1816-406.879-62.4416-407.169-62.4816C-408.449-62.6749-409.159-62.1416-409.299-60.8816C-409.553-58.5616-409.769-56.8916-409.949-55.8716C-410.009-55.5416-410.199-55.2616-410.469-55.1216C-410.963-54.8616-411.486-54.7283-412.039-54.7216C-412.329-54.7216-412.559-54.9616-412.579-55.2616ZM-342.179-54.5716C-343.786-55.9849-343.993-57.6716-342.799-59.6316C-342.066-60.8316-341.159-61.0949-340.079-60.4216C-339.809-60.2516-339.679-59.9416-339.759-59.6416C-340.006-58.7216-340.613-58.0783-341.579-57.7116C-342.346-57.4183-342.609-57.0583-342.369-56.6316C-342.229-56.3916-341.909-56.2516-341.549-56.2816C-339.443-56.4749-338.119-57.3849-337.579-59.0116C-336.893-61.1049-337.646-62.2483-339.839-62.4416C-341.519-62.5883-342.943-62.2283-344.109-61.3616C-345.289-60.4949-345.959-59.3349-346.119-57.8816C-346.246-56.7283-345.983-55.6649-345.329-54.6916C-344.769-53.8449-343.929-53.2849-342.809-53.0116C-339.663-52.2249-337.189-53.3749-335.389-56.4616C-334.976-57.1683-334.959-57.6616-335.339-57.9416C-335.549-58.0916-335.869-57.9716-336.039-57.6816C-337.206-55.6483-338.956-54.5183-341.289-54.2916C-341.619-54.2616-341.939-54.3616-342.179-54.5716Z" fill="#ffd200" fill-rule="nonzero" opacity="1" stroke="none"/>
<path d="M-544.659-490.61C-542.652-487.344-542.629-484.084-544.589-480.83C-545.655-479.057-547.779-477.177-550.959-475.19C-554.525-472.964-558.102-470.747-561.689-468.54C-567.815-464.774-570.299-459.014-569.139-451.26C-568.939-449.914-569.335-449.704-570.329-450.63C-572.869-453.004-574.639-455.874-575.639-459.24C-576.465-462.04-576.505-464.727-575.759-467.3C-575.125-469.474-573.729-471.624-571.569-473.75C-569.602-475.69-567.409-477.347-564.989-478.72C-562.582-480.094-561.075-481.107-560.469-481.76C-559.182-483.127-558.272-484.764-557.739-486.67C-557.212-488.55-558.129-489.717-560.489-490.17L-565.439-491.13C-565.772-491.19-565.812-491.334-565.559-491.56C-563.619-493.247-561.459-494.574-559.079-495.54C-556.032-496.78-553.199-496.877-550.579-495.83C-548.179-494.87-546.205-493.13-544.659-490.61Z" fill="#fc3500" fill-rule="nonzero" opacity="1" stroke="none"/>
<path d="M-552.679-457.67C-550.259-453.33-548.435-448.714-547.209-443.82C-547.069-443.26-547.499-442.73-548.069-442.74C-550.502-442.787-553.065-443.157-555.759-443.85C-561.925-445.444-565.835-449.134-567.489-454.92C-567.909-456.407-567.692-458.124-566.839-460.07C-565.252-463.65-562.739-466.384-559.299-468.27C-555.699-470.244-552.089-472.2-548.469-474.14C-544.995-476-542.665-479.174-541.479-483.66C-541.005-485.427-540.362-485.494-539.549-483.86C-538.895-482.54-538.642-480.924-538.789-479.01C-538.849-478.28-538.509-477.58-537.899-477.17C-535.152-475.33-533.452-472.867-532.799-469.78C-532.505-468.387-532.605-467.3-533.099-466.52C-533.692-465.567-534.752-464.94-536.279-464.64C-537.459-464.407-537.525-463.994-536.479-463.4C-534.172-462.1-532.779-460.254-532.299-457.86C-532.125-456.974-532.439-456.744-533.239-457.17C-539.465-460.477-545.872-460.85-552.459-458.29C-552.709-458.2-552.809-457.9-552.679-457.67ZM-536.549-472.24C-536.549-472.94-537.109-473.5-537.809-473.5C-538.509-473.5-539.069-472.94-539.069-472.24C-539.069-471.54-538.509-470.98-537.809-470.98C-537.109-470.98-536.549-471.54-536.549-472.24Z" fill="#fc3500" fill-rule="nonzero" opacity="1" stroke="none"/>
<path d="M-351.038-468.197C-350.548-468.847-350.798-469.787-351.548-470.117C-353.815-471.104-355.655-472.611-357.068-474.637C-357.378-475.077-357.188-475.687-356.688-475.877C-352.282-477.537-348.115-477.077-344.188-474.497C-341.868-472.977-339.975-471.337-338.508-469.577C-336.722-467.437-335.442-465.327-334.668-463.247C-333.602-460.394-333.608-457.254-334.688-453.827C-334.778-453.557-335.088-453.447-335.328-453.587C-338.255-455.341-340.202-457.381-341.168-459.707C-341.428-460.337-342.188-460.577-342.758-460.227C-345.125-458.794-347.615-458.321-350.228-458.807C-352.168-459.167-353.088-460.381-352.988-462.447C-352.882-464.701-352.232-466.617-351.038-468.197Z" fill="#f5060b" fill-rule="nonzero" opacity="1" stroke="none"/>
<path d="M-365.288-451.437C-363.995-454.957-362.095-458.084-359.588-460.817C-359.388-461.047-359.428-461.387-359.668-461.437C-360.022-461.517-360.445-461.331-360.938-460.877C-363.818-458.204-365.422-455.237-365.748-451.977C-366.202-452.011-366.452-452.331-366.498-452.937C-367.158-460.957-364.618-467.514-358.878-472.607C-358.648-472.807-358.318-472.857-358.058-472.717C-356.145-471.737-354.485-470.437-353.078-468.817C-352.878-468.587-352.828-468.267-352.948-467.987C-354.168-465.194-354.302-462.354-353.348-459.467C-353.248-459.157-353.038-458.887-352.768-458.707C-350.275-457.034-347.345-456.944-343.978-458.437C-343.518-458.637-342.978-458.547-342.618-458.187L-337.858-453.427C-337.478-453.037-337.428-452.437-337.748-451.987C-340.648-447.961-344.672-445.481-349.818-444.547C-353.398-443.901-357.008-443.611-360.648-443.677C-360.915-443.684-361.138-443.731-361.318-443.817C-361.885-444.071-361.895-444.337-361.348-444.617C-361.202-444.697-360.998-444.761-360.738-444.807C-356.352-445.554-352.748-447.651-349.928-451.097C-348.948-452.297-349.122-452.547-350.448-451.847C-350.635-451.747-350.812-451.611-350.978-451.437C-353.832-448.444-357.338-446.711-361.498-446.237C-361.818-446.204-362.125-446.094-362.418-445.907C-363.912-444.981-364.298-445.541-363.578-447.587C-362.872-449.594-361.448-451.981-359.308-454.747C-358.868-455.327-358.932-455.644-359.498-455.697C-359.788-455.727-360.108-455.607-360.378-455.367C-362.418-453.561-363.848-451.351-364.668-448.737C-364.775-448.397-364.885-448.391-364.998-448.717C-365.298-449.577-365.395-450.484-365.288-451.437Z" fill="#f5060b" fill-rule="nonzero" opacity="1" stroke="none"/>
<path d="M-542.789-444.89C-544.022-444.844-544.755-445.437-544.989-446.67C-545.522-449.504-546.352-452.004-547.479-454.17C-547.592-454.39-547.939-454.894-548.519-455.68C-549.525-457.04-548.765-457.537-546.239-457.17C-544.092-456.857-542.779-456.42-542.299-455.86C-539.779-452.9-538.065-449.504-537.159-445.67C-537.089-445.35-537.319-445.03-537.649-445C-538.649-444.907-539.535-444.887-540.309-444.94C-540.622-444.96-541.449-444.944-542.789-444.89Z" fill="#fc3500" fill-rule="nonzero" opacity="1" stroke="none"/>
<path d="M-185.012 226.494C-177.365 227.208-170.729 224.621-165.102 218.734C-164.912 218.524-164.592 218.514-164.382 218.704C-162.409 220.531-161.472 222.648-161.572 225.054C-161.792 230.514-163.895 234.661-167.882 237.494C-169.429 238.588-171.549 239.731-174.242 240.924C-176.515 241.924-178.815 242.574-181.142 242.874C-184.182 243.268-188.075 243.578-192.822 243.804C-199.915 244.144-206.102 242.748-211.382 239.614C-218.742 235.248-222.769 228.398-223.462 219.064C-224.195 209.178-222.692 199.888-218.952 191.194C-216.152 184.688-212.372 179.264-207.612 174.924C-198.805 166.904-187.709 163.114-174.322 163.554C-170.295 163.688-166.629 164.388-163.322 165.654C-159.482 167.114-156.545 169.241-154.512 172.034C-150.892 177.001-151.932 182.154-157.632 187.494C-161.732 191.328-166.655 192.654-172.402 191.474C-172.682 191.414-172.882 191.154-172.882 190.854C-172.895 187.088-172.969 183.321-173.102 179.554C-173.195 176.981-174.015 174.714-175.562 172.754C-175.772 172.494-176.052 172.314-176.372 172.234C-178.439 171.748-180.359 172.001-182.132 172.994C-185.452 174.848-188.142 177.501-190.202 180.954C-195.669 190.121-198.465 200.071-198.592 210.804C-198.712 220.411-194.185 225.641-185.012 226.494Z" fill="#fe1c00" fill-rule="nonzero" opacity="1" stroke="none"/>
<path d="M-137.802 165.484L-113.832 165.614C-113.512 165.614-113.272 165.904-113.332 166.224L-127.982 241.394C-128.062 241.774-128.392 242.054-128.782 242.054L-152.692 242.054C-152.962 242.054-153.172 241.814-153.122 241.544L-138.642 166.174C-138.562 165.774-138.212 165.484-137.802 165.484Z" fill="#fe1c00" fill-rule="nonzero" opacity="1" stroke="none"/>
<path d="M-348.292 236.464C-343.719 213.111-339.212 189.768-334.772 166.434C-334.672 165.924-334.232 165.554-333.712 165.554L-309.492 165.554C-309.222 165.554-309.022 165.804-309.072 166.064L-323.762 241.244C-323.852 241.714-324.252 242.044-324.722 242.044L-348.632 241.884C-348.902 241.874-349.112 241.644-349.072 241.374C-348.872 239.728-348.612 238.091-348.292 236.464Z" fill="#fe1c00" fill-rule="nonzero" opacity="1" stroke="none"/>
<path d="M-249.886 217.063C-247.624 200.057-243.646 181.313-240.882 166.374C-240.792 165.864-240.332 165.504-239.802 165.524L-228.942 165.814C-228.432 165.834-228.062 166.284-228.152 166.774L-242.012 241.544C-242.062 241.834-242.322 242.054-242.632 242.054L-268.222 242.054C-268.642 242.054-269.012 241.784-269.142 241.384L-284.922 192.994C-285.195 192.161-285.412 192.178-285.572 193.044L-294.482 241.374C-294.572 241.874-295.022 242.224-295.532 242.214L-306.582 241.994C-307.002 241.984-307.312 241.604-307.242 241.204L-293.352 166.064C-293.292 165.764-293.042 165.554-292.742 165.554L-269.702 165.554C-268.932 165.554-268.252 166.044-268.002 166.774L-250.672 217.284C-250.494 217.677-249.998 217.65-249.886 217.063Z" fill="#fe1c00" fill-rule="nonzero" opacity="1" stroke="none"/>
<path d="M-179.392 261.254C-179.392 259.52-177.986 258.114-176.252 258.114C-174.518 258.114-173.112 259.52-173.112 261.254C-173.112 262.989-174.518 264.394-176.252 264.394C-177.986 264.394-179.392 262.989-179.392 261.254Z" fill="#0d0c05" fill-rule="nonzero" opacity="1" stroke="none"/>
<path d="M-138.203 258.275L-136.825 258.34C-135.683 258.394-134.801 259.363-134.854 260.505L-134.935 262.224C-134.989 263.365-135.959 264.248-137.101 264.194L-138.479 264.129C-139.621 264.075-140.503 263.105-140.449 261.963L-140.368 260.245C-140.314 259.103-139.345 258.221-138.203 258.275Z" fill="#0d0c05" fill-rule="nonzero" opacity="1" stroke="none"/>
<path d="M-304.282 279.864C-303.062 279.358-302.339 277.544-302.112 274.424C-302.019 273.084-301.319 272.261-300.012 271.954C-299.905 271.928-299.339 272.014-298.312 272.214C-298.012 272.268-297.692 272.248-297.352 272.154C-295.572 271.668-294.805 272.368-295.052 274.254C-295.092 274.574-295.332 274.814-295.632 274.834C-296.039 274.854-296.419 274.728-296.772 274.454C-297.072 274.224-297.382 274.084-297.632 274.064C-299.025 273.984-299.192 274.501-298.132 275.614C-296.579 277.261-296.205 278.761-297.012 280.114C-297.952 281.694-299.319 282.084-301.112 281.284C-302.152 280.824-303.129 280.931-304.042 281.604C-304.902 282.244-305.685 282.204-306.392 281.484C-306.772 281.094-307.352 280.964-307.862 281.144C-309.655 281.778-311.322 281.811-312.862 281.244C-313.152 281.134-313.482 281.154-313.772 281.284C-315.359 282.038-316.742 281.978-317.922 281.104C-318.609 280.598-319.035 279.714-319.202 278.454C-319.302 277.688-319.405 276.924-319.512 276.164C-319.599 275.584-319.812 275.108-320.152 274.734C-321.345 273.428-321.819 274.118-321.572 276.804C-321.419 278.511-322.002 279.884-323.322 280.924C-324.189 281.611-325.145 281.854-326.192 281.654C-327.945 281.321-328.332 280.081-327.352 277.934C-327.232 277.664-327.002 277.424-326.712 277.244C-326.012 276.804-325.395 276.284-324.862 275.684C-324.389 275.151-324.109 274.438-324.022 273.544C-323.842 271.544-323.629 269.544-323.382 267.544C-323.342 267.194-323.182 266.904-322.952 266.724C-322.385 266.298-321.735 266.114-321.002 266.174C-320.712 266.194-320.482 266.444-320.462 266.744C-320.402 267.898-320.585 269.271-321.012 270.864C-321.692 273.431-321.299 273.964-319.832 272.464C-319.545 272.178-319.319 271.811-319.152 271.364C-318.739 270.244-318.289 269.138-317.802 268.044C-317.369 267.071-316.805 266.481-316.112 266.274C-315.365 266.054-314.682 266.188-314.062 266.674C-313.555 267.068-313.292 267.624-313.272 268.344C-313.205 270.391-314.409 271.901-316.882 272.874C-317.262 273.024-317.432 273.464-317.262 273.834C-316.662 275.081-316.335 276.228-316.282 277.274C-316.229 278.368-316.145 279.041-316.032 279.294C-315.559 280.374-314.772 280.411-313.672 279.404C-313.472 279.214-313.332 278.914-313.282 278.554L-312.482 272.974C-312.442 272.654-312.232 272.384-311.942 272.254C-310.582 271.641-309.992 272.658-310.172 275.304C-310.252 276.444-310.322 277.584-310.382 278.724C-310.462 280.444-309.755 280.648-308.262 279.334C-308.012 279.124-307.852 278.824-307.792 278.494C-307.299 275.874-307.059 274.311-307.072 273.804C-307.112 272.291-306.342 271.711-304.762 272.064C-304.442 272.134-304.222 272.454-304.252 272.804L-304.762 279.494C-304.782 279.764-304.522 279.964-304.282 279.864ZM-315.632 268.744C-316.299 269.198-316.469 269.678-316.142 270.184C-315.982 270.434-315.652 270.544-315.332 270.434C-314.405 270.121-314.249 269.508-314.862 268.594C-315.012 268.364-315.252 268.244-315.422 268.324C-315.555 268.391-315.625 268.531-315.632 268.744ZM-298.945 279.868C-298.402 279.924-297.902 279.334-297.826 278.558C-297.752 277.784-298.132 277.114-298.679 277.061C-299.222 277.004-299.722 277.594-299.797 278.371C-299.872 279.144-299.492 279.814-298.945 279.868ZM-325.922 279.986C-325.592 280.134-325.082 279.714-324.797 279.059C-324.512 278.404-324.552 277.744-324.881 277.603C-325.212 277.454-325.722 277.874-326.007 278.53C-326.292 279.184-326.252 279.844-325.922 279.986Z" fill="#0d0c05" fill-rule="nonzero" opacity="1" stroke="none"/>
<path d="M-227.862 273.604C-228.575 273.631-228.649 273.861-228.082 274.294C-226.195 275.741-225.619 277.618-226.352 279.924C-226.852 281.471-227.925 282.098-229.572 281.804C-230.839 281.578-231.422 280.878-231.322 279.704L-230.832 274.124C-230.812 273.914-230.942 273.724-231.132 273.694C-232.912 273.341-232.892 272.634-231.072 271.574C-230.672 271.334-230.392 270.904-230.332 270.404L-229.902 267.044C-229.862 266.704-229.682 266.414-229.432 266.254C-228.872 265.914-228.359 265.971-227.892 266.424C-227.662 266.644-227.542 266.974-227.572 267.314L-227.872 270.904C-227.932 271.584-227.402 272.154-226.762 272.104C-225.295 271.998-224.679 272.311-224.912 273.044C-225.002 273.314-225.292 273.494-225.632 273.514L-227.862 273.604ZM-228.862 279.844C-228.909 280.578-228.669 280.668-228.142 280.114C-226.949 278.854-226.959 277.688-228.172 276.614C-228.492 276.341-228.662 276.404-228.682 276.804L-228.862 279.844Z" fill="#0d0c05" fill-rule="nonzero" opacity="1" stroke="none"/>
<path d="M-198.792 267.744C-198.792 266.877-198.089 266.174-197.222 266.174C-196.355 266.174-195.652 266.877-195.652 267.744C-195.652 268.612-196.355 269.314-197.222 269.314C-198.089 269.314-198.792 268.612-198.792 267.744Z" fill="#211a07" fill-rule="nonzero" opacity="1" stroke="none"/>
<path d="M-166.562 272.094C-166.762 274.061-166.975 276.024-167.202 277.984C-167.355 279.271-167.642 280.218-168.062 280.824C-168.982 282.158-170.172 282.238-171.632 281.064C-171.882 280.864-172.042 280.554-172.062 280.234C-172.175 278.461-171.435 277.194-169.842 276.434C-169.542 276.294-169.342 276.044-169.282 275.754C-168.962 274.254-168.679 272.744-168.432 271.224C-168.365 270.831-168.199 270.424-167.932 270.004C-167.139 268.771-167.525 268.331-169.092 268.684C-169.452 268.764-169.782 268.724-170.002 268.574C-170.602 268.174-170.469 267.661-169.602 267.034C-168.189 266.001-166.889 265.818-165.702 266.484C-164.909 266.924-164.262 267.844-163.762 269.244C-162.935 271.551-162.559 273.341-162.632 274.614C-162.672 275.261-162.565 275.718-162.312 275.984C-162.045 276.278-161.882 276.198-161.822 275.744C-161.495 273.371-161.019 271.028-160.392 268.714C-160.079 267.568-159.619 266.794-159.012 266.394C-158.125 265.808-157.185 265.918-156.192 266.724C-155.952 266.914-155.822 267.224-155.862 267.544C-156.069 269.391-156.899 270.898-158.352 272.064C-158.612 272.274-158.792 272.554-158.852 272.854C-159.265 275.021-159.622 277.198-159.922 279.384C-160.062 280.431-160.322 281.154-160.702 281.554C-161.329 282.208-162.122 282.274-163.082 281.754C-163.352 281.604-163.562 281.344-163.682 281.024C-164.695 278.198-165.412 275.291-165.832 272.304C-165.865 272.071-165.945 271.894-166.072 271.774C-166.352 271.521-166.515 271.628-166.562 272.094ZM-170.276 279.955C-169.932 280.084-169.522 279.824-169.361 279.391C-169.202 278.954-169.362 278.504-169.707 278.374C-170.052 278.244-170.462 278.504-170.622 278.937C-170.782 279.374-170.622 279.824-170.276 279.955Z" fill="#211a07" fill-rule="nonzero" opacity="1" stroke="none"/>
<path d="M-246.232 267.794C-246.232 266.972-245.565 266.304-244.742 266.304C-243.919 266.304-243.252 266.972-243.252 267.794C-243.252 268.617-243.919 269.284-244.742 269.284C-245.565 269.284-246.232 268.617-246.232 267.794Z" fill="#0d0c05" fill-rule="nonzero" opacity="1" stroke="none"/>
<path d="M-206.512 272.154C-203.359 271.681-201.572 272.688-201.152 275.174C-200.852 276.934-201.279 278.528-202.432 279.954C-204.105 282.028-206.389 282.441-209.282 281.194C-210.172 280.814-210.702 279.914-210.592 278.994L-209.082 266.854C-209.042 266.544-208.832 266.294-208.542 266.224C-207.655 266.018-207.022 266.194-206.642 266.754C-206.402 267.114-206.365 267.658-206.532 268.384C-206.779 269.491-206.932 270.611-206.992 271.744C-207.002 271.994-206.772 272.194-206.512 272.154ZM-206.711 280.023C-205.722 280.294-204.542 279.124-204.077 277.422C-203.612 275.714-204.042 274.114-205.033 273.846C-206.022 273.574-207.202 274.744-207.667 276.447C-208.132 278.154-207.702 279.754-206.711 280.023Z" fill="#211a07" fill-rule="nonzero" opacity="1" stroke="none"/>
<path d="M-172.842 269.354L-174.462 278.674C-174.662 279.821-175.279 280.664-176.312 281.204C-178.065 282.124-179.495 282.131-180.602 281.224C-181.629 280.384-181.995 279.264-181.702 277.864C-181.369 276.244-180.182 275.411-178.142 275.364C-177.822 275.354-177.532 275.544-177.452 275.824C-177.259 276.518-177.559 276.931-178.352 277.064C-178.979 277.178-179.395 277.301-179.602 277.434C-180.449 278.001-180.489 278.658-179.722 279.404C-179.122 279.994-178.112 279.804-177.762 279.034C-176.769 276.821-176.292 274.444-176.332 271.904C-176.342 271.484-176.672 271.134-177.092 271.114C-180.152 270.988-181.552 269.988-181.292 268.114C-181.092 266.634-180.302 266.004-178.922 266.224L-174.542 266.924C-174.162 266.984-173.845 266.978-173.592 266.904C-171.225 266.191-170.835 266.721-172.422 268.494C-172.642 268.744-172.792 269.044-172.842 269.354ZM-177.972 268.504C-178.845 268.098-179.319 268.221-179.392 268.874C-179.422 269.154-179.222 269.414-178.902 269.504C-177.569 269.844-177.012 269.741-177.232 269.194C-177.345 268.908-177.592 268.678-177.972 268.504Z" fill="#211a07" fill-rule="nonzero" opacity="1" stroke="none"/>
<path d="M-145.282 269.804C-145.569 273.271-147.282 274.348-150.422 273.034C-151.502 272.588-151.545 271.774-150.552 270.594C-150.272 270.264-149.742 270.354-149.592 270.764C-148.985 272.384-148.299 272.718-147.532 271.764C-147.179 271.318-146.982 270.801-146.942 270.214C-146.862 268.974-147.419 268.264-148.612 268.084C-150.072 267.864-151.215 268.368-152.042 269.594C-153.915 272.401-154.362 275.248-153.382 278.134C-152.882 279.594-151.869 280.234-150.342 280.054C-148.829 279.881-147.535 279.328-146.462 278.394C-144.895 277.041-144.095 276.354-144.062 276.334C-142.835 275.688-141.445 275.434-139.892 275.574C-139.572 275.604-139.302 275.334-139.292 274.994L-139.172 271.564C-139.152 271.074-139.562 270.684-140.022 270.754C-142.049 271.074-143.565 270.661-144.572 269.514C-144.125 266.188-142.182 265.251-138.742 266.704C-137.735 267.131-136.729 267.168-135.722 266.814C-135.332 266.664-134.962 266.664-134.802 266.814C-134.455 267.114-134.629 267.671-135.322 268.484C-135.852 269.104-136.172 269.874-136.242 270.684C-136.442 272.998-136.792 275.248-137.292 277.434C-137.765 279.488-138.542 280.784-139.622 281.324C-141.135 282.084-142.932 281.598-145.012 279.864C-145.252 279.674-145.582 279.654-145.832 279.834C-148.012 281.428-150.232 282.024-152.492 281.624C-154.819 281.211-156.185 279.841-156.592 277.514C-157.392 272.968-156.082 269.591-152.662 267.384C-151.249 266.471-149.905 266.064-148.632 266.164C-146.752 266.318-145.635 267.531-145.282 269.804ZM-140.042 268.894C-140.842 268.334-141.549 268.208-142.162 268.514C-142.452 268.664-142.542 269.024-142.342 269.234C-141.962 269.641-141.219 269.674-140.112 269.334C-139.785 269.234-139.762 269.088-140.042 268.894ZM-141.002 276.974C-143.109 276.934-143.699 277.714-142.772 279.314C-142.622 279.594-142.332 279.764-142.012 279.774C-140.432 279.788-139.875 279.021-140.342 277.474C-140.432 277.184-140.702 276.984-141.002 276.974Z" fill="#0d0c05" fill-rule="nonzero" opacity="1" stroke="none"/>
<path d="M-145.282 269.804C-145.075 269.638-144.839 269.541-144.572 269.514C-143.565 270.661-142.049 271.074-140.022 270.754C-139.562 270.684-139.152 271.074-139.172 271.564L-139.292 274.994C-139.302 275.334-139.572 275.604-139.892 275.574C-141.445 275.434-142.835 275.688-144.062 276.334C-144.095 276.354-144.895 277.041-146.462 278.394C-147.535 279.328-148.829 279.881-150.342 280.054C-151.869 280.234-152.882 279.594-153.382 278.134C-154.362 275.248-153.915 272.401-152.042 269.594C-151.215 268.368-150.072 267.864-148.612 268.084C-147.419 268.264-146.862 268.974-146.942 270.214C-146.982 270.801-147.179 271.318-147.532 271.764C-148.299 272.718-148.985 272.384-149.592 270.764C-149.742 270.354-150.272 270.264-150.552 270.594C-151.545 271.774-151.502 272.588-150.422 273.034C-147.282 274.348-145.569 273.271-145.282 269.804Z" fill="#ffd200" fill-rule="nonzero" opacity="1" stroke="none"/>
<path d="M-315.632 268.744C-315.625 268.531-315.555 268.391-315.422 268.324C-315.252 268.244-315.012 268.364-314.862 268.594C-314.249 269.508-314.405 270.121-315.332 270.434C-315.652 270.544-315.982 270.434-316.142 270.184C-316.469 269.678-316.299 269.198-315.632 268.744Z" fill="#ffd200" fill-rule="nonzero" opacity="1" stroke="none"/>
<path d="M-177.232 269.194C-177.012 269.741-177.569 269.844-178.902 269.504C-179.222 269.414-179.422 269.154-179.392 268.874C-179.319 268.221-178.845 268.098-177.972 268.504C-177.592 268.678-177.345 268.908-177.232 269.194Z" fill="#ffd200" fill-rule="nonzero" opacity="1" stroke="none"/>
<path d="M-140.042 268.894C-139.762 269.088-139.785 269.234-140.112 269.334C-141.219 269.674-141.962 269.641-142.342 269.234C-142.542 269.024-142.452 268.664-142.162 268.514C-141.549 268.208-140.842 268.334-140.042 268.894Z" fill="#ffd200" fill-rule="nonzero" opacity="1" stroke="none"/>
<path d="M-244.172 279.374L-240.392 274.954C-240.202 274.734-240.152 274.404-240.272 274.104C-240.865 272.624-240.525 271.614-239.252 271.074C-238.592 270.801-237.975 270.811-237.402 271.104C-236.562 271.531-236.359 272.258-236.792 273.284C-236.912 273.564-236.832 273.884-236.612 274.064C-236.072 274.491-235.505 274.884-234.912 275.244C-234.192 275.671-233.685 276.111-233.392 276.564C-232.325 278.211-232.469 279.598-233.822 280.724C-234.709 281.464-235.739 281.871-236.912 281.944C-238.772 282.058-239.652 281.031-239.552 278.864C-239.532 278.514-239.342 278.224-239.062 278.144C-238.615 278.018-238.285 278.238-238.072 278.804C-237.612 280.024-236.939 280.421-236.052 279.994C-235.782 279.864-235.572 279.594-235.482 279.264C-234.929 277.244-235.875 276.091-238.322 275.804C-239.315 275.684-240.335 276.831-241.382 279.244C-242.022 280.724-241.685 281.934-240.372 282.874C-239.572 283.448-239.665 283.738-240.652 283.744C-241.579 283.744-242.379 283.488-243.052 282.974C-244.072 282.194-244.722 281.764-245.002 281.684C-246.329 281.304-247.829 281.314-249.502 281.714C-251.402 282.174-252.262 281.474-252.082 279.614L-251.662 275.294C-251.622 274.914-251.692 274.594-251.842 274.394C-252.422 273.614-253.092 273.488-253.852 274.014C-254.279 274.314-254.582 274.801-254.762 275.474C-255.162 276.948-255.359 278.454-255.352 279.994C-255.352 281.668-256.102 282.248-257.602 281.734C-257.862 281.644-258.032 281.364-258.002 281.064L-257.412 274.874C-257.382 274.544-257.522 274.224-257.772 274.054C-258.432 273.588-259.065 273.578-259.672 274.024C-260.039 274.298-260.279 274.774-260.392 275.454C-260.705 277.394-261.082 279.324-261.522 281.244C-261.602 281.574-261.802 281.844-262.072 281.954C-263.352 282.494-263.852 281.938-263.572 280.284C-263.439 279.511-263.652 279.398-264.212 279.944C-265.512 281.191-267.132 281.814-269.072 281.814C-271.532 281.814-272.989 280.634-273.442 278.274C-273.915 275.774-273.062 273.934-270.882 272.754C-268.962 271.714-267.179 271.811-265.532 273.044C-265.272 273.244-265.112 273.534-265.082 273.854C-264.915 276.081-265.932 277.451-268.132 277.964C-268.432 278.038-268.729 278.051-269.022 278.004C-270.189 277.831-270.085 277.404-268.712 276.724C-267.885 276.311-267.382 275.691-267.202 274.864C-267.142 274.574-267.292 274.264-267.582 274.124C-269.089 273.378-270.142 273.711-270.742 275.124C-271.109 275.978-271.202 276.904-271.022 277.904C-270.589 280.271-268.939 280.738-266.072 279.304C-264.512 278.524-263.559 277.304-263.212 275.644C-263.199 275.591-263.185 274.864-263.172 273.464C-263.152 272.004-262.349 271.628-260.762 272.334C-260.482 272.464-260.152 272.484-259.842 272.384C-258.402 271.938-257.039 272.071-255.752 272.784C-255.472 272.944-255.142 272.984-254.862 272.874C-250.049 271.014-248.219 272.564-249.372 277.524C-249.539 278.238-249.609 278.768-249.582 279.114C-249.495 280.154-248.989 280.444-248.062 279.984C-247.792 279.854-247.592 279.574-247.542 279.234L-246.632 273.294C-246.572 272.924-246.432 272.614-246.232 272.434C-245.745 272.001-245.179 271.891-244.532 272.104C-244.282 272.184-244.122 272.474-244.142 272.794L-244.522 279.244C-244.542 279.631-244.425 279.674-244.172 279.374Z" fill="#0d0c05" fill-rule="nonzero" opacity="1" stroke="none"/>
<path d="M-196.532 279.854C-195.499 279.501-194.929 278.818-194.822 277.804C-194.582 275.524-194.315 273.831-194.022 272.724C-193.942 272.414-193.672 272.204-193.382 272.204L-188.322 272.254C-188.012 272.264-187.722 272.444-187.572 272.724C-186.745 274.211-187.245 274.738-189.072 274.304C-191.439 273.738-191.835 274.301-190.262 275.994C-189.029 277.314-188.809 278.791-189.602 280.424C-190.182 281.611-191.109 282.034-192.382 281.694C-193.809 281.308-194.959 281.224-195.832 281.444C-197.125 281.771-197.779 281.934-197.792 281.934C-198.559 281.881-199.165 281.544-199.612 280.924C-199.932 280.484-200.045 279.868-199.952 279.074C-199.759 277.408-199.589 275.738-199.442 274.064C-199.262 272.118-198.395 271.478-196.842 272.144C-196.592 272.254-196.452 272.544-196.472 272.864L-197.012 279.494C-197.032 279.754-196.782 279.944-196.532 279.854ZM-191.493 279.775C-191.002 279.864-190.502 279.354-190.375 278.649C-190.252 277.944-190.552 277.294-191.051 277.213C-191.542 277.124-192.042 277.634-192.169 278.34C-192.292 279.044-191.992 279.694-191.493 279.775Z" fill="#211a07" fill-rule="nonzero" opacity="1" stroke="none"/>
<path d="M-290.752 279.774C-290.199 279.768-289.675 279.634-289.182 279.374C-288.912 279.234-288.722 278.954-288.662 278.624C-288.482 277.604-288.265 275.934-288.012 273.614C-287.872 272.354-287.162 271.821-285.882 272.014C-285.592 272.054-285.382 272.314-285.382 272.614C-285.375 274.454-285.552 276.278-285.912 278.084C-286.039 278.698-286.022 279.174-285.862 279.514C-285.549 280.174-285.012 280.194-284.252 279.574C-284.012 279.374-283.862 279.084-283.812 278.754C-283.692 277.828-283.529 276.094-283.322 273.554C-283.189 271.928-282.412 271.511-280.992 272.304C-280.742 272.434-280.602 272.734-280.632 273.054L-281.212 278.744C-281.252 279.094-281.152 279.424-280.942 279.634C-280.415 280.168-279.815 280.188-279.142 279.694C-278.902 279.524-278.722 279.234-278.632 278.884C-278.265 277.391-278.019 275.874-277.892 274.334C-277.812 273.394-277.612 272.758-277.292 272.424C-276.805 271.911-276.152 271.821-275.332 272.154C-275.082 272.254-274.922 272.544-274.962 272.864L-275.712 279.254C-275.752 279.534-275.592 279.824-275.322 279.984C-274.515 280.464-273.852 281.094-273.332 281.874C-273.152 282.144-273.082 282.474-273.142 282.804C-273.402 284.264-273.959 284.084-274.812 282.264C-275.139 281.578-275.509 281.328-275.922 281.514C-276.162 281.614-276.312 281.934-276.312 282.304C-276.332 283.471-276.575 284.561-277.042 285.574C-277.509 286.594-278.302 287.258-279.422 287.564C-281.915 288.251-282.985 287.114-282.632 284.154C-282.579 283.741-282.389 283.258-282.062 282.704C-281.242 281.304-281.765 280.818-283.632 281.244C-284.699 281.484-285.489 281.638-286.002 281.704C-286.262 281.734-286.582 281.644-286.912 281.454C-287.719 280.981-288.669 280.951-289.762 281.364C-292.022 282.224-293.432 281.818-293.992 280.144C-294.239 279.404-294.249 278.218-294.022 276.584C-293.842 275.304-293.655 274.024-293.462 272.744C-293.412 272.414-293.202 272.154-292.922 272.054C-292.029 271.741-291.412 271.898-291.072 272.524C-290.885 272.864-290.855 273.394-290.982 274.114C-291.275 275.814-291.379 277.521-291.292 279.234C-291.272 279.534-291.042 279.774-290.752 279.774ZM-280.002 282.404C-281.482 284.351-281.579 285.601-280.292 286.154C-280.032 286.264-279.722 286.144-279.572 285.874C-278.865 284.628-278.579 283.581-278.712 282.734C-278.885 281.621-279.315 281.511-280.002 282.404Z" fill="#0d0c05" fill-rule="nonzero" opacity="1" stroke="none"/>
<path d="M-220.002 280.204C-217.669 279.978-215.919 278.848-214.752 276.814C-214.582 276.524-214.262 276.404-214.052 276.554C-213.672 276.834-213.689 277.328-214.102 278.034C-215.902 281.121-218.375 282.271-221.522 281.484C-222.642 281.211-223.482 280.651-224.042 279.804C-224.695 278.831-224.959 277.768-224.832 276.614C-224.672 275.161-224.002 274.001-222.822 273.134C-221.655 272.268-220.232 271.908-218.552 272.054C-216.359 272.248-215.605 273.391-216.292 275.484C-216.832 277.111-218.155 278.021-220.262 278.214C-220.622 278.244-220.942 278.104-221.082 277.864C-221.322 277.438-221.059 277.078-220.292 276.784C-219.325 276.418-218.719 275.774-218.472 274.854C-218.392 274.554-218.522 274.244-218.792 274.074C-219.872 273.401-220.779 273.664-221.512 274.864C-222.705 276.824-222.499 278.511-220.892 279.924C-220.652 280.134-220.332 280.234-220.002 280.204Z" fill="#0d0c05" fill-rule="nonzero" opacity="1" stroke="none"/>
<path d="M-205.033 273.846C-204.042 274.116-203.614 275.717-204.077 277.422C-204.54 279.128-205.72 280.292-206.711 280.023C-207.702 279.753-208.13 278.152-207.667 276.447C-207.203 274.741-206.024 273.577-205.033 273.846Z" fill="#ffd200" fill-rule="nonzero" opacity="1" stroke="none"/>
<path d="M-228.862 279.844L-228.682 276.804C-228.662 276.404-228.492 276.341-228.172 276.614C-226.959 277.688-226.949 278.854-228.142 280.114C-228.669 280.668-228.909 280.578-228.862 279.844Z" fill="#ffd200" fill-rule="nonzero" opacity="1" stroke="none"/>
<path d="M-140.342 277.474C-139.875 279.021-140.432 279.788-142.012 279.774C-142.332 279.764-142.622 279.594-142.772 279.314C-143.699 277.714-143.109 276.934-141.002 276.974C-140.702 276.984-140.432 277.184-140.342 277.474Z" fill="#ffd200" fill-rule="nonzero" opacity="1" stroke="none"/>
<path d="M-298.679 277.061C-298.135 277.112-297.753 277.782-297.826 278.558C-297.9 279.333-298.4 279.92-298.945 279.868C-299.489 279.817-299.871 279.147-299.797 278.371C-299.724 277.596-299.224 277.009-298.679 277.061Z" fill="#ffd200" fill-rule="nonzero" opacity="1" stroke="none"/>
<path d="M-191.051 277.213C-190.555 277.299-190.253 277.942-190.375 278.649C-190.497 279.357-190.998 279.861-191.493 279.775C-191.988 279.69-192.291 279.047-192.169 278.34C-192.046 277.632-191.546 277.128-191.051 277.213Z" fill="#ffd200" fill-rule="nonzero" opacity="1" stroke="none"/>
<path d="M-324.881 277.603C-324.547 277.749-324.51 278.401-324.797 279.059C-325.085 279.717-325.588 280.132-325.922 279.986C-326.256 279.84-326.294 279.188-326.007 278.53C-325.719 277.872-325.215 277.457-324.881 277.603Z" fill="#ffd200" fill-rule="nonzero" opacity="1" stroke="none"/>
<path d="M-169.707 278.374C-169.359 278.499-169.204 278.955-169.362 279.391C-169.519 279.828-169.928 280.08-170.276 279.955C-170.625 279.829-170.779 279.374-170.622 278.938C-170.465 278.501-170.056 278.249-169.707 278.374Z" fill="#ffd200" fill-rule="nonzero" opacity="1" stroke="none"/>
<path d="M-280.002 282.404C-279.315 281.511-278.885 281.621-278.712 282.734C-278.579 283.581-278.865 284.628-279.572 285.874C-279.722 286.144-280.032 286.264-280.292 286.154C-281.579 285.601-281.482 284.351-280.002 282.404Z" fill="#ffd200" fill-rule="nonzero" opacity="1" stroke="none"/>
<path d="M1.44071 154.29C1.44071 69.8737 69.8737 1.44071 154.29 1.44071C238.706 1.44071 307.139 69.8737 307.139 154.29C307.139 238.706 238.706 307.139 154.29 307.139C69.8737 307.139 1.44071 238.706 1.44071 154.29Z" fill="#ffd200" fill-rule="nonzero" opacity="1" stroke="none"/>
<g opacity="1">
<path d="M255.358 92.2926C255.838 91.6558 255.593 90.7349 254.858 90.4116C252.637 89.445 250.835 87.9689 249.45 85.9834C249.146 85.5523 249.332 84.9547 249.822 84.7686C254.139 83.1423 258.222 83.5929 262.068 86.1206C264.341 87.6097 266.196 89.2164 267.633 90.9406C269.384 93.0372 270.638 95.1043 271.395 97.1421C272.44 99.9375 272.434 103.014 271.376 106.371C271.287 106.635 270.984 106.743 270.749 106.606C267.881 104.888 265.974 102.89 265.027 100.61C264.772 99.993 264.028 99.7579 263.469 100.101C261.151 101.505 258.711 101.969 256.151 101.492C254.251 101.139 253.349 99.9506 253.447 97.9259C253.552 95.7183 254.188 93.8405 255.358 92.2926Z" fill="#f5060b" fill-rule="nonzero" opacity="1" stroke="none"/>
<path d="M241.397 108.712C242.664 105.264 244.525 102.201 246.981 99.5228C247.177 99.2974 247.138 98.9643 246.903 98.9153C246.557 98.837 246.142 99.0198 245.659 99.464C242.837 102.083 241.266 104.989 240.946 108.183C240.502 108.151 240.257 107.837 240.212 107.243C239.565 99.3856 242.053 92.9621 247.677 87.9722C247.902 87.7762 248.225 87.7272 248.48 87.8644C250.355 88.8245 251.981 90.0981 253.359 91.6852C253.555 91.9105 253.604 92.224 253.486 92.4984C252.291 95.235 252.16 98.0173 253.094 100.845C253.192 101.149 253.398 101.414 253.663 101.59C256.105 103.229 258.976 103.317 262.274 101.854C262.725 101.658 263.254 101.747 263.607 102.099L268.27 106.763C268.642 107.145 268.691 107.733 268.378 108.173C265.537 112.118 261.595 114.548 256.553 115.462C253.045 116.096 249.509 116.38 245.943 116.315C245.681 116.308 245.463 116.262 245.286 116.178C244.731 115.929 244.721 115.668 245.257 115.394C245.401 115.315 245.6 115.253 245.855 115.208C250.152 114.476 253.682 112.422 256.445 109.045C257.405 107.87 257.235 107.625 255.936 108.311C255.753 108.409 255.58 108.542 255.416 108.712C252.621 111.645 249.185 113.343 245.11 113.807C244.796 113.839 244.496 113.947 244.209 114.13C242.746 115.038 242.367 114.489 243.072 112.484C243.765 110.518 245.159 108.18 247.255 105.469C247.687 104.901 247.625 104.591 247.069 104.539C246.785 104.509 246.472 104.627 246.207 104.862C244.209 106.632 242.808 108.797 242.004 111.357C241.9 111.691 241.792 111.697 241.681 111.377C241.387 110.535 241.292 109.646 241.397 108.712Z" fill="#f5060b" fill-rule="nonzero" opacity="1" stroke="none"/>
<g opacity="1">
<path d="M36.6121 187.768L42.8978 143.355C43.3787 139.989 43.6191 137.275 43.6191 135.215C43.6191 133.085 43.3443 131.677 42.7948 130.99C45.3366 129.135 48.5825 127.555 52.5325 126.25C56.4826 124.944 60.0377 124.292 63.1977 124.292C66.4265 124.292 68.6591 124.859 69.8957 125.992C71.1322 127.126 71.7505 128.62 71.7505 130.474C71.7505 130.955 71.7161 131.436 71.6474 131.917L64.1251 185.604C63.7817 187.939 63.6099 190.035 63.6099 191.889C63.6099 193.676 63.7817 195.221 64.1251 196.526C61.2399 198.381 56.8089 199.309 50.8323 199.309C45.1305 199.309 41.3006 198.536 39.3428 196.99C37.3849 195.445 36.406 193.229 36.406 190.344C36.406 189.519 36.4747 188.661 36.6121 187.768Z" fill="#fc3500" fill-rule="nonzero" opacity="1" stroke="none"/>
<path d="M74.9449 190.344L81.3337 145.004C82.0207 139.92 82.3642 136.073 82.3642 133.463C82.3642 131.402 82.1581 130.062 81.7459 129.444C82.9824 128.207 85.1292 127.04 88.1862 125.94C91.2432 124.841 94.1457 124.292 96.8935 124.292C100.466 124.292 103.282 124.944 105.343 126.25C107.404 127.555 109.534 129.891 111.732 133.257L128.941 159.842L131.62 140.779C132.032 137.894 132.238 135.421 132.238 133.36C132.238 131.161 131.998 129.478 131.517 128.311C132.891 127.349 134.9 126.439 137.545 125.58C140.19 124.721 142.646 124.292 144.913 124.292C148.004 124.292 149.996 124.79 150.889 125.786C151.782 126.782 152.229 128.173 152.229 129.959C152.229 130.646 152.16 131.436 152.023 132.329L145.325 179.73C144.913 182.821 144.655 185.14 144.552 186.686C144.449 188.231 144.397 189.519 144.397 190.55C144.397 191.306 144.432 192.267 144.5 193.435C144.569 194.603 144.603 195.221 144.603 195.29C143.436 196.458 141.478 197.42 138.73 198.175C135.982 198.931 133.337 199.309 130.795 199.309C127.704 199.309 125.197 198.793 123.273 197.763C121.35 196.733 119.563 194.946 117.915 192.405L98.2331 161.8L94.7296 186.428C94.4548 188.489 94.3174 190.412 94.3174 192.199C94.3174 193.71 94.4204 195.153 94.6265 196.526C93.7335 197.282 92.2393 197.935 90.1441 198.484C88.0488 199.034 86.1081 199.309 84.322 199.309C80.4063 199.309 77.8302 198.742 76.5936 197.608C75.3571 196.475 74.7388 194.843 74.7388 192.714C74.7388 191.958 74.8075 191.168 74.9449 190.344Z" fill="#fc3500" fill-rule="nonzero" opacity="1" stroke="none"/>
<path d="M156.248 166.849C156.248 154.141 160.593 143.664 169.283 135.421C177.973 127.177 188.81 123.055 201.794 123.055C210.106 123.055 216.89 124.721 222.145 128.053C227.4 131.385 230.028 135.455 230.028 140.264C230.028 144.386 228.156 147.855 224.412 150.671C220.668 153.488 216.117 154.896 210.759 154.896C210.621 154.896 210.484 154.896 210.346 154.896C210.209 148.713 209.024 144.42 206.791 142.016C204.559 139.611 201.965 138.409 199.011 138.409C194.409 138.409 190.613 140.659 187.625 145.158C184.637 149.658 183.142 155.24 183.142 161.903C183.142 168.086 184.568 172.826 187.419 176.124C190.27 179.421 194.374 181.07 199.733 181.07C204.061 181.07 208.062 180.074 211.737 178.081C215.413 176.089 218.212 173.582 220.136 170.559C223.708 171.796 225.494 174.853 225.494 179.73C225.494 185.569 222.557 190.464 216.684 194.414C210.81 198.364 202.961 200.339 193.138 200.339C181.597 200.339 172.563 197.42 166.037 191.58C159.511 185.741 156.248 177.497 156.248 166.849Z" fill="#fc3500" fill-rule="nonzero" opacity="1" stroke="none"/>
<path d="M232.707 187.768L238.993 143.355C239.474 139.989 239.714 137.275 239.714 135.215C239.714 133.085 239.439 131.677 238.89 130.99C241.432 129.135 244.678 127.555 248.628 126.25C252.578 124.944 256.133 124.292 259.293 124.292C262.522 124.292 264.754 124.859 265.991 125.992C267.227 127.126 267.846 128.62 267.846 130.474C267.846 130.955 267.811 131.436 267.743 131.917L260.22 185.604C259.877 187.939 259.705 190.035 259.705 191.889C259.705 193.676 259.877 195.221 260.22 196.526C257.335 198.381 252.904 199.309 246.927 199.309C241.226 199.309 237.396 198.536 235.438 196.99C233.48 195.445 232.501 193.229 232.501 190.344C232.501 189.519 232.57 188.661 232.707 187.768Z" fill="#fc3500" fill-rule="nonzero" opacity="1" stroke="none"/>
</g>
<path d="M65.9089 73.6159C67.7252 76.5725 67.7463 79.5232 65.9723 82.4677C65.0069 84.0728 63.085 85.7744 60.2068 87.5725C56.9786 89.5878 53.7414 91.5941 50.4951 93.5914C44.9499 97.0006 42.7022 102.214 43.7521 109.231C43.9332 110.45 43.5741 110.64 42.6751 109.802C40.3761 107.654 38.7741 105.056 37.869 102.009C37.1208 99.4745 37.0846 97.0428 37.7604 94.7137C38.3336 92.7466 39.5977 90.8007 41.5527 88.8758C43.3328 87.1199 45.318 85.6205 47.5083 84.3775C49.6866 83.1345 51.0502 82.2173 51.5993 81.626C52.7639 80.389 53.5875 78.9077 54.0703 77.182C54.5469 75.4804 53.7173 74.4244 51.5812 74.0141L47.101 73.1452C46.7993 73.0909 46.7631 72.9612 46.9924 72.756C48.7483 71.2294 50.7033 70.0287 52.8574 69.1537C55.615 68.0314 58.1794 67.9439 60.5508 68.8913C62.723 69.7602 64.5091 71.335 65.9089 73.6159Z" fill="#fc3500" fill-rule="nonzero" opacity="1" stroke="none"/>
<path d="M58.6501 103.43C60.8404 107.358 62.4907 111.536 63.6009 115.965C63.7277 116.472 63.3385 116.952 62.8226 116.943C60.6201 116.901 58.3001 116.566 55.8623 115.938C50.2809 114.496 46.742 111.156 45.2455 105.919C44.8654 104.573 45.0615 103.02 45.8339 101.258C47.2699 98.0173 49.5448 95.5434 52.6583 93.8358C55.9167 92.0497 59.1841 90.2787 62.4605 88.5228C65.6042 86.8394 67.7131 83.9672 68.7872 79.9063C69.2156 78.3073 69.7978 78.247 70.534 79.7253C71.1253 80.92 71.3546 82.3833 71.2219 84.115C71.1676 84.7757 71.4753 85.4093 72.0274 85.7804C74.5134 87.4458 76.0521 89.6753 76.6434 92.4691C76.9089 93.7302 76.8184 94.7137 76.3719 95.4197C75.8349 96.2826 74.8754 96.8497 73.4937 97.1213C72.4256 97.3325 72.3653 97.7066 73.3126 98.2436C75.4004 99.4202 76.6615 101.092 77.096 103.258C77.2528 104.06 76.9692 104.269 76.2452 103.882C70.6094 100.89 64.8108 100.552 58.8492 102.869C58.6229 102.95 58.5324 103.222 58.6501 103.43ZM73.2493 90.2425C73.2493 89.609 72.7424 89.1021 72.1089 89.1021C71.4753 89.1021 70.9684 89.609 70.9684 90.2425C70.9684 90.8761 71.4753 91.383 72.1089 91.383C72.7424 91.383 73.2493 90.8761 73.2493 90.2425Z" fill="#fc3500" fill-rule="nonzero" opacity="1" stroke="none"/>
<path d="M67.7736 116.259C66.6573 116.301 65.9936 115.764 65.7824 114.648C65.2997 112.084 64.5484 109.821 63.5287 107.86C63.4261 107.661 63.1123 107.205 62.5874 106.493C61.6762 105.262 62.3641 104.813 64.651 105.145C66.5939 105.428 67.7826 105.823 68.2171 106.33C70.4979 109.009 72.0487 112.084 72.8693 115.553C72.9327 115.843 72.7245 116.132 72.4258 116.16C71.5207 116.244 70.7182 116.262 70.0182 116.214C69.7346 116.196 68.9864 116.211 67.7736 116.259Z" fill="#fc3500" fill-rule="nonzero" opacity="1" stroke="none"/>
</g>
<g fill="#4d4d4d" opacity="1" stroke="none">
<path d="M75.043 234.912L75.897 228.878C75.9623 228.421 75.995 228.052 75.995 227.772C75.995 227.483 75.9577 227.291 75.883 227.198C76.2283 226.946 76.6693 226.731 77.206 226.554C77.7427 226.377 78.2257 226.288 78.655 226.288C79.0937 226.288 79.397 226.365 79.565 226.519C79.733 226.673 79.817 226.876 79.817 227.128C79.817 227.193 79.8123 227.259 79.803 227.324L79.299 230.95C80.1857 230.483 81.014 229.809 81.784 228.927C82.554 228.045 83.0043 227.198 83.135 226.386C83.3217 226.367 83.499 226.358 83.667 226.358C84.1617 226.358 84.612 226.465 85.018 226.68C85.424 226.895 85.627 227.217 85.627 227.646C85.627 228.113 85.3517 228.628 84.801 229.193C84.2503 229.758 83.555 230.278 82.715 230.754L84.129 233.526C84.4277 234.133 84.843 234.473 85.375 234.548C85.2163 235.033 84.878 235.477 84.36 235.878C83.842 236.279 83.2517 236.48 82.589 236.48C82.197 236.48 81.882 236.415 81.644 236.284C81.406 236.153 81.2077 235.92 81.049 235.584L79.705 232.672C79.4623 232.775 79.2337 232.868 79.019 232.952L78.781 234.618C78.7343 234.935 78.711 235.22 78.711 235.472C78.711 235.715 78.7343 235.925 78.781 236.102C78.389 236.354 77.787 236.48 76.975 236.48C76.1817 236.48 75.6567 236.375 75.4 236.165C75.1433 235.955 75.015 235.659 75.015 235.276C75.015 235.164 75.0243 235.043 75.043 234.912Z"/>
<path d="M85.851 234.044L86.159 231.874C86.2243 231.407 86.257 231.029 86.257 230.74C86.257 230.469 86.2243 230.287 86.159 230.194C86.495 229.942 86.9337 229.727 87.475 229.55C88.0163 229.373 88.497 229.284 88.917 229.284C89.6077 229.284 89.953 229.555 89.953 230.096C89.953 230.161 89.9483 230.236 89.939 230.32L89.449 233.834C89.4397 233.881 89.435 233.923 89.435 233.96C89.435 234.081 89.4747 234.189 89.554 234.282C89.6333 234.375 89.7523 234.422 89.911 234.422C90.163 234.422 90.3917 234.303 90.597 234.065C90.8023 233.827 90.919 233.582 90.947 233.33L91.157 231.874C91.2223 231.407 91.255 231.029 91.255 230.74C91.255 230.469 91.2223 230.287 91.157 230.194C91.493 229.942 91.9317 229.727 92.473 229.55C93.0143 229.373 93.495 229.284 93.915 229.284C94.6057 229.284 94.951 229.555 94.951 230.096C94.951 230.161 94.9463 230.236 94.937 230.32L94.461 233.722C94.4517 233.787 94.447 233.848 94.447 233.904C94.447 234.193 94.5683 234.338 94.811 234.338C94.951 234.338 95.1143 234.277 95.301 234.156C95.4223 234.268 95.483 234.422 95.483 234.618C95.483 235.113 95.1797 235.528 94.573 235.864C93.9663 236.2 93.3083 236.368 92.599 236.368C92.0203 236.368 91.5817 236.242 91.283 235.99C90.9843 235.738 90.835 235.397 90.835 234.968C90.1723 235.976 89.2343 236.48 88.021 236.48C87.2277 236.48 86.6607 236.291 86.32 235.913C85.9793 235.535 85.809 235.08 85.809 234.548C85.809 234.389 85.823 234.221 85.851 234.044Z"/>
<path d="M95.987 234.8L96.393 231.958C96.4583 231.501 96.491 231.132 96.491 230.852C96.491 230.563 96.4537 230.371 96.379 230.278C96.7243 230.017 97.163 229.8 97.695 229.627C98.227 229.454 98.7077 229.368 99.137 229.368C99.8277 229.368 100.173 229.639 100.173 230.18C100.173 230.245 100.168 230.32 100.159 230.404L100.061 231.118C100.714 229.914 101.433 229.312 102.217 229.312C102.525 229.312 102.765 229.41 102.938 229.606C103.111 229.802 103.197 230.073 103.197 230.418C103.197 230.829 103.104 231.2 102.917 231.531C102.73 231.862 102.497 232.093 102.217 232.224C101.909 232.019 101.55 231.916 101.139 231.916C100.542 231.916 100.108 232.21 99.837 232.798L99.585 234.506C99.5383 234.823 99.515 235.108 99.515 235.36C99.515 235.603 99.5383 235.813 99.585 235.99C99.2023 236.242 98.6097 236.368 97.807 236.368C97.0697 236.368 96.5773 236.263 96.33 236.053C96.0827 235.843 95.959 235.547 95.959 235.164C95.959 235.052 95.9683 234.931 95.987 234.8Z"/>
<path d="M103.365 234.044L103.673 231.874C103.738 231.407 103.771 231.029 103.771 230.74C103.771 230.469 103.738 230.287 103.673 230.194C104.009 229.942 104.448 229.727 104.989 229.55C105.53 229.373 106.011 229.284 106.431 229.284C107.122 229.284 107.467 229.555 107.467 230.096C107.467 230.161 107.462 230.236 107.453 230.32L106.963 233.834C106.954 233.881 106.949 233.923 106.949 233.96C106.949 234.081 106.989 234.189 107.068 234.282C107.147 234.375 107.266 234.422 107.425 234.422C107.677 234.422 107.906 234.303 108.111 234.065C108.316 233.827 108.433 233.582 108.461 233.33L108.671 231.874C108.736 231.407 108.769 231.029 108.769 230.74C108.769 230.469 108.736 230.287 108.671 230.194C109.007 229.942 109.446 229.727 109.987 229.55C110.528 229.373 111.009 229.284 111.429 229.284C112.12 229.284 112.465 229.555 112.465 230.096C112.465 230.161 112.46 230.236 112.451 230.32L111.975 233.722C111.966 233.787 111.961 233.848 111.961 233.904C111.961 234.193 112.082 234.338 112.325 234.338C112.465 234.338 112.628 234.277 112.815 234.156C112.936 234.268 112.997 234.422 112.997 234.618C112.997 235.113 112.694 235.528 112.087 235.864C111.48 236.2 110.822 236.368 110.113 236.368C109.534 236.368 109.096 236.242 108.797 235.99C108.498 235.738 108.349 235.397 108.349 234.968C107.686 235.976 106.748 236.48 105.535 236.48C104.742 236.48 104.175 236.291 103.834 235.913C103.493 235.535 103.323 235.08 103.323 234.548C103.323 234.389 103.337 234.221 103.365 234.044Z"/>
<path d="M113.529 234.044L113.837 231.874C113.902 231.407 113.935 231.029 113.935 230.74C113.935 230.469 113.902 230.287 113.837 230.194C114.173 229.942 114.605 229.727 115.132 229.55C115.659 229.373 116.133 229.284 116.553 229.284C117.244 229.284 117.589 229.555 117.589 230.096C117.589 230.161 117.584 230.236 117.575 230.32L117.085 233.834C117.076 233.881 117.071 233.923 117.071 233.96C117.071 234.081 117.108 234.189 117.183 234.282C117.258 234.375 117.379 234.422 117.547 234.422C117.808 234.422 118.037 234.303 118.233 234.065C118.429 233.827 118.546 233.582 118.583 233.33L118.793 231.874C118.858 231.407 118.891 231.029 118.891 230.74C118.891 230.469 118.858 230.287 118.793 230.194C119.129 229.942 119.561 229.727 120.088 229.55C120.615 229.373 121.089 229.284 121.509 229.284C122.2 229.284 122.545 229.555 122.545 230.096C122.545 230.161 122.54 230.236 122.531 230.32L121.747 235.948C121.598 237.021 120.991 237.873 119.927 238.503C118.863 239.133 117.65 239.448 116.287 239.448C115.503 239.448 114.868 239.338 114.383 239.119C113.898 238.9 113.655 238.58 113.655 238.16C113.655 237.871 113.762 237.609 113.977 237.376C114.192 237.143 114.43 237.012 114.691 236.984C115.167 237.488 115.741 237.74 116.413 237.74C116.646 237.74 116.856 237.712 117.043 237.656C117.23 237.6 117.386 237.535 117.512 237.46C117.638 237.385 117.752 237.271 117.855 237.117C117.958 236.963 118.037 236.835 118.093 236.732C118.149 236.629 118.203 236.468 118.254 236.249C118.305 236.03 118.338 235.873 118.352 235.78C118.366 235.687 118.392 235.523 118.429 235.29L118.471 235.01L118.359 235.01C117.734 235.99 116.833 236.48 115.657 236.48C114.864 236.48 114.304 236.293 113.977 235.92C113.65 235.547 113.487 235.094 113.487 234.562C113.487 234.403 113.501 234.231 113.529 234.044Z"/>
<path d="M122.979 233.358C122.979 232.219 123.462 231.251 124.428 230.453C125.394 229.655 126.554 229.256 127.907 229.256C128.784 229.256 129.498 229.431 130.049 229.781C130.6 230.131 130.875 230.609 130.875 231.216C130.875 231.505 130.805 231.778 130.665 232.035C130.525 232.292 130.301 232.539 129.993 232.777C129.685 233.015 129.242 233.206 128.663 233.351C128.084 233.496 127.398 233.573 126.605 233.582C126.745 234.189 127.193 234.492 127.949 234.492C128.78 234.492 129.54 234.184 130.231 233.568C130.492 233.708 130.623 233.965 130.623 234.338C130.623 234.991 130.259 235.512 129.531 235.899C128.803 236.286 127.916 236.48 126.871 236.48C125.695 236.48 124.752 236.212 124.043 235.675C123.334 235.138 122.979 234.366 122.979 233.358ZM127.781 232.182C128.136 231.902 128.313 231.561 128.313 231.16C128.313 230.983 128.269 230.845 128.18 230.747C128.091 230.649 127.968 230.6 127.809 230.6C127.492 230.6 127.212 230.81 126.969 231.23C126.726 231.65 126.586 232.14 126.549 232.7C127.006 232.644 127.417 232.471 127.781 232.182Z"/>
<path d="M131.393 234.8L131.799 231.874C131.864 231.407 131.902 231.029 131.911 230.74C131.902 230.469 131.864 230.287 131.799 230.194C132.135 229.942 132.571 229.727 133.108 229.55C133.645 229.373 134.123 229.284 134.543 229.284C135.243 229.284 135.593 229.555 135.593 230.096C135.593 230.171 135.588 230.245 135.579 230.32L135.509 230.782C135.864 230.315 136.298 229.944 136.811 229.669C137.324 229.394 137.856 229.256 138.407 229.256C138.948 229.256 139.392 229.387 139.737 229.648C140.082 229.909 140.288 230.283 140.353 230.768C140.717 230.311 141.163 229.944 141.69 229.669C142.217 229.394 142.766 229.256 143.335 229.256C143.97 229.256 144.469 229.417 144.833 229.739C145.197 230.061 145.379 230.507 145.379 231.076C145.379 231.393 145.304 231.89 145.155 232.567C145.006 233.244 144.931 233.671 144.931 233.848C144.931 234.184 145.071 234.352 145.351 234.352C145.528 234.352 145.692 234.287 145.841 234.156C145.962 234.259 146.023 234.413 146.023 234.618C146.023 235.075 145.752 235.481 145.211 235.836C144.67 236.191 143.96 236.368 143.083 236.368C141.832 236.368 141.207 235.841 141.207 234.786C141.207 234.441 141.286 233.913 141.445 233.204C141.604 232.495 141.683 232.061 141.683 231.902C141.683 231.603 141.557 231.454 141.305 231.454C141.053 231.454 140.822 231.566 140.612 231.79C140.402 232.014 140.269 232.252 140.213 232.504L139.933 234.506C139.896 234.823 139.877 235.103 139.877 235.346C139.877 235.598 139.896 235.813 139.933 235.99C139.55 236.242 138.976 236.368 138.211 236.368C137.455 236.368 136.956 236.265 136.713 236.06C136.47 235.855 136.349 235.561 136.349 235.178C136.349 235.057 136.358 234.931 136.377 234.8L136.769 232.042C136.778 231.986 136.783 231.935 136.783 231.888C136.783 231.599 136.666 231.454 136.433 231.454C136.181 231.454 135.931 231.58 135.684 231.832C135.437 232.084 135.294 232.327 135.257 232.56L134.991 234.506C134.944 234.823 134.921 235.108 134.921 235.36C134.921 235.603 134.944 235.813 134.991 235.99C134.608 236.242 134.016 236.368 133.213 236.368C132.476 236.368 131.983 236.261 131.736 236.046C131.489 235.831 131.365 235.528 131.365 235.136C131.365 235.033 131.374 234.921 131.393 234.8Z"/>
<path d="M146.639 234.254L146.975 231.874C147.04 231.398 147.073 231.02 147.073 230.74C147.073 230.46 147.04 230.278 146.975 230.194C147.311 229.942 147.75 229.727 148.291 229.55C148.832 229.373 149.313 229.284 149.733 229.284C150.424 229.284 150.769 229.555 150.769 230.096C150.769 230.161 150.764 230.236 150.755 230.32L150.279 233.722C150.27 233.787 150.265 233.848 150.265 233.904C150.265 234.193 150.386 234.338 150.629 234.338C150.769 234.338 150.932 234.277 151.119 234.156C151.24 234.268 151.301 234.417 151.301 234.604C151.301 235.117 151.005 235.54 150.412 235.871C149.819 236.202 149.168 236.368 148.459 236.368C147.731 236.368 147.239 236.216 146.982 235.913C146.725 235.61 146.597 235.229 146.597 234.772C146.597 234.613 146.611 234.441 146.639 234.254ZM147.465 227.562C147.465 227.151 147.687 226.799 148.13 226.505C148.573 226.211 149.103 226.064 149.719 226.064C150.195 226.064 150.573 226.16 150.853 226.351C151.133 226.542 151.273 226.797 151.273 227.114C151.273 227.525 151.051 227.877 150.608 228.171C150.165 228.465 149.635 228.612 149.019 228.612C148.543 228.612 148.165 228.516 147.885 228.325C147.605 228.134 147.465 227.879 147.465 227.562Z"/>
<path d="M151.637 235.136C151.637 234.8 151.765 234.52 152.022 234.296C152.279 234.072 152.552 233.946 152.841 233.918C153.074 234.263 153.387 234.513 153.779 234.667C154.171 234.821 154.544 234.898 154.899 234.898C155.16 234.898 155.366 234.854 155.515 234.765C155.664 234.676 155.739 234.553 155.739 234.394C155.739 234.301 155.713 234.219 155.662 234.149C155.611 234.079 155.52 234.018 155.389 233.967C155.258 233.916 155.142 233.878 155.039 233.855C154.936 233.832 154.778 233.799 154.563 233.757C154.348 233.715 154.19 233.68 154.087 233.652C152.92 233.381 152.337 232.798 152.337 231.902C152.337 231.127 152.715 230.474 153.471 229.942C154.227 229.41 155.254 229.144 156.551 229.144C157.438 229.144 158.145 229.268 158.672 229.515C159.199 229.762 159.463 230.082 159.463 230.474C159.463 230.717 159.37 230.941 159.183 231.146C158.996 231.351 158.754 231.482 158.455 231.538C157.82 231.034 157.242 230.782 156.719 230.782C156.486 230.782 156.292 230.836 156.138 230.943C155.984 231.05 155.907 231.183 155.907 231.342C155.907 231.435 155.93 231.512 155.977 231.573C156.024 231.634 156.112 231.687 156.243 231.734C156.374 231.781 156.476 231.813 156.551 231.832C156.626 231.851 156.775 231.883 156.999 231.93C157.354 232.005 157.638 232.077 157.853 232.147C158.068 232.217 158.299 232.32 158.546 232.455C158.793 232.59 158.978 232.77 159.099 232.994C159.22 233.218 159.281 233.489 159.281 233.806C159.281 234.506 158.966 235.096 158.336 235.577C157.706 236.058 156.822 236.359 155.683 236.48L155.459 236.942C156.532 236.942 157.069 237.32 157.069 238.076C157.069 238.571 156.861 238.981 156.446 239.308C156.031 239.635 155.468 239.798 154.759 239.798C154.218 239.798 153.814 239.707 153.548 239.525C153.282 239.343 153.149 239.117 153.149 238.846C153.149 238.65 153.205 238.473 153.317 238.314C153.746 238.491 154.171 238.58 154.591 238.58C154.908 238.58 155.158 238.522 155.34 238.405C155.522 238.288 155.613 238.127 155.613 237.922C155.613 237.614 155.123 237.455 154.143 237.446L154.605 236.536C153.681 236.527 152.955 236.405 152.428 236.172C151.901 235.939 151.637 235.593 151.637 235.136Z"/>
<path d="M159.939 230.908C159.939 230.451 160.049 230.103 160.268 229.865C160.487 229.627 160.77 229.508 161.115 229.508L161.185 229.508C161.25 229.041 161.288 228.668 161.297 228.388C161.288 228.117 161.25 227.935 161.185 227.842C161.521 227.59 161.953 227.375 162.48 227.198C163.007 227.021 163.481 226.932 163.901 226.932C164.601 226.932 164.951 227.203 164.951 227.744C164.951 227.819 164.946 227.893 164.937 227.968L164.727 229.508L166.925 229.508C166.972 229.667 166.995 229.821 166.995 229.97C166.995 230.371 166.895 230.691 166.694 230.929C166.493 231.167 166.225 231.286 165.889 231.286L164.475 231.286L164.209 233.148C164.19 233.269 164.181 233.386 164.181 233.498C164.181 233.75 164.239 233.951 164.356 234.1C164.473 234.249 164.69 234.324 165.007 234.324C165.483 234.324 165.88 234.165 166.197 233.848C166.421 233.951 166.533 234.161 166.533 234.478C166.533 235.075 166.225 235.558 165.609 235.927C164.993 236.296 164.223 236.48 163.299 236.48C162.319 236.48 161.614 236.279 161.185 235.878C160.756 235.477 160.541 234.977 160.541 234.38C160.541 234.24 160.55 234.095 160.569 233.946L160.933 231.286L159.995 231.286C159.958 231.146 159.939 231.02 159.939 230.908Z"/>
<path d="M167.023 233.358C167.023 232.219 167.506 231.251 168.472 230.453C169.438 229.655 170.598 229.256 171.951 229.256C172.828 229.256 173.542 229.431 174.093 229.781C174.644 230.131 174.919 230.609 174.919 231.216C174.919 231.505 174.849 231.778 174.709 232.035C174.569 232.292 174.345 232.539 174.037 232.777C173.729 233.015 173.286 233.206 172.707 233.351C172.128 233.496 171.442 233.573 170.649 233.582C170.789 234.189 171.237 234.492 171.993 234.492C172.824 234.492 173.584 234.184 174.275 233.568C174.536 233.708 174.667 233.965 174.667 234.338C174.667 234.991 174.303 235.512 173.575 235.899C172.847 236.286 171.96 236.48 170.915 236.48C169.739 236.48 168.796 236.212 168.087 235.675C167.378 235.138 167.023 234.366 167.023 233.358ZM171.825 232.182C172.18 231.902 172.357 231.561 172.357 231.16C172.357 230.983 172.313 230.845 172.224 230.747C172.135 230.649 172.012 230.6 171.853 230.6C171.536 230.6 171.256 230.81 171.013 231.23C170.77 231.65 170.63 232.14 170.593 232.7C171.05 232.644 171.461 232.471 171.825 232.182Z"/>
<path d="M177.957 234.842L178.811 228.78C178.886 228.276 178.923 227.875 178.923 227.576C178.923 227.296 178.89 227.109 178.825 227.016C179.105 226.829 179.716 226.633 180.659 226.428C181.602 226.223 182.624 226.12 183.725 226.12C185.125 226.12 186.212 226.339 186.987 226.778C187.762 227.217 188.149 227.805 188.149 228.542C188.149 229.709 187.332 230.539 185.699 231.034C187.155 231.314 187.883 232.009 187.883 233.12C187.883 234.203 187.353 235.057 186.294 235.682C185.235 236.307 183.814 236.62 182.031 236.62C181.555 236.62 181.093 236.594 180.645 236.543C180.197 236.492 179.749 236.405 179.301 236.284C178.853 236.163 178.515 235.988 178.286 235.759C178.057 235.53 177.943 235.276 177.943 234.996C177.943 234.949 177.948 234.898 177.957 234.842ZM183.109 230.6C183.352 230.563 183.62 230.49 183.914 230.383C184.208 230.276 184.434 230.115 184.593 229.9C184.752 229.685 184.831 229.424 184.831 229.116C184.831 228.472 184.341 228.15 183.361 228.15C183.156 228.15 182.899 228.164 182.591 228.192L182.227 230.712C182.572 230.684 182.866 230.647 183.109 230.6ZM182.465 234.59C183.006 234.59 183.431 234.462 183.739 234.205C184.047 233.948 184.201 233.591 184.201 233.134C184.201 232.49 183.762 232.168 182.885 232.168C182.512 232.168 182.227 232.173 182.031 232.182L181.695 234.52C181.994 234.567 182.25 234.59 182.465 234.59Z"/>
<path d="M188.611 234.254L188.947 231.874C189.012 231.398 189.045 231.02 189.045 230.74C189.045 230.46 189.012 230.278 188.947 230.194C189.283 229.942 189.722 229.727 190.263 229.55C190.804 229.373 191.285 229.284 191.705 229.284C192.396 229.284 192.741 229.555 192.741 230.096C192.741 230.161 192.736 230.236 192.727 230.32L192.251 233.722C192.242 233.787 192.237 233.848 192.237 233.904C192.237 234.193 192.358 234.338 192.601 234.338C192.741 234.338 192.904 234.277 193.091 234.156C193.212 234.268 193.273 234.417 193.273 234.604C193.273 235.117 192.977 235.54 192.384 235.871C191.791 236.202 191.14 236.368 190.431 236.368C189.703 236.368 189.211 236.216 188.954 235.913C188.697 235.61 188.569 235.229 188.569 234.772C188.569 234.613 188.583 234.441 188.611 234.254ZM189.437 227.562C189.437 227.151 189.659 226.799 190.102 226.505C190.545 226.211 191.075 226.064 191.691 226.064C192.167 226.064 192.545 226.16 192.825 226.351C193.105 226.542 193.245 226.797 193.245 227.114C193.245 227.525 193.023 227.877 192.58 228.171C192.137 228.465 191.607 228.612 190.991 228.612C190.515 228.612 190.137 228.516 189.857 228.325C189.577 228.134 189.437 227.879 189.437 227.562Z"/>
<path d="M193.777 234.8L194.183 231.958C194.248 231.501 194.281 231.132 194.281 230.852C194.281 230.563 194.244 230.371 194.169 230.278C194.514 230.017 194.953 229.8 195.485 229.627C196.017 229.454 196.498 229.368 196.927 229.368C197.618 229.368 197.963 229.639 197.963 230.18C197.963 230.245 197.958 230.32 197.949 230.404L197.851 231.118C198.504 229.914 199.223 229.312 200.007 229.312C200.315 229.312 200.555 229.41 200.728 229.606C200.901 229.802 200.987 230.073 200.987 230.418C200.987 230.829 200.894 231.2 200.707 231.531C200.52 231.862 200.287 232.093 200.007 232.224C199.699 232.019 199.34 231.916 198.929 231.916C198.332 231.916 197.898 232.21 197.627 232.798L197.375 234.506C197.328 234.823 197.305 235.108 197.305 235.36C197.305 235.603 197.328 235.813 197.375 235.99C196.992 236.242 196.4 236.368 195.597 236.368C194.86 236.368 194.367 236.263 194.12 236.053C193.873 235.843 193.749 235.547 193.749 235.164C193.749 235.052 193.758 234.931 193.777 234.8Z"/>
<path d="M202.373 226.792C202.849 226.456 203.4 226.288 204.025 226.288C204.856 226.288 205.271 226.675 205.271 227.45C205.271 228.225 204.926 228.981 204.235 229.718C203.544 230.455 202.886 230.824 202.261 230.824C202 230.824 201.799 230.74 201.659 230.572C201.92 230.18 202.133 229.716 202.296 229.179C202.459 228.642 202.541 228.145 202.541 227.688C202.541 227.324 202.485 227.025 202.373 226.792Z"/>
<path d="M205.131 234.254L205.467 231.874C205.532 231.398 205.565 231.02 205.565 230.74C205.565 230.46 205.532 230.278 205.467 230.194C205.803 229.942 206.242 229.727 206.783 229.55C207.324 229.373 207.805 229.284 208.225 229.284C208.916 229.284 209.261 229.555 209.261 230.096C209.261 230.161 209.256 230.236 209.247 230.32L208.771 233.722C208.762 233.787 208.757 233.848 208.757 233.904C208.757 234.193 208.878 234.338 209.121 234.338C209.261 234.338 209.424 234.277 209.611 234.156C209.732 234.268 209.793 234.417 209.793 234.604C209.793 235.117 209.497 235.54 208.904 235.871C208.311 236.202 207.66 236.368 206.951 236.368C206.223 236.368 205.731 236.216 205.474 235.913C205.217 235.61 205.089 235.229 205.089 234.772C205.089 234.613 205.103 234.441 205.131 234.254ZM205.957 227.562C205.957 227.151 206.179 226.799 206.622 226.505C207.065 226.211 207.595 226.064 208.211 226.064C208.687 226.064 209.065 226.16 209.345 226.351C209.625 226.542 209.765 226.797 209.765 227.114C209.765 227.525 209.543 227.877 209.1 228.171C208.657 228.465 208.127 228.612 207.511 228.612C207.035 228.612 206.657 228.516 206.377 228.325C206.097 228.134 205.957 227.879 205.957 227.562Z"/>
<path d="M210.297 234.8L210.703 231.874C210.768 231.407 210.801 231.029 210.801 230.74C210.801 230.469 210.768 230.287 210.703 230.194C211.039 229.942 211.475 229.727 212.012 229.55C212.549 229.373 213.027 229.284 213.447 229.284C214.147 229.284 214.497 229.555 214.497 230.096C214.497 230.171 214.492 230.245 214.483 230.32L214.413 230.782C214.758 230.325 215.202 229.956 215.743 229.676C216.284 229.396 216.83 229.256 217.381 229.256C218.034 229.256 218.545 229.415 218.914 229.732C219.283 230.049 219.467 230.497 219.467 231.076C219.467 231.393 219.392 231.89 219.243 232.567C219.094 233.244 219.019 233.671 219.019 233.848C219.019 234.184 219.159 234.352 219.439 234.352C219.616 234.352 219.78 234.287 219.929 234.156C220.05 234.259 220.111 234.413 220.111 234.618C220.111 235.066 219.831 235.47 219.271 235.829C218.711 236.188 218.011 236.368 217.171 236.368C215.92 236.368 215.295 235.841 215.295 234.786C215.295 234.441 215.374 233.913 215.533 233.204C215.692 232.495 215.771 232.061 215.771 231.902C215.771 231.603 215.645 231.454 215.393 231.454C215.15 231.454 214.894 231.58 214.623 231.832C214.352 232.084 214.198 232.327 214.161 232.56L213.895 234.506C213.848 234.823 213.825 235.108 213.825 235.36C213.825 235.603 213.848 235.813 213.895 235.99C213.512 236.242 212.92 236.368 212.117 236.368C211.37 236.368 210.876 236.263 210.633 236.053C210.39 235.843 210.269 235.542 210.269 235.15C210.269 235.038 210.278 234.921 210.297 234.8Z"/>
<path d="M221.917 230.446C222.822 229.653 223.998 229.256 225.445 229.256C226.453 229.256 227.23 229.438 227.776 229.802C228.322 230.166 228.595 230.591 228.595 231.076C228.595 231.543 228.341 231.9 227.832 232.147C227.323 232.394 226.775 232.518 226.187 232.518C226.075 232.518 225.968 232.513 225.865 232.504C225.865 232.429 225.865 232.355 225.865 232.28C225.865 231.253 225.618 230.74 225.123 230.74C224.806 230.74 224.556 230.938 224.374 231.335C224.192 231.732 224.101 232.177 224.101 232.672C224.101 233.82 224.633 234.394 225.697 234.394C226.425 234.394 227.125 234.123 227.797 233.582C228.105 233.759 228.259 234.025 228.259 234.38C228.259 234.94 227.921 235.43 227.244 235.85C226.567 236.27 225.674 236.48 224.563 236.48C223.322 236.48 222.342 236.214 221.623 235.682C220.904 235.15 220.545 234.389 220.545 233.4C220.545 232.233 221.002 231.249 221.917 230.446Z"/>
<path d="M229.099 234.254L229.435 231.874C229.5 231.398 229.533 231.02 229.533 230.74C229.533 230.46 229.5 230.278 229.435 230.194C229.771 229.942 230.21 229.727 230.751 229.55C231.292 229.373 231.773 229.284 232.193 229.284C232.884 229.284 233.229 229.555 233.229 230.096C233.229 230.161 233.224 230.236 233.215 230.32L232.739 233.722C232.73 233.787 232.725 233.848 232.725 233.904C232.725 234.193 232.846 234.338 233.089 234.338C233.229 234.338 233.392 234.277 233.579 234.156C233.7 234.268 233.761 234.417 233.761 234.604C233.761 235.117 233.465 235.54 232.872 235.871C232.279 236.202 231.628 236.368 230.919 236.368C230.191 236.368 229.699 236.216 229.442 235.913C229.185 235.61 229.057 235.229 229.057 234.772C229.057 234.613 229.071 234.441 229.099 234.254ZM229.925 227.562C229.925 227.151 230.147 226.799 230.59 226.505C231.033 226.211 231.563 226.064 232.179 226.064C232.655 226.064 233.033 226.16 233.313 226.351C233.593 226.542 233.733 226.797 233.733 227.114C233.733 227.525 233.511 227.877 233.068 228.171C232.625 228.465 232.095 228.612 231.479 228.612C231.003 228.612 230.625 228.516 230.345 228.325C230.065 228.134 229.925 227.879 229.925 227.562Z"/>
</g>
</g>
</svg>
