<?xml version="1.0" encoding="UTF-8" standalone="no"?>
<!DOCTYPE svg PUBLIC "-//W3C//DTD SVG 1.1//EN" "http://www.w3.org/Graphics/SVG/1.1/DTD/svg11.dtd">
<!-- Created with Vectornator (http://vectornator.io/) -->
<svg height="100%" stroke-miterlimit="10" style="fill-rule:nonzero;clip-rule:evenodd;stroke-linecap:round;stroke-linejoin:round;" version="1.1" viewBox="0 0 308.58 308.58" width="100%" xml:space="preserve" xmlns="http://www.w3.org/2000/svg" xmlns:xlink="http://www.w3.org/1999/xlink">
<defs/>
<g id="Katman-1">
<g opacity="1">
<g opacity="1">
<path d="M279.58 85.4682C280.176 84.6771 279.872 83.5332 278.959 83.1316C276.201 81.9309 273.961 80.0974 272.241 77.631C271.864 77.0956 272.095 76.3532 272.704 76.122C278.066 74.1019 283.137 74.6617 287.916 77.8014C290.739 79.6512 293.043 81.6469 294.828 83.7888C297.002 86.393 298.56 88.9608 299.501 91.4921C300.799 94.9644 300.791 98.7856 299.477 102.956C299.367 103.284 298.99 103.418 298.698 103.248C295.136 101.114 292.767 98.6315 291.591 95.8001C291.274 95.0334 290.35 94.7413 289.656 95.1672C286.776 96.9115 283.746 97.4876 280.565 96.8953C278.204 96.4572 277.085 94.9806 277.207 92.4656C277.336 89.7234 278.127 87.3909 279.58 85.4682Z" fill="#f5060b" fill-rule="nonzero" opacity="1" stroke="none"/>
<path d="M262.238 105.864C263.812 101.581 266.124 97.7756 269.175 94.4492C269.418 94.1693 269.369 93.7556 269.077 93.6947C268.647 93.5974 268.132 93.8245 267.532 94.3762C264.027 97.6295 262.076 101.24 261.678 105.207C261.127 105.166 260.822 104.777 260.766 104.039C259.962 94.2789 263.053 86.2997 270.039 80.1014C270.319 79.858 270.72 79.7972 271.037 79.9676C273.365 81.1602 275.385 82.7422 277.097 84.7137C277.34 84.9936 277.401 85.383 277.255 85.7237C275.771 89.1231 275.608 92.5792 276.768 96.0921C276.89 96.4694 277.146 96.7979 277.474 97.017C280.509 99.0534 284.074 99.1629 288.171 97.3456C288.731 97.1022 289.388 97.2117 289.826 97.6498L295.619 103.442C296.081 103.917 296.142 104.647 295.753 105.195C292.224 110.095 287.327 113.113 281.064 114.249C276.708 115.036 272.314 115.389 267.885 115.308C267.56 115.3 267.288 115.243 267.069 115.137C266.38 114.829 266.368 114.505 267.033 114.164C267.211 114.066 267.459 113.989 267.775 113.933C273.114 113.024 277.499 110.472 280.93 106.278C282.123 104.818 281.912 104.513 280.298 105.365C280.07 105.487 279.855 105.653 279.653 105.864C276.18 109.507 271.913 111.616 266.85 112.192C266.461 112.233 266.088 112.367 265.731 112.594C263.913 113.722 263.443 113.04 264.319 110.549C265.179 108.107 266.911 105.203 269.515 101.836C270.051 101.13 269.974 100.745 269.284 100.68C268.931 100.644 268.542 100.79 268.213 101.082C265.731 103.28 263.99 105.97 262.993 109.15C262.863 109.564 262.729 109.572 262.591 109.174C262.226 108.128 262.108 107.024 262.238 105.864Z" fill="#f5060b" fill-rule="nonzero" opacity="1" stroke="none"/>
<g opacity="1">
<path d="M7.85989 204.065L15.6679 148.897C16.2652 144.715 16.5639 141.345 16.5639 138.785C16.5639 136.139 16.2226 134.39 15.5399 133.537C18.6972 131.233 22.7292 129.27 27.6359 127.649C32.5426 126.027 36.9586 125.217 40.8839 125.217C44.8946 125.217 47.6679 125.921 49.2039 127.329C50.7399 128.737 51.5079 130.593 51.5079 132.897C51.5079 133.494 51.4652 134.091 51.3799 134.689L42.0359 201.377C41.6092 204.278 41.3959 206.881 41.3959 209.185C41.3959 211.403 41.6092 213.323 42.0359 214.945C38.4519 217.249 32.9479 218.401 25.5239 218.401C18.4412 218.401 13.6839 217.441 11.2519 215.521C8.81989 213.601 7.60389 210.849 7.60389 207.265C7.60389 206.241 7.68923 205.174 7.85989 204.065Z" fill="#fc3500" fill-rule="nonzero" opacity="1" stroke="none"/>
<path d="M55.4759 207.265L63.4119 150.945C64.2652 144.63 64.6919 139.851 64.6919 136.609C64.6919 134.049 64.4359 132.385 63.9239 131.617C65.4599 130.081 68.1266 128.63 71.9239 127.265C75.7212 125.899 79.3266 125.217 82.7399 125.217C87.1772 125.217 90.6759 126.027 93.2359 127.649C95.7959 129.27 98.4412 132.171 101.172 136.353L122.548 169.377L125.876 145.697C126.388 142.113 126.644 139.041 126.644 136.481C126.644 133.75 126.345 131.659 125.748 130.209C127.455 129.014 129.951 127.883 133.236 126.817C136.521 125.75 139.572 125.217 142.388 125.217C146.228 125.217 148.703 125.835 149.812 127.073C150.921 128.31 151.476 130.038 151.476 132.257C151.476 133.11 151.391 134.091 151.22 135.201L142.9 194.081C142.388 197.921 142.068 200.801 141.94 202.721C141.812 204.641 141.748 206.241 141.748 207.521C141.748 208.459 141.791 209.654 141.876 211.105C141.961 212.555 142.004 213.323 142.004 213.409C140.553 214.859 138.121 216.054 134.708 216.993C131.295 217.931 128.009 218.401 124.852 218.401C121.012 218.401 117.897 217.761 115.508 216.481C113.119 215.201 110.9 212.982 108.852 209.825L84.4039 171.809L80.0519 202.401C79.7106 204.961 79.5399 207.35 79.5399 209.569C79.5399 211.446 79.6679 213.238 79.9239 214.945C78.8146 215.883 76.9586 216.694 74.3559 217.377C71.7532 218.059 69.3426 218.401 67.1239 218.401C62.2599 218.401 59.0599 217.697 57.5239 216.289C55.9879 214.881 55.2199 212.854 55.2199 210.209C55.2199 209.27 55.3052 208.289 55.4759 207.265Z" fill="#fc3500" fill-rule="nonzero" opacity="1" stroke="none"/>
<path d="M156.468 178.081C156.468 162.294 161.865 149.281 172.66 139.041C183.455 128.801 196.916 123.681 213.044 123.681C223.369 123.681 231.796 125.75 238.324 129.889C244.852 134.027 248.116 139.083 248.116 145.057C248.116 150.177 245.791 154.486 241.14 157.985C236.489 161.483 230.836 163.233 224.18 163.233C224.009 163.233 223.839 163.233 223.668 163.233C223.497 155.553 222.025 150.219 219.252 147.233C216.479 144.246 213.257 142.753 209.588 142.753C203.871 142.753 199.156 145.547 195.444 151.137C191.732 156.726 189.876 163.659 189.876 171.937C189.876 179.617 191.647 185.505 195.188 189.601C198.729 193.697 203.828 195.745 210.484 195.745C215.86 195.745 220.831 194.507 225.396 192.033C229.961 189.558 233.439 186.443 235.828 182.689C240.265 184.225 242.484 188.022 242.484 194.081C242.484 201.334 238.836 207.414 231.54 212.321C224.244 217.227 214.495 219.681 202.292 219.681C187.956 219.681 176.735 216.054 168.628 208.801C160.521 201.547 156.468 191.307 156.468 178.081Z" fill="#fc3500" fill-rule="nonzero" opacity="1" stroke="none"/>
<path d="M251.444 204.065L259.252 148.897C259.849 144.715 260.148 141.345 260.148 138.785C260.148 136.139 259.807 134.39 259.124 133.537C262.281 131.233 266.313 129.27 271.22 127.649C276.127 126.027 280.543 125.217 284.468 125.217C288.479 125.217 291.252 125.921 292.788 127.329C294.324 128.737 295.092 130.593 295.092 132.897C295.092 133.494 295.049 134.091 294.964 134.689L285.62 201.377C285.193 204.278 284.98 206.881 284.98 209.185C284.98 211.403 285.193 213.323 285.62 214.945C282.036 217.249 276.532 218.401 269.108 218.401C262.025 218.401 257.268 217.441 254.836 215.521C252.404 213.601 251.188 210.849 251.188 207.265C251.188 206.241 251.273 205.174 251.444 204.065Z" fill="#fc3500" fill-rule="nonzero" opacity="1" stroke="none"/>
</g>
<path d="M44.2517 62.2684C46.5078 65.9411 46.534 69.6063 44.3304 73.264C43.1311 75.2577 40.7439 77.3714 37.1687 79.605C33.1587 82.1084 29.1375 84.6005 25.1051 87.0815C18.2169 91.3163 15.4249 97.7922 16.7291 106.509C16.954 108.023 16.508 108.259 15.3912 107.217C12.5355 104.549 10.5455 101.322 9.42123 97.5373C8.49182 94.3893 8.44685 91.3688 9.28632 88.4756C9.99837 86.0321 11.5686 83.6149 13.9971 81.2239C16.2082 79.0428 18.6741 77.1802 21.3949 75.6362C24.1007 74.0922 25.7946 72.9529 26.4767 72.2184C27.9233 70.6818 28.9464 68.8418 29.546 66.6981C30.1381 64.5845 29.1075 63.2728 26.4542 62.7631L20.889 61.6838C20.5142 61.6163 20.4692 61.4552 20.7541 61.2004C22.9352 59.3041 25.3636 57.8125 28.0394 56.7257C31.4648 55.3316 34.6503 55.2229 37.5959 56.3996C40.2942 57.479 42.5128 59.4352 44.2517 62.2684Z" fill="#fc3500" fill-rule="nonzero" opacity="1" stroke="none"/>
<path d="M35.2349 99.3025C37.9557 104.182 40.0056 109.372 41.3847 114.874C41.5421 115.503 41.0587 116.099 40.4179 116.088C37.6821 116.036 34.8002 115.62 31.7721 114.84C24.839 113.049 20.443 108.9 18.5842 102.394C18.112 100.723 18.3556 98.7928 19.315 96.6042C21.0988 92.5792 23.9246 89.5062 27.7921 87.385C31.8395 85.1664 35.8982 82.9666 39.9681 80.7855C43.8732 78.6943 46.4928 75.1265 47.8269 70.0822C48.3591 68.096 49.0824 68.021 49.9968 69.8574C50.7313 71.3414 51.0162 73.159 50.8513 75.3102C50.7838 76.1309 51.1661 76.9179 51.8519 77.3789C54.9399 79.4476 56.8512 82.217 57.5857 85.6874C57.9155 87.2539 57.8031 88.4756 57.2485 89.3525C56.5814 90.4244 55.3896 91.1289 53.6732 91.4662C52.3466 91.7285 52.2716 92.1932 53.4484 92.8603C56.0417 94.3219 57.6082 96.3981 58.1479 99.0889C58.3428 100.086 57.9905 100.344 57.0911 99.8646C50.0905 96.147 42.8875 95.7272 35.4822 98.6054C35.2012 98.7066 35.0887 99.0439 35.2349 99.3025ZM53.3697 82.9216C53.3697 82.1346 52.7401 81.505 51.9531 81.505C51.1661 81.505 50.5365 82.1346 50.5365 82.9216C50.5365 83.7086 51.1661 84.3382 51.9531 84.3382C52.7401 84.3382 53.3697 83.7086 53.3697 82.9216Z" fill="#fc3500" fill-rule="nonzero" opacity="1" stroke="none"/>
<path d="M46.5679 115.239C45.1813 115.291 44.3568 114.624 44.0945 113.238C43.4948 110.052 42.5617 107.241 41.295 104.805C41.1676 104.558 40.7778 103.992 40.1257 103.108C38.9939 101.579 39.8484 101.02 42.6891 101.432C45.1026 101.785 46.5791 102.276 47.1188 102.905C49.952 106.233 51.8783 110.052 52.8976 114.362C52.9763 114.722 52.7178 115.081 52.3467 115.115C51.2225 115.22 50.2256 115.242 49.3561 115.183C49.0039 115.16 48.0744 115.179 46.5679 115.239Z" fill="#fc3500" fill-rule="nonzero" opacity="1" stroke="none"/>
</g>
<g fill="#fc3500" opacity="1" stroke="none">
<path d="M80.1422 240.157L81.2402 232.399C81.3242 231.811 81.3662 231.337 81.3662 230.977C81.3662 230.605 81.3182 230.359 81.2222 230.239C81.6662 229.915 82.2332 229.639 82.9232 229.411C83.6132 229.183 84.2342 229.069 84.7862 229.069C85.3502 229.069 85.7402 229.168 85.9562 229.366C86.1722 229.564 86.2802 229.825 86.2802 230.149C86.2802 230.233 86.2742 230.317 86.2622 230.401L85.6142 235.063C86.7542 234.463 87.8192 233.596 88.8092 232.462C89.7992 231.328 90.3782 230.239 90.5462 229.195C90.7862 229.171 91.0142 229.159 91.2302 229.159C91.8662 229.159 92.4452 229.297 92.9672 229.573C93.4892 229.849 93.7502 230.263 93.7502 230.815C93.7502 231.415 93.3962 232.078 92.6882 232.804C91.9802 233.53 91.0862 234.199 90.0062 234.811L91.8242 238.375C92.2082 239.155 92.7422 239.593 93.4262 239.689C93.2222 240.313 92.7872 240.883 92.1212 241.399C91.4552 241.915 90.6962 242.173 89.8442 242.173C89.3402 242.173 88.9352 242.089 88.6292 241.921C88.3232 241.753 88.0682 241.453 87.8642 241.021L86.1362 237.277C85.8242 237.409 85.5302 237.529 85.2542 237.637L84.9482 239.779C84.8882 240.187 84.8582 240.553 84.8582 240.877C84.8582 241.189 84.8882 241.459 84.9482 241.687C84.4442 242.011 83.6702 242.173 82.6262 242.173C81.6062 242.173 80.9312 242.038 80.6012 241.768C80.2712 241.498 80.1062 241.117 80.1062 240.625C80.1062 240.481 80.1182 240.325 80.1422 240.157Z"/>
<path d="M94.0382 239.041L94.4342 236.251C94.5182 235.651 94.5602 235.165 94.5602 234.793C94.5602 234.445 94.5182 234.211 94.4342 234.091C94.8662 233.767 95.4302 233.491 96.1262 233.263C96.8222 233.035 97.4402 232.921 97.9802 232.921C98.8682 232.921 99.3122 233.269 99.3122 233.965C99.3122 234.049 99.3062 234.145 99.2942 234.253L98.6642 238.771C98.6522 238.831 98.6462 238.885 98.6462 238.933C98.6462 239.089 98.6972 239.227 98.7992 239.347C98.9012 239.467 99.0542 239.527 99.2582 239.527C99.5822 239.527 99.8762 239.374 100.14 239.068C100.404 238.762 100.554 238.447 100.59 238.123L100.86 236.251C100.944 235.651 100.986 235.165 100.986 234.793C100.986 234.445 100.944 234.211 100.86 234.091C101.292 233.767 101.856 233.491 102.552 233.263C103.248 233.035 103.866 232.921 104.406 232.921C105.294 232.921 105.738 233.269 105.738 233.965C105.738 234.049 105.732 234.145 105.72 234.253L105.108 238.627C105.096 238.711 105.09 238.789 105.09 238.861C105.09 239.233 105.246 239.419 105.558 239.419C105.738 239.419 105.948 239.341 106.188 239.185C106.344 239.329 106.422 239.527 106.422 239.779C106.422 240.415 106.032 240.949 105.252 241.381C104.472 241.813 103.626 242.029 102.714 242.029C101.97 242.029 101.406 241.867 101.022 241.543C100.638 241.219 100.446 240.781 100.446 240.229C99.5942 241.525 98.3882 242.173 96.8282 242.173C95.8082 242.173 95.0792 241.93 94.6412 241.444C94.2032 240.958 93.9842 240.373 93.9842 239.689C93.9842 239.485 94.0022 239.269 94.0382 239.041Z"/>
<path d="M107.07 240.013L107.592 236.359C107.676 235.771 107.718 235.297 107.718 234.937C107.718 234.565 107.67 234.319 107.574 234.199C108.018 233.863 108.582 233.584 109.266 233.362C109.95 233.14 110.568 233.029 111.12 233.029C112.008 233.029 112.452 233.377 112.452 234.073C112.452 234.157 112.446 234.253 112.434 234.361L112.308 235.279C113.148 233.731 114.072 232.957 115.08 232.957C115.476 232.957 115.785 233.083 116.007 233.335C116.229 233.587 116.34 233.935 116.34 234.379C116.34 234.907 116.22 235.384 115.98 235.81C115.74 236.236 115.44 236.533 115.08 236.701C114.684 236.437 114.222 236.305 113.694 236.305C112.926 236.305 112.368 236.683 112.02 237.439L111.696 239.635C111.636 240.043 111.606 240.409 111.606 240.733C111.606 241.045 111.636 241.315 111.696 241.543C111.204 241.867 110.442 242.029 109.41 242.029C108.462 242.029 107.829 241.894 107.511 241.624C107.193 241.354 107.034 240.973 107.034 240.481C107.034 240.337 107.046 240.181 107.07 240.013Z"/>
<path d="M116.556 239.041L116.952 236.251C117.036 235.651 117.078 235.165 117.078 234.793C117.078 234.445 117.036 234.211 116.952 234.091C117.384 233.767 117.948 233.491 118.644 233.263C119.34 233.035 119.958 232.921 120.498 232.921C121.386 232.921 121.83 233.269 121.83 233.965C121.83 234.049 121.824 234.145 121.812 234.253L121.182 238.771C121.17 238.831 121.164 238.885 121.164 238.933C121.164 239.089 121.215 239.227 121.317 239.347C121.419 239.467 121.572 239.527 121.776 239.527C122.1 239.527 122.394 239.374 122.658 239.068C122.922 238.762 123.072 238.447 123.108 238.123L123.378 236.251C123.462 235.651 123.504 235.165 123.504 234.793C123.504 234.445 123.462 234.211 123.378 234.091C123.81 233.767 124.374 233.491 125.07 233.263C125.766 233.035 126.384 232.921 126.924 232.921C127.812 232.921 128.256 233.269 128.256 233.965C128.256 234.049 128.25 234.145 128.238 234.253L127.626 238.627C127.614 238.711 127.608 238.789 127.608 238.861C127.608 239.233 127.764 239.419 128.076 239.419C128.256 239.419 128.466 239.341 128.706 239.185C128.862 239.329 128.94 239.527 128.94 239.779C128.94 240.415 128.55 240.949 127.77 241.381C126.99 241.813 126.144 242.029 125.232 242.029C124.488 242.029 123.924 241.867 123.54 241.543C123.156 241.219 122.964 240.781 122.964 240.229C122.112 241.525 120.906 242.173 119.346 242.173C118.326 242.173 117.597 241.93 117.159 241.444C116.721 240.958 116.502 240.373 116.502 239.689C116.502 239.485 116.52 239.269 116.556 239.041Z"/>
<path d="M129.624 239.041L130.02 236.251C130.104 235.651 130.146 235.165 130.146 234.793C130.146 234.445 130.104 234.211 130.02 234.091C130.452 233.767 131.007 233.491 131.685 233.263C132.363 233.035 132.972 232.921 133.512 232.921C134.4 232.921 134.844 233.269 134.844 233.965C134.844 234.049 134.838 234.145 134.826 234.253L134.196 238.771C134.184 238.831 134.178 238.885 134.178 238.933C134.178 239.089 134.226 239.227 134.322 239.347C134.418 239.467 134.574 239.527 134.79 239.527C135.126 239.527 135.42 239.374 135.672 239.068C135.924 238.762 136.074 238.447 136.122 238.123L136.392 236.251C136.476 235.651 136.518 235.165 136.518 234.793C136.518 234.445 136.476 234.211 136.392 234.091C136.824 233.767 137.379 233.491 138.057 233.263C138.735 233.035 139.344 232.921 139.884 232.921C140.772 232.921 141.216 233.269 141.216 233.965C141.216 234.049 141.21 234.145 141.198 234.253L140.19 241.489C139.998 242.869 139.218 243.964 137.85 244.774C136.482 245.584 134.922 245.989 133.17 245.989C132.162 245.989 131.346 245.848 130.722 245.566C130.098 245.284 129.786 244.873 129.786 244.333C129.786 243.961 129.924 243.625 130.2 243.325C130.476 243.025 130.782 242.857 131.118 242.821C131.73 243.469 132.468 243.793 133.332 243.793C133.632 243.793 133.902 243.757 134.142 243.685C134.382 243.613 134.583 243.529 134.745 243.433C134.907 243.337 135.054 243.19 135.186 242.992C135.318 242.794 135.42 242.629 135.492 242.497C135.564 242.365 135.633 242.158 135.699 241.876C135.765 241.594 135.807 241.393 135.825 241.273C135.843 241.153 135.876 240.943 135.924 240.643L135.978 240.283L135.834 240.283C135.03 241.543 133.872 242.173 132.36 242.173C131.34 242.173 130.62 241.933 130.2 241.453C129.78 240.973 129.57 240.391 129.57 239.707C129.57 239.503 129.588 239.281 129.624 239.041Z"/>
<path d="M141.774 238.159C141.774 236.695 142.395 235.45 143.637 234.424C144.879 233.398 146.37 232.885 148.11 232.885C149.238 232.885 150.156 233.11 150.864 233.56C151.572 234.01 151.926 234.625 151.926 235.405C151.926 235.777 151.836 236.128 151.656 236.458C151.476 236.788 151.188 237.106 150.792 237.412C150.396 237.718 149.826 237.964 149.082 238.15C148.338 238.336 147.456 238.435 146.436 238.447C146.616 239.227 147.192 239.617 148.164 239.617C149.232 239.617 150.21 239.221 151.098 238.429C151.434 238.609 151.602 238.939 151.602 239.419C151.602 240.259 151.134 240.928 150.198 241.426C149.262 241.924 148.122 242.173 146.778 242.173C145.266 242.173 144.054 241.828 143.142 241.138C142.23 240.448 141.774 239.455 141.774 238.159ZM147.948 236.647C148.404 236.287 148.632 235.849 148.632 235.333C148.632 235.105 148.575 234.928 148.461 234.802C148.347 234.676 148.188 234.613 147.984 234.613C147.576 234.613 147.216 234.883 146.904 235.423C146.592 235.963 146.412 236.593 146.364 237.313C146.952 237.241 147.48 237.019 147.948 236.647Z"/>
<path d="M152.592 240.013L153.114 236.251C153.198 235.651 153.246 235.165 153.258 234.793C153.246 234.445 153.198 234.211 153.114 234.091C153.546 233.767 154.107 233.491 154.797 233.263C155.487 233.035 156.102 232.921 156.642 232.921C157.542 232.921 157.992 233.269 157.992 233.965C157.992 234.061 157.986 234.157 157.974 234.253L157.884 234.847C158.34 234.247 158.898 233.77 159.558 233.416C160.218 233.062 160.902 232.885 161.61 232.885C162.306 232.885 162.876 233.053 163.32 233.389C163.764 233.725 164.028 234.205 164.112 234.829C164.58 234.241 165.153 233.77 165.831 233.416C166.509 233.062 167.214 232.885 167.946 232.885C168.762 232.885 169.404 233.092 169.872 233.506C170.34 233.92 170.574 234.493 170.574 235.225C170.574 235.633 170.478 236.272 170.286 237.142C170.094 238.012 169.998 238.561 169.998 238.789C169.998 239.221 170.178 239.437 170.538 239.437C170.766 239.437 170.976 239.353 171.168 239.185C171.324 239.317 171.402 239.515 171.402 239.779C171.402 240.367 171.054 240.889 170.358 241.345C169.662 241.801 168.75 242.029 167.622 242.029C166.014 242.029 165.21 241.351 165.21 239.995C165.21 239.551 165.312 238.873 165.516 237.961C165.72 237.049 165.822 236.491 165.822 236.287C165.822 235.903 165.66 235.711 165.336 235.711C165.012 235.711 164.715 235.855 164.445 236.143C164.175 236.431 164.004 236.737 163.932 237.061L163.572 239.635C163.524 240.043 163.5 240.403 163.5 240.715C163.5 241.039 163.524 241.315 163.572 241.543C163.08 241.867 162.342 242.029 161.358 242.029C160.386 242.029 159.744 241.897 159.432 241.633C159.12 241.369 158.964 240.991 158.964 240.499C158.964 240.343 158.976 240.181 159 240.013L159.504 236.467C159.516 236.395 159.522 236.329 159.522 236.269C159.522 235.897 159.372 235.711 159.072 235.711C158.748 235.711 158.427 235.873 158.109 236.197C157.791 236.521 157.608 236.833 157.56 237.133L157.218 239.635C157.158 240.043 157.128 240.409 157.128 240.733C157.128 241.045 157.158 241.315 157.218 241.543C156.726 241.867 155.964 242.029 154.932 242.029C153.984 242.029 153.351 241.891 153.033 241.615C152.715 241.339 152.556 240.949 152.556 240.445C152.556 240.313 152.568 240.169 152.592 240.013Z"/>
<path d="M172.194 239.311L172.626 236.251C172.71 235.639 172.752 235.153 172.752 234.793C172.752 234.433 172.71 234.199 172.626 234.091C173.058 233.767 173.622 233.491 174.318 233.263C175.014 233.035 175.632 232.921 176.172 232.921C177.06 232.921 177.504 233.269 177.504 233.965C177.504 234.049 177.498 234.145 177.486 234.253L176.874 238.627C176.862 238.711 176.856 238.789 176.856 238.861C176.856 239.233 177.012 239.419 177.324 239.419C177.504 239.419 177.714 239.341 177.954 239.185C178.11 239.329 178.188 239.521 178.188 239.761C178.188 240.421 177.807 240.964 177.045 241.39C176.283 241.816 175.446 242.029 174.534 242.029C173.598 242.029 172.965 241.834 172.635 241.444C172.305 241.054 172.14 240.565 172.14 239.977C172.14 239.773 172.158 239.551 172.194 239.311ZM173.256 230.707C173.256 230.179 173.541 229.726 174.111 229.348C174.681 228.97 175.362 228.781 176.154 228.781C176.766 228.781 177.252 228.904 177.612 229.15C177.972 229.396 178.152 229.723 178.152 230.131C178.152 230.659 177.867 231.112 177.297 231.49C176.727 231.868 176.046 232.057 175.254 232.057C174.642 232.057 174.156 231.934 173.796 231.688C173.436 231.442 173.256 231.115 173.256 230.707Z"/>
<path d="M178.62 240.445C178.62 240.013 178.785 239.653 179.115 239.365C179.445 239.077 179.796 238.915 180.168 238.879C180.468 239.323 180.87 239.644 181.374 239.842C181.878 240.04 182.358 240.139 182.814 240.139C183.15 240.139 183.414 240.082 183.606 239.968C183.798 239.854 183.894 239.695 183.894 239.491C183.894 239.371 183.861 239.266 183.795 239.176C183.729 239.086 183.612 239.008 183.444 238.942C183.276 238.876 183.126 238.828 182.994 238.798C182.862 238.768 182.658 238.726 182.382 238.672C182.106 238.618 181.902 238.573 181.77 238.537C180.27 238.189 179.52 237.439 179.52 236.287C179.52 235.291 180.006 234.451 180.978 233.767C181.95 233.083 183.27 232.741 184.938 232.741C186.078 232.741 186.987 232.9 187.665 233.218C188.343 233.536 188.682 233.947 188.682 234.451C188.682 234.763 188.562 235.051 188.322 235.315C188.082 235.579 187.77 235.747 187.386 235.819C186.57 235.171 185.826 234.847 185.154 234.847C184.854 234.847 184.605 234.916 184.407 235.054C184.209 235.192 184.11 235.363 184.11 235.567C184.11 235.687 184.14 235.786 184.2 235.864C184.26 235.942 184.374 236.011 184.542 236.071C184.71 236.131 184.842 236.173 184.938 236.197C185.034 236.221 185.226 236.263 185.514 236.323C185.97 236.419 186.336 236.512 186.612 236.602C186.888 236.692 187.185 236.824 187.503 236.998C187.821 237.172 188.058 237.403 188.214 237.691C188.37 237.979 188.448 238.327 188.448 238.735C188.448 239.635 188.043 240.394 187.233 241.012C186.423 241.63 185.286 242.017 183.822 242.173L183.534 242.767C184.914 242.767 185.604 243.253 185.604 244.225C185.604 244.861 185.337 245.389 184.803 245.809C184.269 246.229 183.546 246.439 182.634 246.439C181.938 246.439 181.419 246.322 181.077 246.088C180.735 245.854 180.564 245.563 180.564 245.215C180.564 244.963 180.636 244.735 180.78 244.531C181.332 244.759 181.878 244.873 182.418 244.873C182.826 244.873 183.147 244.798 183.381 244.648C183.615 244.498 183.732 244.291 183.732 244.027C183.732 243.631 183.102 243.427 181.842 243.415L182.436 242.245C181.248 242.233 180.315 242.077 179.637 241.777C178.959 241.477 178.62 241.033 178.62 240.445Z"/>
<path d="M189.294 235.009C189.294 234.421 189.435 233.974 189.717 233.668C189.999 233.362 190.362 233.209 190.806 233.209L190.896 233.209C190.98 232.609 191.028 232.129 191.04 231.769C191.028 231.421 190.98 231.187 190.896 231.067C191.328 230.743 191.883 230.467 192.561 230.239C193.239 230.011 193.848 229.897 194.388 229.897C195.288 229.897 195.738 230.245 195.738 230.941C195.738 231.037 195.732 231.133 195.72 231.229L195.45 233.209L198.276 233.209C198.336 233.413 198.366 233.611 198.366 233.803C198.366 234.319 198.237 234.73 197.979 235.036C197.721 235.342 197.376 235.495 196.944 235.495L195.126 235.495L194.784 237.889C194.76 238.045 194.748 238.195 194.748 238.339C194.748 238.663 194.823 238.921 194.973 239.113C195.123 239.305 195.402 239.401 195.81 239.401C196.422 239.401 196.932 239.197 197.34 238.789C197.628 238.921 197.772 239.191 197.772 239.599C197.772 240.367 197.376 240.988 196.584 241.462C195.792 241.936 194.802 242.173 193.614 242.173C192.354 242.173 191.448 241.915 190.896 241.399C190.344 240.883 190.068 240.241 190.068 239.473C190.068 239.293 190.08 239.107 190.104 238.915L190.572 235.495L189.366 235.495C189.318 235.315 189.294 235.153 189.294 235.009Z"/>
<path d="M198.402 238.159C198.402 236.695 199.023 235.45 200.265 234.424C201.507 233.398 202.998 232.885 204.738 232.885C205.866 232.885 206.784 233.11 207.492 233.56C208.2 234.01 208.554 234.625 208.554 235.405C208.554 235.777 208.464 236.128 208.284 236.458C208.104 236.788 207.816 237.106 207.42 237.412C207.024 237.718 206.454 237.964 205.71 238.15C204.966 238.336 204.084 238.435 203.064 238.447C203.244 239.227 203.82 239.617 204.792 239.617C205.86 239.617 206.838 239.221 207.726 238.429C208.062 238.609 208.23 238.939 208.23 239.419C208.23 240.259 207.762 240.928 206.826 241.426C205.89 241.924 204.75 242.173 203.406 242.173C201.894 242.173 200.682 241.828 199.77 241.138C198.858 240.448 198.402 239.455 198.402 238.159ZM204.576 236.647C205.032 236.287 205.26 235.849 205.26 235.333C205.26 235.105 205.203 234.928 205.089 234.802C204.975 234.676 204.816 234.613 204.612 234.613C204.204 234.613 203.844 234.883 203.532 235.423C203.22 235.963 203.04 236.593 202.992 237.313C203.58 237.241 204.108 237.019 204.576 236.647Z"/>
<path d="M212.46 240.067L213.558 232.273C213.654 231.625 213.702 231.109 213.702 230.725C213.702 230.365 213.66 230.125 213.576 230.005C213.936 229.765 214.722 229.513 215.934 229.249C217.146 228.985 218.46 228.853 219.876 228.853C221.676 228.853 223.074 229.135 224.07 229.699C225.066 230.263 225.564 231.019 225.564 231.967C225.564 233.467 224.514 234.535 222.414 235.171C224.286 235.531 225.222 236.425 225.222 237.853C225.222 239.245 224.541 240.343 223.179 241.147C221.817 241.951 219.99 242.353 217.698 242.353C217.086 242.353 216.492 242.32 215.916 242.254C215.34 242.188 214.764 242.077 214.188 241.921C213.612 241.765 213.177 241.54 212.883 241.246C212.589 240.952 212.442 240.625 212.442 240.265C212.442 240.205 212.448 240.139 212.46 240.067ZM219.084 234.613C219.396 234.565 219.741 234.472 220.119 234.334C220.497 234.196 220.788 233.989 220.992 233.713C221.196 233.437 221.298 233.101 221.298 232.705C221.298 231.877 220.668 231.463 219.408 231.463C219.144 231.463 218.814 231.481 218.418 231.517L217.95 234.757C218.394 234.721 218.772 234.673 219.084 234.613ZM218.256 239.743C218.952 239.743 219.498 239.578 219.894 239.248C220.29 238.918 220.488 238.459 220.488 237.871C220.488 237.043 219.924 236.629 218.796 236.629C218.316 236.629 217.95 236.635 217.698 236.647L217.266 239.653C217.65 239.713 217.98 239.743 218.256 239.743Z"/>
<path d="M226.158 239.311L226.59 236.251C226.674 235.639 226.716 235.153 226.716 234.793C226.716 234.433 226.674 234.199 226.59 234.091C227.022 233.767 227.586 233.491 228.282 233.263C228.978 233.035 229.596 232.921 230.136 232.921C231.024 232.921 231.468 233.269 231.468 233.965C231.468 234.049 231.462 234.145 231.45 234.253L230.838 238.627C230.826 238.711 230.82 238.789 230.82 238.861C230.82 239.233 230.976 239.419 231.288 239.419C231.468 239.419 231.678 239.341 231.918 239.185C232.074 239.329 232.152 239.521 232.152 239.761C232.152 240.421 231.771 240.964 231.009 241.39C230.247 241.816 229.41 242.029 228.498 242.029C227.562 242.029 226.929 241.834 226.599 241.444C226.269 241.054 226.104 240.565 226.104 239.977C226.104 239.773 226.122 239.551 226.158 239.311ZM227.22 230.707C227.22 230.179 227.505 229.726 228.075 229.348C228.645 228.97 229.326 228.781 230.118 228.781C230.73 228.781 231.216 228.904 231.576 229.15C231.936 229.396 232.116 229.723 232.116 230.131C232.116 230.659 231.831 231.112 231.261 231.49C230.691 231.868 230.01 232.057 229.218 232.057C228.606 232.057 228.12 231.934 227.76 231.688C227.4 231.442 227.22 231.115 227.22 230.707Z"/>
<path d="M232.8 240.013L233.322 236.359C233.406 235.771 233.448 235.297 233.448 234.937C233.448 234.565 233.4 234.319 233.304 234.199C233.748 233.863 234.312 233.584 234.996 233.362C235.68 233.14 236.298 233.029 236.85 233.029C237.738 233.029 238.182 233.377 238.182 234.073C238.182 234.157 238.176 234.253 238.164 234.361L238.038 235.279C238.878 233.731 239.802 232.957 240.81 232.957C241.206 232.957 241.515 233.083 241.737 233.335C241.959 233.587 242.07 233.935 242.07 234.379C242.07 234.907 241.95 235.384 241.71 235.81C241.47 236.236 241.17 236.533 240.81 236.701C240.414 236.437 239.952 236.305 239.424 236.305C238.656 236.305 238.098 236.683 237.75 237.439L237.426 239.635C237.366 240.043 237.336 240.409 237.336 240.733C237.336 241.045 237.366 241.315 237.426 241.543C236.934 241.867 236.172 242.029 235.14 242.029C234.192 242.029 233.559 241.894 233.241 241.624C232.923 241.354 232.764 240.973 232.764 240.481C232.764 240.337 232.776 240.181 232.8 240.013Z"/>
<path d="M243.852 229.717C244.464 229.285 245.172 229.069 245.976 229.069C247.044 229.069 247.578 229.567 247.578 230.563C247.578 231.559 247.134 232.531 246.246 233.479C245.358 234.427 244.512 234.901 243.708 234.901C243.372 234.901 243.114 234.793 242.934 234.577C243.27 234.073 243.543 233.476 243.753 232.786C243.963 232.096 244.068 231.457 244.068 230.869C244.068 230.401 243.996 230.017 243.852 229.717Z"/>
<path d="M247.398 239.311L247.83 236.251C247.914 235.639 247.956 235.153 247.956 234.793C247.956 234.433 247.914 234.199 247.83 234.091C248.262 233.767 248.826 233.491 249.522 233.263C250.218 233.035 250.836 232.921 251.376 232.921C252.264 232.921 252.708 233.269 252.708 233.965C252.708 234.049 252.702 234.145 252.69 234.253L252.078 238.627C252.066 238.711 252.06 238.789 252.06 238.861C252.06 239.233 252.216 239.419 252.528 239.419C252.708 239.419 252.918 239.341 253.158 239.185C253.314 239.329 253.392 239.521 253.392 239.761C253.392 240.421 253.011 240.964 252.249 241.39C251.487 241.816 250.65 242.029 249.738 242.029C248.802 242.029 248.169 241.834 247.839 241.444C247.509 241.054 247.344 240.565 247.344 239.977C247.344 239.773 247.362 239.551 247.398 239.311ZM248.46 230.707C248.46 230.179 248.745 229.726 249.315 229.348C249.885 228.97 250.566 228.781 251.358 228.781C251.97 228.781 252.456 228.904 252.816 229.15C253.176 229.396 253.356 229.723 253.356 230.131C253.356 230.659 253.071 231.112 252.501 231.49C251.931 231.868 251.25 232.057 250.458 232.057C249.846 232.057 249.36 231.934 249 231.688C248.64 231.442 248.46 231.115 248.46 230.707Z"/>
<path d="M254.04 240.013L254.562 236.251C254.646 235.651 254.688 235.165 254.688 234.793C254.688 234.445 254.646 234.211 254.562 234.091C254.994 233.767 255.555 233.491 256.245 233.263C256.935 233.035 257.55 232.921 258.09 232.921C258.99 232.921 259.44 233.269 259.44 233.965C259.44 234.061 259.434 234.157 259.422 234.253L259.332 234.847C259.776 234.259 260.346 233.785 261.042 233.425C261.738 233.065 262.44 232.885 263.148 232.885C263.988 232.885 264.645 233.089 265.119 233.497C265.593 233.905 265.83 234.481 265.83 235.225C265.83 235.633 265.734 236.272 265.542 237.142C265.35 238.012 265.254 238.561 265.254 238.789C265.254 239.221 265.434 239.437 265.794 239.437C266.022 239.437 266.232 239.353 266.424 239.185C266.58 239.317 266.658 239.515 266.658 239.779C266.658 240.355 266.298 240.874 265.578 241.336C264.858 241.798 263.958 242.029 262.878 242.029C261.27 242.029 260.466 241.351 260.466 239.995C260.466 239.551 260.568 238.873 260.772 237.961C260.976 237.049 261.078 236.491 261.078 236.287C261.078 235.903 260.916 235.711 260.592 235.711C260.28 235.711 259.95 235.873 259.602 236.197C259.254 236.521 259.056 236.833 259.008 237.133L258.666 239.635C258.606 240.043 258.576 240.409 258.576 240.733C258.576 241.045 258.606 241.315 258.666 241.543C258.174 241.867 257.412 242.029 256.38 242.029C255.42 242.029 254.784 241.894 254.472 241.624C254.16 241.354 254.004 240.967 254.004 240.463C254.004 240.319 254.016 240.169 254.04 240.013Z"/>
<path d="M268.98 234.415C270.144 233.395 271.656 232.885 273.516 232.885C274.812 232.885 275.811 233.119 276.513 233.587C277.215 234.055 277.566 234.601 277.566 235.225C277.566 235.825 277.239 236.284 276.585 236.602C275.931 236.92 275.226 237.079 274.47 237.079C274.326 237.079 274.188 237.073 274.056 237.061C274.056 236.965 274.056 236.869 274.056 236.773C274.056 235.453 273.738 234.793 273.102 234.793C272.694 234.793 272.373 235.048 272.139 235.558C271.905 236.068 271.788 236.641 271.788 237.277C271.788 238.753 272.472 239.491 273.84 239.491C274.776 239.491 275.676 239.143 276.54 238.447C276.936 238.675 277.134 239.017 277.134 239.473C277.134 240.193 276.699 240.823 275.829 241.363C274.959 241.903 273.81 242.173 272.382 242.173C270.786 242.173 269.526 241.831 268.602 241.147C267.678 240.463 267.216 239.485 267.216 238.213C267.216 236.713 267.804 235.447 268.98 234.415Z"/>
<path d="M278.214 239.311L278.646 236.251C278.73 235.639 278.772 235.153 278.772 234.793C278.772 234.433 278.73 234.199 278.646 234.091C279.078 233.767 279.642 233.491 280.338 233.263C281.034 233.035 281.652 232.921 282.192 232.921C283.08 232.921 283.524 233.269 283.524 233.965C283.524 234.049 283.518 234.145 283.506 234.253L282.894 238.627C282.882 238.711 282.876 238.789 282.876 238.861C282.876 239.233 283.032 239.419 283.344 239.419C283.524 239.419 283.734 239.341 283.974 239.185C284.13 239.329 284.208 239.521 284.208 239.761C284.208 240.421 283.827 240.964 283.065 241.39C282.303 241.816 281.466 242.029 280.554 242.029C279.618 242.029 278.985 241.834 278.655 241.444C278.325 241.054 278.16 240.565 278.16 239.977C278.16 239.773 278.178 239.551 278.214 239.311ZM279.276 230.707C279.276 230.179 279.561 229.726 280.131 229.348C280.701 228.97 281.382 228.781 282.174 228.781C282.786 228.781 283.272 228.904 283.632 229.15C283.992 229.396 284.172 229.723 284.172 230.131C284.172 230.659 283.887 231.112 283.317 231.49C282.747 231.868 282.066 232.057 281.274 232.057C280.662 232.057 280.176 231.934 279.816 231.688C279.456 231.442 279.276 231.115 279.276 230.707Z"/>
</g>
</g>
</g>
</svg>
