<?xml version="1.0" encoding="UTF-8" standalone="no"?>
<!DOCTYPE svg PUBLIC "-//W3C//DTD SVG 1.1//EN" "http://www.w3.org/Graphics/SVG/1.1/DTD/svg11.dtd">
<!-- Created with Vectornator (http://vectornator.io/) -->
<svg height="100%" stroke-miterlimit="10" style="fill-rule:nonzero;clip-rule:evenodd;stroke-linecap:round;stroke-linejoin:round;" version="1.1" viewBox="0 0 308.58 308.58" width="100%" xml:space="preserve" xmlns="http://www.w3.org/2000/svg" xmlns:xlink="http://www.w3.org/1999/xlink">
<defs/>
<g id="Adsız">
<path d="M1.44071 154.29C1.44071 69.8737 69.8737 1.44071 154.29 1.44071C238.706 1.44071 307.139 69.8737 307.139 154.29C307.139 238.706 238.706 307.139 154.29 307.139C69.8737 307.139 1.44071 238.706 1.44071 154.29Z" fill="#ffd200" fill-rule="nonzero" opacity="1" stroke="#866f03" stroke-linecap="butt" stroke-linejoin="miter" stroke-width="2"/>
<g opacity="1">
<path d="M255.358 92.2926C255.838 91.6558 255.593 90.7349 254.858 90.4116C252.637 89.445 250.835 87.9689 249.45 85.9834C249.146 85.5523 249.332 84.9547 249.822 84.7686C254.139 83.1423 258.222 83.5929 262.068 86.1206C264.341 87.6097 266.196 89.2164 267.633 90.9406C269.384 93.0372 270.638 95.1043 271.395 97.1421C272.44 99.9375 272.434 103.014 271.376 106.371C271.287 106.635 270.984 106.743 270.749 106.606C267.881 104.888 265.974 102.89 265.027 100.61C264.772 99.993 264.028 99.7579 263.469 100.101C261.151 101.505 258.711 101.969 256.151 101.492C254.251 101.139 253.349 99.9506 253.447 97.9259C253.552 95.7183 254.188 93.8405 255.358 92.2926Z" fill="#f5060b" fill-rule="nonzero" opacity="1" stroke="none"/>
<path d="M241.397 108.712C242.664 105.264 244.525 102.201 246.981 99.5228C247.177 99.2974 247.138 98.9643 246.903 98.9153C246.557 98.837 246.142 99.0198 245.659 99.464C242.837 102.083 241.266 104.989 240.946 108.183C240.502 108.151 240.257 107.837 240.212 107.243C239.565 99.3856 242.053 92.9621 247.677 87.9722C247.902 87.7762 248.225 87.7272 248.48 87.8644C250.355 88.8245 251.981 90.0981 253.359 91.6852C253.555 91.9105 253.604 92.224 253.486 92.4984C252.291 95.235 252.16 98.0173 253.094 100.845C253.192 101.149 253.398 101.414 253.663 101.59C256.105 103.229 258.976 103.317 262.274 101.854C262.725 101.658 263.254 101.747 263.607 102.099L268.27 106.763C268.642 107.145 268.691 107.733 268.378 108.173C265.537 112.118 261.595 114.548 256.553 115.462C253.045 116.096 249.509 116.38 245.943 116.315C245.681 116.308 245.463 116.262 245.286 116.178C244.731 115.929 244.721 115.668 245.257 115.394C245.401 115.315 245.6 115.253 245.855 115.208C250.152 114.476 253.682 112.422 256.445 109.045C257.405 107.87 257.235 107.625 255.936 108.311C255.753 108.409 255.58 108.542 255.416 108.712C252.621 111.645 249.185 113.343 245.11 113.807C244.796 113.839 244.496 113.947 244.209 114.13C242.746 115.038 242.367 114.489 243.072 112.484C243.765 110.518 245.159 108.18 247.255 105.469C247.687 104.901 247.625 104.591 247.069 104.539C246.785 104.509 246.472 104.627 246.207 104.862C244.209 106.632 242.808 108.797 242.004 111.357C241.9 111.691 241.792 111.697 241.681 111.377C241.387 110.535 241.292 109.646 241.397 108.712Z" fill="#f5060b" fill-rule="nonzero" opacity="1" stroke="none"/>
<g opacity="1">
<path d="M36.6121 187.768L42.8978 143.355C43.3787 139.989 43.6191 137.275 43.6191 135.215C43.6191 133.085 43.3443 131.677 42.7948 130.99C45.3366 129.135 48.5825 127.555 52.5325 126.25C56.4826 124.944 60.0377 124.292 63.1977 124.292C66.4265 124.292 68.6591 124.859 69.8957 125.992C71.1322 127.126 71.7505 128.62 71.7505 130.474C71.7505 130.955 71.7161 131.436 71.6474 131.917L64.1251 185.604C63.7817 187.939 63.6099 190.035 63.6099 191.889C63.6099 193.676 63.7817 195.221 64.1251 196.526C61.2399 198.381 56.8089 199.309 50.8323 199.309C45.1305 199.309 41.3006 198.536 39.3428 196.99C37.3849 195.445 36.406 193.229 36.406 190.344C36.406 189.519 36.4747 188.661 36.6121 187.768Z" fill="#fc3500" fill-rule="nonzero" opacity="1" stroke="none"/>
<path d="M74.9449 190.344L81.3337 145.004C82.0207 139.92 82.3642 136.073 82.3642 133.463C82.3642 131.402 82.1581 130.062 81.7459 129.444C82.9824 128.207 85.1292 127.04 88.1862 125.94C91.2432 124.841 94.1457 124.292 96.8935 124.292C100.466 124.292 103.282 124.944 105.343 126.25C107.404 127.555 109.534 129.891 111.732 133.257L128.941 159.842L131.62 140.779C132.032 137.894 132.238 135.421 132.238 133.36C132.238 131.161 131.998 129.478 131.517 128.311C132.891 127.349 134.9 126.439 137.545 125.58C140.19 124.721 142.646 124.292 144.913 124.292C148.004 124.292 149.996 124.79 150.889 125.786C151.782 126.782 152.229 128.173 152.229 129.959C152.229 130.646 152.16 131.436 152.023 132.329L145.325 179.73C144.913 182.821 144.655 185.14 144.552 186.686C144.449 188.231 144.397 189.519 144.397 190.55C144.397 191.306 144.432 192.267 144.5 193.435C144.569 194.603 144.603 195.221 144.603 195.29C143.436 196.458 141.478 197.42 138.73 198.175C135.982 198.931 133.337 199.309 130.795 199.309C127.704 199.309 125.197 198.793 123.273 197.763C121.35 196.733 119.563 194.946 117.915 192.405L98.2331 161.8L94.7296 186.428C94.4548 188.489 94.3174 190.412 94.3174 192.199C94.3174 193.71 94.4204 195.153 94.6265 196.526C93.7335 197.282 92.2393 197.935 90.1441 198.484C88.0488 199.034 86.1081 199.309 84.322 199.309C80.4063 199.309 77.8302 198.742 76.5936 197.608C75.3571 196.475 74.7388 194.843 74.7388 192.714C74.7388 191.958 74.8075 191.168 74.9449 190.344Z" fill="#fc3500" fill-rule="nonzero" opacity="1" stroke="none"/>
<path d="M156.248 166.849C156.248 154.141 160.593 143.664 169.283 135.421C177.973 127.177 188.81 123.055 201.794 123.055C210.106 123.055 216.89 124.721 222.145 128.053C227.4 131.385 230.028 135.455 230.028 140.264C230.028 144.386 228.156 147.855 224.412 150.671C220.668 153.488 216.117 154.896 210.759 154.896C210.621 154.896 210.484 154.896 210.346 154.896C210.209 148.713 209.024 144.42 206.791 142.016C204.559 139.611 201.965 138.409 199.011 138.409C194.409 138.409 190.613 140.659 187.625 145.158C184.637 149.658 183.142 155.24 183.142 161.903C183.142 168.086 184.568 172.826 187.419 176.124C190.27 179.421 194.374 181.07 199.733 181.07C204.061 181.07 208.062 180.074 211.737 178.081C215.413 176.089 218.212 173.582 220.136 170.559C223.708 171.796 225.494 174.853 225.494 179.73C225.494 185.569 222.557 190.464 216.684 194.414C210.81 198.364 202.961 200.339 193.138 200.339C181.597 200.339 172.563 197.42 166.037 191.58C159.511 185.741 156.248 177.497 156.248 166.849Z" fill="#fc3500" fill-rule="nonzero" opacity="1" stroke="none"/>
<path d="M232.707 187.768L238.993 143.355C239.474 139.989 239.714 137.275 239.714 135.215C239.714 133.085 239.439 131.677 238.89 130.99C241.432 129.135 244.678 127.555 248.628 126.25C252.578 124.944 256.133 124.292 259.293 124.292C262.522 124.292 264.754 124.859 265.991 125.992C267.227 127.126 267.846 128.62 267.846 130.474C267.846 130.955 267.811 131.436 267.743 131.917L260.22 185.604C259.877 187.939 259.705 190.035 259.705 191.889C259.705 193.676 259.877 195.221 260.22 196.526C257.335 198.381 252.904 199.309 246.927 199.309C241.226 199.309 237.396 198.536 235.438 196.99C233.48 195.445 232.501 193.229 232.501 190.344C232.501 189.519 232.57 188.661 232.707 187.768Z" fill="#fc3500" fill-rule="nonzero" opacity="1" stroke="none"/>
</g>
<path d="M65.9089 73.6159C67.7252 76.5725 67.7463 79.5232 65.9723 82.4677C65.0069 84.0728 63.085 85.7744 60.2068 87.5725C56.9786 89.5878 53.7414 91.5941 50.4951 93.5914C44.9499 97.0006 42.7022 102.214 43.7521 109.231C43.9332 110.45 43.5741 110.64 42.6751 109.802C40.3761 107.654 38.7741 105.056 37.869 102.009C37.1208 99.4745 37.0846 97.0428 37.7604 94.7137C38.3336 92.7466 39.5977 90.8007 41.5527 88.8758C43.3328 87.1199 45.318 85.6205 47.5083 84.3775C49.6866 83.1345 51.0502 82.2173 51.5993 81.626C52.7639 80.389 53.5875 78.9077 54.0703 77.182C54.5469 75.4804 53.7173 74.4244 51.5812 74.0141L47.101 73.1452C46.7993 73.0909 46.7631 72.9612 46.9924 72.756C48.7483 71.2294 50.7033 70.0287 52.8574 69.1537C55.615 68.0314 58.1794 67.9439 60.5508 68.8913C62.723 69.7602 64.5091 71.335 65.9089 73.6159Z" fill="#fc3500" fill-rule="nonzero" opacity="1" stroke="none"/>
<path d="M58.6501 103.43C60.8404 107.358 62.4907 111.536 63.6009 115.965C63.7277 116.472 63.3385 116.952 62.8226 116.943C60.6201 116.901 58.3001 116.566 55.8623 115.938C50.2809 114.496 46.742 111.156 45.2455 105.919C44.8654 104.573 45.0615 103.02 45.8339 101.258C47.2699 98.0173 49.5448 95.5434 52.6583 93.8358C55.9167 92.0497 59.1841 90.2787 62.4605 88.5228C65.6042 86.8394 67.7131 83.9672 68.7872 79.9063C69.2156 78.3073 69.7978 78.247 70.534 79.7253C71.1253 80.92 71.3546 82.3833 71.2219 84.115C71.1676 84.7757 71.4753 85.4093 72.0274 85.7804C74.5134 87.4458 76.0521 89.6753 76.6434 92.4691C76.9089 93.7302 76.8184 94.7137 76.3719 95.4197C75.8349 96.2826 74.8754 96.8497 73.4937 97.1213C72.4256 97.3325 72.3653 97.7066 73.3126 98.2436C75.4004 99.4202 76.6615 101.092 77.096 103.258C77.2528 104.06 76.9692 104.269 76.2452 103.882C70.6094 100.89 64.8108 100.552 58.8492 102.869C58.6229 102.95 58.5324 103.222 58.6501 103.43ZM73.2493 90.2425C73.2493 89.609 72.7424 89.1021 72.1089 89.1021C71.4753 89.1021 70.9684 89.609 70.9684 90.2425C70.9684 90.8761 71.4753 91.383 72.1089 91.383C72.7424 91.383 73.2493 90.8761 73.2493 90.2425Z" fill="#fc3500" fill-rule="nonzero" opacity="1" stroke="none"/>
<path d="M67.7736 116.259C66.6573 116.301 65.9936 115.764 65.7824 114.648C65.2997 112.084 64.5484 109.821 63.5287 107.86C63.4261 107.661 63.1123 107.205 62.5874 106.493C61.6762 105.262 62.3641 104.813 64.651 105.145C66.5939 105.428 67.7826 105.823 68.2171 106.33C70.4979 109.009 72.0487 112.084 72.8693 115.553C72.9327 115.843 72.7245 116.132 72.4258 116.16C71.5207 116.244 70.7182 116.262 70.0182 116.214C69.7346 116.196 68.9864 116.211 67.7736 116.259Z" fill="#fc3500" fill-rule="nonzero" opacity="1" stroke="none"/>
</g>
<g fill="#4d4d4d" opacity="1" stroke="none">
<path d="M75.043 234.912L75.897 228.878C75.9623 228.421 75.995 228.052 75.995 227.772C75.995 227.483 75.9577 227.291 75.883 227.198C76.2283 226.946 76.6693 226.731 77.206 226.554C77.7427 226.377 78.2257 226.288 78.655 226.288C79.0937 226.288 79.397 226.365 79.565 226.519C79.733 226.673 79.817 226.876 79.817 227.128C79.817 227.193 79.8123 227.259 79.803 227.324L79.299 230.95C80.1857 230.483 81.014 229.809 81.784 228.927C82.554 228.045 83.0043 227.198 83.135 226.386C83.3217 226.367 83.499 226.358 83.667 226.358C84.1617 226.358 84.612 226.465 85.018 226.68C85.424 226.895 85.627 227.217 85.627 227.646C85.627 228.113 85.3517 228.628 84.801 229.193C84.2503 229.758 83.555 230.278 82.715 230.754L84.129 233.526C84.4277 234.133 84.843 234.473 85.375 234.548C85.2163 235.033 84.878 235.477 84.36 235.878C83.842 236.279 83.2517 236.48 82.589 236.48C82.197 236.48 81.882 236.415 81.644 236.284C81.406 236.153 81.2077 235.92 81.049 235.584L79.705 232.672C79.4623 232.775 79.2337 232.868 79.019 232.952L78.781 234.618C78.7343 234.935 78.711 235.22 78.711 235.472C78.711 235.715 78.7343 235.925 78.781 236.102C78.389 236.354 77.787 236.48 76.975 236.48C76.1817 236.48 75.6567 236.375 75.4 236.165C75.1433 235.955 75.015 235.659 75.015 235.276C75.015 235.164 75.0243 235.043 75.043 234.912Z"/>
<path d="M85.851 234.044L86.159 231.874C86.2243 231.407 86.257 231.029 86.257 230.74C86.257 230.469 86.2243 230.287 86.159 230.194C86.495 229.942 86.9337 229.727 87.475 229.55C88.0163 229.373 88.497 229.284 88.917 229.284C89.6077 229.284 89.953 229.555 89.953 230.096C89.953 230.161 89.9483 230.236 89.939 230.32L89.449 233.834C89.4397 233.881 89.435 233.923 89.435 233.96C89.435 234.081 89.4747 234.189 89.554 234.282C89.6333 234.375 89.7523 234.422 89.911 234.422C90.163 234.422 90.3917 234.303 90.597 234.065C90.8023 233.827 90.919 233.582 90.947 233.33L91.157 231.874C91.2223 231.407 91.255 231.029 91.255 230.74C91.255 230.469 91.2223 230.287 91.157 230.194C91.493 229.942 91.9317 229.727 92.473 229.55C93.0143 229.373 93.495 229.284 93.915 229.284C94.6057 229.284 94.951 229.555 94.951 230.096C94.951 230.161 94.9463 230.236 94.937 230.32L94.461 233.722C94.4517 233.787 94.447 233.848 94.447 233.904C94.447 234.193 94.5683 234.338 94.811 234.338C94.951 234.338 95.1143 234.277 95.301 234.156C95.4223 234.268 95.483 234.422 95.483 234.618C95.483 235.113 95.1797 235.528 94.573 235.864C93.9663 236.2 93.3083 236.368 92.599 236.368C92.0203 236.368 91.5817 236.242 91.283 235.99C90.9843 235.738 90.835 235.397 90.835 234.968C90.1723 235.976 89.2343 236.48 88.021 236.48C87.2277 236.48 86.6607 236.291 86.32 235.913C85.9793 235.535 85.809 235.08 85.809 234.548C85.809 234.389 85.823 234.221 85.851 234.044Z"/>
<path d="M95.987 234.8L96.393 231.958C96.4583 231.501 96.491 231.132 96.491 230.852C96.491 230.563 96.4537 230.371 96.379 230.278C96.7243 230.017 97.163 229.8 97.695 229.627C98.227 229.454 98.7077 229.368 99.137 229.368C99.8277 229.368 100.173 229.639 100.173 230.18C100.173 230.245 100.168 230.32 100.159 230.404L100.061 231.118C100.714 229.914 101.433 229.312 102.217 229.312C102.525 229.312 102.765 229.41 102.938 229.606C103.111 229.802 103.197 230.073 103.197 230.418C103.197 230.829 103.104 231.2 102.917 231.531C102.73 231.862 102.497 232.093 102.217 232.224C101.909 232.019 101.55 231.916 101.139 231.916C100.542 231.916 100.108 232.21 99.837 232.798L99.585 234.506C99.5383 234.823 99.515 235.108 99.515 235.36C99.515 235.603 99.5383 235.813 99.585 235.99C99.2023 236.242 98.6097 236.368 97.807 236.368C97.0697 236.368 96.5773 236.263 96.33 236.053C96.0827 235.843 95.959 235.547 95.959 235.164C95.959 235.052 95.9683 234.931 95.987 234.8Z"/>
<path d="M103.365 234.044L103.673 231.874C103.738 231.407 103.771 231.029 103.771 230.74C103.771 230.469 103.738 230.287 103.673 230.194C104.009 229.942 104.448 229.727 104.989 229.55C105.53 229.373 106.011 229.284 106.431 229.284C107.122 229.284 107.467 229.555 107.467 230.096C107.467 230.161 107.462 230.236 107.453 230.32L106.963 233.834C106.954 233.881 106.949 233.923 106.949 233.96C106.949 234.081 106.989 234.189 107.068 234.282C107.147 234.375 107.266 234.422 107.425 234.422C107.677 234.422 107.906 234.303 108.111 234.065C108.316 233.827 108.433 233.582 108.461 233.33L108.671 231.874C108.736 231.407 108.769 231.029 108.769 230.74C108.769 230.469 108.736 230.287 108.671 230.194C109.007 229.942 109.446 229.727 109.987 229.55C110.528 229.373 111.009 229.284 111.429 229.284C112.12 229.284 112.465 229.555 112.465 230.096C112.465 230.161 112.46 230.236 112.451 230.32L111.975 233.722C111.966 233.787 111.961 233.848 111.961 233.904C111.961 234.193 112.082 234.338 112.325 234.338C112.465 234.338 112.628 234.277 112.815 234.156C112.936 234.268 112.997 234.422 112.997 234.618C112.997 235.113 112.694 235.528 112.087 235.864C111.48 236.2 110.822 236.368 110.113 236.368C109.534 236.368 109.096 236.242 108.797 235.99C108.498 235.738 108.349 235.397 108.349 234.968C107.686 235.976 106.748 236.48 105.535 236.48C104.742 236.48 104.175 236.291 103.834 235.913C103.493 235.535 103.323 235.08 103.323 234.548C103.323 234.389 103.337 234.221 103.365 234.044Z"/>
<path d="M113.529 234.044L113.837 231.874C113.902 231.407 113.935 231.029 113.935 230.74C113.935 230.469 113.902 230.287 113.837 230.194C114.173 229.942 114.605 229.727 115.132 229.55C115.659 229.373 116.133 229.284 116.553 229.284C117.244 229.284 117.589 229.555 117.589 230.096C117.589 230.161 117.584 230.236 117.575 230.32L117.085 233.834C117.076 233.881 117.071 233.923 117.071 233.96C117.071 234.081 117.108 234.189 117.183 234.282C117.258 234.375 117.379 234.422 117.547 234.422C117.808 234.422 118.037 234.303 118.233 234.065C118.429 233.827 118.546 233.582 118.583 233.33L118.793 231.874C118.858 231.407 118.891 231.029 118.891 230.74C118.891 230.469 118.858 230.287 118.793 230.194C119.129 229.942 119.561 229.727 120.088 229.55C120.615 229.373 121.089 229.284 121.509 229.284C122.2 229.284 122.545 229.555 122.545 230.096C122.545 230.161 122.54 230.236 122.531 230.32L121.747 235.948C121.598 237.021 120.991 237.873 119.927 238.503C118.863 239.133 117.65 239.448 116.287 239.448C115.503 239.448 114.868 239.338 114.383 239.119C113.898 238.9 113.655 238.58 113.655 238.16C113.655 237.871 113.762 237.609 113.977 237.376C114.192 237.143 114.43 237.012 114.691 236.984C115.167 237.488 115.741 237.74 116.413 237.74C116.646 237.74 116.856 237.712 117.043 237.656C117.23 237.6 117.386 237.535 117.512 237.46C117.638 237.385 117.752 237.271 117.855 237.117C117.958 236.963 118.037 236.835 118.093 236.732C118.149 236.629 118.203 236.468 118.254 236.249C118.305 236.03 118.338 235.873 118.352 235.78C118.366 235.687 118.392 235.523 118.429 235.29L118.471 235.01L118.359 235.01C117.734 235.99 116.833 236.48 115.657 236.48C114.864 236.48 114.304 236.293 113.977 235.92C113.65 235.547 113.487 235.094 113.487 234.562C113.487 234.403 113.501 234.231 113.529 234.044Z"/>
<path d="M122.979 233.358C122.979 232.219 123.462 231.251 124.428 230.453C125.394 229.655 126.554 229.256 127.907 229.256C128.784 229.256 129.498 229.431 130.049 229.781C130.6 230.131 130.875 230.609 130.875 231.216C130.875 231.505 130.805 231.778 130.665 232.035C130.525 232.292 130.301 232.539 129.993 232.777C129.685 233.015 129.242 233.206 128.663 233.351C128.084 233.496 127.398 233.573 126.605 233.582C126.745 234.189 127.193 234.492 127.949 234.492C128.78 234.492 129.54 234.184 130.231 233.568C130.492 233.708 130.623 233.965 130.623 234.338C130.623 234.991 130.259 235.512 129.531 235.899C128.803 236.286 127.916 236.48 126.871 236.48C125.695 236.48 124.752 236.212 124.043 235.675C123.334 235.138 122.979 234.366 122.979 233.358ZM127.781 232.182C128.136 231.902 128.313 231.561 128.313 231.16C128.313 230.983 128.269 230.845 128.18 230.747C128.091 230.649 127.968 230.6 127.809 230.6C127.492 230.6 127.212 230.81 126.969 231.23C126.726 231.65 126.586 232.14 126.549 232.7C127.006 232.644 127.417 232.471 127.781 232.182Z"/>
<path d="M131.393 234.8L131.799 231.874C131.864 231.407 131.902 231.029 131.911 230.74C131.902 230.469 131.864 230.287 131.799 230.194C132.135 229.942 132.571 229.727 133.108 229.55C133.645 229.373 134.123 229.284 134.543 229.284C135.243 229.284 135.593 229.555 135.593 230.096C135.593 230.171 135.588 230.245 135.579 230.32L135.509 230.782C135.864 230.315 136.298 229.944 136.811 229.669C137.324 229.394 137.856 229.256 138.407 229.256C138.948 229.256 139.392 229.387 139.737 229.648C140.082 229.909 140.288 230.283 140.353 230.768C140.717 230.311 141.163 229.944 141.69 229.669C142.217 229.394 142.766 229.256 143.335 229.256C143.97 229.256 144.469 229.417 144.833 229.739C145.197 230.061 145.379 230.507 145.379 231.076C145.379 231.393 145.304 231.89 145.155 232.567C145.006 233.244 144.931 233.671 144.931 233.848C144.931 234.184 145.071 234.352 145.351 234.352C145.528 234.352 145.692 234.287 145.841 234.156C145.962 234.259 146.023 234.413 146.023 234.618C146.023 235.075 145.752 235.481 145.211 235.836C144.67 236.191 143.96 236.368 143.083 236.368C141.832 236.368 141.207 235.841 141.207 234.786C141.207 234.441 141.286 233.913 141.445 233.204C141.604 232.495 141.683 232.061 141.683 231.902C141.683 231.603 141.557 231.454 141.305 231.454C141.053 231.454 140.822 231.566 140.612 231.79C140.402 232.014 140.269 232.252 140.213 232.504L139.933 234.506C139.896 234.823 139.877 235.103 139.877 235.346C139.877 235.598 139.896 235.813 139.933 235.99C139.55 236.242 138.976 236.368 138.211 236.368C137.455 236.368 136.956 236.265 136.713 236.06C136.47 235.855 136.349 235.561 136.349 235.178C136.349 235.057 136.358 234.931 136.377 234.8L136.769 232.042C136.778 231.986 136.783 231.935 136.783 231.888C136.783 231.599 136.666 231.454 136.433 231.454C136.181 231.454 135.931 231.58 135.684 231.832C135.437 232.084 135.294 232.327 135.257 232.56L134.991 234.506C134.944 234.823 134.921 235.108 134.921 235.36C134.921 235.603 134.944 235.813 134.991 235.99C134.608 236.242 134.016 236.368 133.213 236.368C132.476 236.368 131.983 236.261 131.736 236.046C131.489 235.831 131.365 235.528 131.365 235.136C131.365 235.033 131.374 234.921 131.393 234.8Z"/>
<path d="M146.639 234.254L146.975 231.874C147.04 231.398 147.073 231.02 147.073 230.74C147.073 230.46 147.04 230.278 146.975 230.194C147.311 229.942 147.75 229.727 148.291 229.55C148.832 229.373 149.313 229.284 149.733 229.284C150.424 229.284 150.769 229.555 150.769 230.096C150.769 230.161 150.764 230.236 150.755 230.32L150.279 233.722C150.27 233.787 150.265 233.848 150.265 233.904C150.265 234.193 150.386 234.338 150.629 234.338C150.769 234.338 150.932 234.277 151.119 234.156C151.24 234.268 151.301 234.417 151.301 234.604C151.301 235.117 151.005 235.54 150.412 235.871C149.819 236.202 149.168 236.368 148.459 236.368C147.731 236.368 147.239 236.216 146.982 235.913C146.725 235.61 146.597 235.229 146.597 234.772C146.597 234.613 146.611 234.441 146.639 234.254ZM147.465 227.562C147.465 227.151 147.687 226.799 148.13 226.505C148.573 226.211 149.103 226.064 149.719 226.064C150.195 226.064 150.573 226.16 150.853 226.351C151.133 226.542 151.273 226.797 151.273 227.114C151.273 227.525 151.051 227.877 150.608 228.171C150.165 228.465 149.635 228.612 149.019 228.612C148.543 228.612 148.165 228.516 147.885 228.325C147.605 228.134 147.465 227.879 147.465 227.562Z"/>
<path d="M151.637 235.136C151.637 234.8 151.765 234.52 152.022 234.296C152.279 234.072 152.552 233.946 152.841 233.918C153.074 234.263 153.387 234.513 153.779 234.667C154.171 234.821 154.544 234.898 154.899 234.898C155.16 234.898 155.366 234.854 155.515 234.765C155.664 234.676 155.739 234.553 155.739 234.394C155.739 234.301 155.713 234.219 155.662 234.149C155.611 234.079 155.52 234.018 155.389 233.967C155.258 233.916 155.142 233.878 155.039 233.855C154.936 233.832 154.778 233.799 154.563 233.757C154.348 233.715 154.19 233.68 154.087 233.652C152.92 233.381 152.337 232.798 152.337 231.902C152.337 231.127 152.715 230.474 153.471 229.942C154.227 229.41 155.254 229.144 156.551 229.144C157.438 229.144 158.145 229.268 158.672 229.515C159.199 229.762 159.463 230.082 159.463 230.474C159.463 230.717 159.37 230.941 159.183 231.146C158.996 231.351 158.754 231.482 158.455 231.538C157.82 231.034 157.242 230.782 156.719 230.782C156.486 230.782 156.292 230.836 156.138 230.943C155.984 231.05 155.907 231.183 155.907 231.342C155.907 231.435 155.93 231.512 155.977 231.573C156.024 231.634 156.112 231.687 156.243 231.734C156.374 231.781 156.476 231.813 156.551 231.832C156.626 231.851 156.775 231.883 156.999 231.93C157.354 232.005 157.638 232.077 157.853 232.147C158.068 232.217 158.299 232.32 158.546 232.455C158.793 232.59 158.978 232.77 159.099 232.994C159.22 233.218 159.281 233.489 159.281 233.806C159.281 234.506 158.966 235.096 158.336 235.577C157.706 236.058 156.822 236.359 155.683 236.48L155.459 236.942C156.532 236.942 157.069 237.32 157.069 238.076C157.069 238.571 156.861 238.981 156.446 239.308C156.031 239.635 155.468 239.798 154.759 239.798C154.218 239.798 153.814 239.707 153.548 239.525C153.282 239.343 153.149 239.117 153.149 238.846C153.149 238.65 153.205 238.473 153.317 238.314C153.746 238.491 154.171 238.58 154.591 238.58C154.908 238.58 155.158 238.522 155.34 238.405C155.522 238.288 155.613 238.127 155.613 237.922C155.613 237.614 155.123 237.455 154.143 237.446L154.605 236.536C153.681 236.527 152.955 236.405 152.428 236.172C151.901 235.939 151.637 235.593 151.637 235.136Z"/>
<path d="M159.939 230.908C159.939 230.451 160.049 230.103 160.268 229.865C160.487 229.627 160.77 229.508 161.115 229.508L161.185 229.508C161.25 229.041 161.288 228.668 161.297 228.388C161.288 228.117 161.25 227.935 161.185 227.842C161.521 227.59 161.953 227.375 162.48 227.198C163.007 227.021 163.481 226.932 163.901 226.932C164.601 226.932 164.951 227.203 164.951 227.744C164.951 227.819 164.946 227.893 164.937 227.968L164.727 229.508L166.925 229.508C166.972 229.667 166.995 229.821 166.995 229.97C166.995 230.371 166.895 230.691 166.694 230.929C166.493 231.167 166.225 231.286 165.889 231.286L164.475 231.286L164.209 233.148C164.19 233.269 164.181 233.386 164.181 233.498C164.181 233.75 164.239 233.951 164.356 234.1C164.473 234.249 164.69 234.324 165.007 234.324C165.483 234.324 165.88 234.165 166.197 233.848C166.421 233.951 166.533 234.161 166.533 234.478C166.533 235.075 166.225 235.558 165.609 235.927C164.993 236.296 164.223 236.48 163.299 236.48C162.319 236.48 161.614 236.279 161.185 235.878C160.756 235.477 160.541 234.977 160.541 234.38C160.541 234.24 160.55 234.095 160.569 233.946L160.933 231.286L159.995 231.286C159.958 231.146 159.939 231.02 159.939 230.908Z"/>
<path d="M167.023 233.358C167.023 232.219 167.506 231.251 168.472 230.453C169.438 229.655 170.598 229.256 171.951 229.256C172.828 229.256 173.542 229.431 174.093 229.781C174.644 230.131 174.919 230.609 174.919 231.216C174.919 231.505 174.849 231.778 174.709 232.035C174.569 232.292 174.345 232.539 174.037 232.777C173.729 233.015 173.286 233.206 172.707 233.351C172.128 233.496 171.442 233.573 170.649 233.582C170.789 234.189 171.237 234.492 171.993 234.492C172.824 234.492 173.584 234.184 174.275 233.568C174.536 233.708 174.667 233.965 174.667 234.338C174.667 234.991 174.303 235.512 173.575 235.899C172.847 236.286 171.96 236.48 170.915 236.48C169.739 236.48 168.796 236.212 168.087 235.675C167.378 235.138 167.023 234.366 167.023 233.358ZM171.825 232.182C172.18 231.902 172.357 231.561 172.357 231.16C172.357 230.983 172.313 230.845 172.224 230.747C172.135 230.649 172.012 230.6 171.853 230.6C171.536 230.6 171.256 230.81 171.013 231.23C170.77 231.65 170.63 232.14 170.593 232.7C171.05 232.644 171.461 232.471 171.825 232.182Z"/>
<path d="M177.957 234.842L178.811 228.78C178.886 228.276 178.923 227.875 178.923 227.576C178.923 227.296 178.89 227.109 178.825 227.016C179.105 226.829 179.716 226.633 180.659 226.428C181.602 226.223 182.624 226.12 183.725 226.12C185.125 226.12 186.212 226.339 186.987 226.778C187.762 227.217 188.149 227.805 188.149 228.542C188.149 229.709 187.332 230.539 185.699 231.034C187.155 231.314 187.883 232.009 187.883 233.12C187.883 234.203 187.353 235.057 186.294 235.682C185.235 236.307 183.814 236.62 182.031 236.62C181.555 236.62 181.093 236.594 180.645 236.543C180.197 236.492 179.749 236.405 179.301 236.284C178.853 236.163 178.515 235.988 178.286 235.759C178.057 235.53 177.943 235.276 177.943 234.996C177.943 234.949 177.948 234.898 177.957 234.842ZM183.109 230.6C183.352 230.563 183.62 230.49 183.914 230.383C184.208 230.276 184.434 230.115 184.593 229.9C184.752 229.685 184.831 229.424 184.831 229.116C184.831 228.472 184.341 228.15 183.361 228.15C183.156 228.15 182.899 228.164 182.591 228.192L182.227 230.712C182.572 230.684 182.866 230.647 183.109 230.6ZM182.465 234.59C183.006 234.59 183.431 234.462 183.739 234.205C184.047 233.948 184.201 233.591 184.201 233.134C184.201 232.49 183.762 232.168 182.885 232.168C182.512 232.168 182.227 232.173 182.031 232.182L181.695 234.52C181.994 234.567 182.25 234.59 182.465 234.59Z"/>
<path d="M188.611 234.254L188.947 231.874C189.012 231.398 189.045 231.02 189.045 230.74C189.045 230.46 189.012 230.278 188.947 230.194C189.283 229.942 189.722 229.727 190.263 229.55C190.804 229.373 191.285 229.284 191.705 229.284C192.396 229.284 192.741 229.555 192.741 230.096C192.741 230.161 192.736 230.236 192.727 230.32L192.251 233.722C192.242 233.787 192.237 233.848 192.237 233.904C192.237 234.193 192.358 234.338 192.601 234.338C192.741 234.338 192.904 234.277 193.091 234.156C193.212 234.268 193.273 234.417 193.273 234.604C193.273 235.117 192.977 235.54 192.384 235.871C191.791 236.202 191.14 236.368 190.431 236.368C189.703 236.368 189.211 236.216 188.954 235.913C188.697 235.61 188.569 235.229 188.569 234.772C188.569 234.613 188.583 234.441 188.611 234.254ZM189.437 227.562C189.437 227.151 189.659 226.799 190.102 226.505C190.545 226.211 191.075 226.064 191.691 226.064C192.167 226.064 192.545 226.16 192.825 226.351C193.105 226.542 193.245 226.797 193.245 227.114C193.245 227.525 193.023 227.877 192.58 228.171C192.137 228.465 191.607 228.612 190.991 228.612C190.515 228.612 190.137 228.516 189.857 228.325C189.577 228.134 189.437 227.879 189.437 227.562Z"/>
<path d="M193.777 234.8L194.183 231.958C194.248 231.501 194.281 231.132 194.281 230.852C194.281 230.563 194.244 230.371 194.169 230.278C194.514 230.017 194.953 229.8 195.485 229.627C196.017 229.454 196.498 229.368 196.927 229.368C197.618 229.368 197.963 229.639 197.963 230.18C197.963 230.245 197.958 230.32 197.949 230.404L197.851 231.118C198.504 229.914 199.223 229.312 200.007 229.312C200.315 229.312 200.555 229.41 200.728 229.606C200.901 229.802 200.987 230.073 200.987 230.418C200.987 230.829 200.894 231.2 200.707 231.531C200.52 231.862 200.287 232.093 200.007 232.224C199.699 232.019 199.34 231.916 198.929 231.916C198.332 231.916 197.898 232.21 197.627 232.798L197.375 234.506C197.328 234.823 197.305 235.108 197.305 235.36C197.305 235.603 197.328 235.813 197.375 235.99C196.992 236.242 196.4 236.368 195.597 236.368C194.86 236.368 194.367 236.263 194.12 236.053C193.873 235.843 193.749 235.547 193.749 235.164C193.749 235.052 193.758 234.931 193.777 234.8Z"/>
<path d="M202.373 226.792C202.849 226.456 203.4 226.288 204.025 226.288C204.856 226.288 205.271 226.675 205.271 227.45C205.271 228.225 204.926 228.981 204.235 229.718C203.544 230.455 202.886 230.824 202.261 230.824C202 230.824 201.799 230.74 201.659 230.572C201.92 230.18 202.133 229.716 202.296 229.179C202.459 228.642 202.541 228.145 202.541 227.688C202.541 227.324 202.485 227.025 202.373 226.792Z"/>
<path d="M205.131 234.254L205.467 231.874C205.532 231.398 205.565 231.02 205.565 230.74C205.565 230.46 205.532 230.278 205.467 230.194C205.803 229.942 206.242 229.727 206.783 229.55C207.324 229.373 207.805 229.284 208.225 229.284C208.916 229.284 209.261 229.555 209.261 230.096C209.261 230.161 209.256 230.236 209.247 230.32L208.771 233.722C208.762 233.787 208.757 233.848 208.757 233.904C208.757 234.193 208.878 234.338 209.121 234.338C209.261 234.338 209.424 234.277 209.611 234.156C209.732 234.268 209.793 234.417 209.793 234.604C209.793 235.117 209.497 235.54 208.904 235.871C208.311 236.202 207.66 236.368 206.951 236.368C206.223 236.368 205.731 236.216 205.474 235.913C205.217 235.61 205.089 235.229 205.089 234.772C205.089 234.613 205.103 234.441 205.131 234.254ZM205.957 227.562C205.957 227.151 206.179 226.799 206.622 226.505C207.065 226.211 207.595 226.064 208.211 226.064C208.687 226.064 209.065 226.16 209.345 226.351C209.625 226.542 209.765 226.797 209.765 227.114C209.765 227.525 209.543 227.877 209.1 228.171C208.657 228.465 208.127 228.612 207.511 228.612C207.035 228.612 206.657 228.516 206.377 228.325C206.097 228.134 205.957 227.879 205.957 227.562Z"/>
<path d="M210.297 234.8L210.703 231.874C210.768 231.407 210.801 231.029 210.801 230.74C210.801 230.469 210.768 230.287 210.703 230.194C211.039 229.942 211.475 229.727 212.012 229.55C212.549 229.373 213.027 229.284 213.447 229.284C214.147 229.284 214.497 229.555 214.497 230.096C214.497 230.171 214.492 230.245 214.483 230.32L214.413 230.782C214.758 230.325 215.202 229.956 215.743 229.676C216.284 229.396 216.83 229.256 217.381 229.256C218.034 229.256 218.545 229.415 218.914 229.732C219.283 230.049 219.467 230.497 219.467 231.076C219.467 231.393 219.392 231.89 219.243 232.567C219.094 233.244 219.019 233.671 219.019 233.848C219.019 234.184 219.159 234.352 219.439 234.352C219.616 234.352 219.78 234.287 219.929 234.156C220.05 234.259 220.111 234.413 220.111 234.618C220.111 235.066 219.831 235.47 219.271 235.829C218.711 236.188 218.011 236.368 217.171 236.368C215.92 236.368 215.295 235.841 215.295 234.786C215.295 234.441 215.374 233.913 215.533 233.204C215.692 232.495 215.771 232.061 215.771 231.902C215.771 231.603 215.645 231.454 215.393 231.454C215.15 231.454 214.894 231.58 214.623 231.832C214.352 232.084 214.198 232.327 214.161 232.56L213.895 234.506C213.848 234.823 213.825 235.108 213.825 235.36C213.825 235.603 213.848 235.813 213.895 235.99C213.512 236.242 212.92 236.368 212.117 236.368C211.37 236.368 210.876 236.263 210.633 236.053C210.39 235.843 210.269 235.542 210.269 235.15C210.269 235.038 210.278 234.921 210.297 234.8Z"/>
<path d="M221.917 230.446C222.822 229.653 223.998 229.256 225.445 229.256C226.453 229.256 227.23 229.438 227.776 229.802C228.322 230.166 228.595 230.591 228.595 231.076C228.595 231.543 228.341 231.9 227.832 232.147C227.323 232.394 226.775 232.518 226.187 232.518C226.075 232.518 225.968 232.513 225.865 232.504C225.865 232.429 225.865 232.355 225.865 232.28C225.865 231.253 225.618 230.74 225.123 230.74C224.806 230.74 224.556 230.938 224.374 231.335C224.192 231.732 224.101 232.177 224.101 232.672C224.101 233.82 224.633 234.394 225.697 234.394C226.425 234.394 227.125 234.123 227.797 233.582C228.105 233.759 228.259 234.025 228.259 234.38C228.259 234.94 227.921 235.43 227.244 235.85C226.567 236.27 225.674 236.48 224.563 236.48C223.322 236.48 222.342 236.214 221.623 235.682C220.904 235.15 220.545 234.389 220.545 233.4C220.545 232.233 221.002 231.249 221.917 230.446Z"/>
<path d="M229.099 234.254L229.435 231.874C229.5 231.398 229.533 231.02 229.533 230.74C229.533 230.46 229.5 230.278 229.435 230.194C229.771 229.942 230.21 229.727 230.751 229.55C231.292 229.373 231.773 229.284 232.193 229.284C232.884 229.284 233.229 229.555 233.229 230.096C233.229 230.161 233.224 230.236 233.215 230.32L232.739 233.722C232.73 233.787 232.725 233.848 232.725 233.904C232.725 234.193 232.846 234.338 233.089 234.338C233.229 234.338 233.392 234.277 233.579 234.156C233.7 234.268 233.761 234.417 233.761 234.604C233.761 235.117 233.465 235.54 232.872 235.871C232.279 236.202 231.628 236.368 230.919 236.368C230.191 236.368 229.699 236.216 229.442 235.913C229.185 235.61 229.057 235.229 229.057 234.772C229.057 234.613 229.071 234.441 229.099 234.254ZM229.925 227.562C229.925 227.151 230.147 226.799 230.59 226.505C231.033 226.211 231.563 226.064 232.179 226.064C232.655 226.064 233.033 226.16 233.313 226.351C233.593 226.542 233.733 226.797 233.733 227.114C233.733 227.525 233.511 227.877 233.068 228.171C232.625 228.465 232.095 228.612 231.479 228.612C231.003 228.612 230.625 228.516 230.345 228.325C230.065 228.134 229.925 227.879 229.925 227.562Z"/>
</g>
</g>
</svg>
