<svg width="24" height="25" viewBox="0 0 24 25" fill="none" xmlns="http://www.w3.org/2000/svg">
<path fill-rule="evenodd" clip-rule="evenodd" d="M18.7071 8.9267C18.7071 10.1826 19.039 10.9229 19.7695 11.776C20.3231 12.4044 20.5 13.2112 20.5 14.0864C20.5 14.9606 20.2128 15.7905 19.6373 16.4643C18.884 17.272 17.8215 17.7877 16.7372 17.8774C15.1659 18.0113 13.5937 18.1241 12.0005 18.1241C10.4063 18.1241 8.83505 18.0566 7.26375 17.8774C6.17846 17.7877 5.11602 17.272 4.36367 16.4643C3.78822 15.7905 3.5 14.9606 3.5 14.0864C3.5 13.2112 3.6779 12.4044 4.23049 11.776C4.98384 10.9229 5.29392 10.1826 5.29392 8.9267V8.50067C5.29392 6.81871 5.71333 5.71889 6.577 4.64223C7.86106 3.07207 9.91935 2.13037 11.9558 2.13037H12.0452C14.1254 2.13037 16.2502 3.11739 17.5125 4.75504C18.3314 5.80953 18.7071 6.86303 18.7071 8.50067V8.9267ZM9.07367 20.1912C9.07367 19.6876 9.53582 19.457 9.96318 19.3583C10.4631 19.2525 13.5093 19.2525 14.0092 19.3583C14.4366 19.457 14.8987 19.6876 14.8987 20.1912C14.8738 20.6706 14.5926 21.0956 14.204 21.3656C13.7001 21.7584 13.1088 22.0071 12.4906 22.0968C12.1487 22.1411 11.8128 22.1421 11.4828 22.0968C10.8636 22.0071 10.2723 21.7584 9.76938 21.3645C9.37978 21.0956 9.09852 20.6706 9.07367 20.1912Z" fill="white"/>
</svg>
