<svg width="24" height="24" viewBox="0 0 24 24" fill="none" xmlns="http://www.w3.org/2000/svg">
<path d="M21.568 19.7163L19.0133 17.6541C18.6268 17.2702 18.0072 17.2702 17.6207 17.6541C17.4203 17.856 17.3076 18.1302 17.3076 18.4162C17.3076 18.7022 17.4203 18.9764 17.6207 19.1783L19.7407 21.6081C20.2576 22.1305 21.0955 22.1305 21.6124 21.6081C22.1292 21.0857 22.1292 20.2387 21.6124 19.7163H21.568Z" fill="#AFBCCB"/>
<path fill-rule="evenodd" clip-rule="evenodd" d="M2 10.6699C2 5.88166 5.84034 2 10.5776 2C12.8526 2 15.0343 2.91344 16.6429 4.53936C18.2516 6.16529 19.1553 8.37052 19.1553 10.6699C19.1553 15.4582 15.3149 19.3399 10.5776 19.3399C5.84034 19.3399 2 15.4582 2 10.6699ZM5 10.5C5 7.46243 7.46243 5 10.5 5C11.9587 5 13.3576 5.57946 14.3891 6.61091C15.4205 7.64236 16 9.04131 16 10.5C16 13.5376 13.5376 16 10.5 16C7.46243 16 5 13.5376 5 10.5Z" fill="#AFBCCB"/>
</svg>
